G75*
G70*
%OFA0B0*%
%FSLAX24Y24*%
%IPPOS*%
%LPD*%
%AMOC8*
5,1,8,0,0,1.08239X$1,22.5*
%
%ADD10C,0.0000*%
%ADD11C,0.0050*%
%ADD12C,0.0030*%
%ADD13C,0.0010*%
D10*
X002548Y001161D02*
X013298Y001161D01*
X013342Y001163D01*
X013385Y001169D01*
X013427Y001178D01*
X013469Y001191D01*
X013509Y001208D01*
X013548Y001228D01*
X013585Y001251D01*
X013619Y001278D01*
X013652Y001307D01*
X013681Y001340D01*
X013708Y001374D01*
X013731Y001411D01*
X013751Y001450D01*
X013768Y001490D01*
X013781Y001532D01*
X013790Y001574D01*
X013796Y001617D01*
X013798Y001661D01*
X013798Y002081D01*
X013800Y002110D01*
X013805Y002138D01*
X013814Y002166D01*
X013825Y002193D01*
X013840Y002217D01*
X013858Y002240D01*
X013879Y002261D01*
X013902Y002279D01*
X013926Y002294D01*
X013953Y002305D01*
X013981Y002314D01*
X014009Y002319D01*
X014038Y002321D01*
X014968Y002321D01*
X014997Y002319D01*
X015025Y002314D01*
X015053Y002305D01*
X015080Y002294D01*
X015104Y002279D01*
X015127Y002261D01*
X015148Y002240D01*
X015166Y002217D01*
X015181Y002193D01*
X015192Y002166D01*
X015201Y002138D01*
X015206Y002110D01*
X015208Y002081D01*
X015208Y001721D01*
X015210Y001692D01*
X015215Y001664D01*
X015224Y001636D01*
X015235Y001609D01*
X015250Y001585D01*
X015268Y001562D01*
X015289Y001541D01*
X015312Y001523D01*
X015336Y001508D01*
X015363Y001497D01*
X015391Y001488D01*
X015419Y001483D01*
X015448Y001481D01*
X016888Y001481D01*
X016888Y001721D01*
X017728Y001721D01*
X017728Y001481D01*
X018266Y001481D01*
X018295Y001483D01*
X018324Y001488D01*
X018352Y001497D01*
X018378Y001509D01*
X018403Y001524D01*
X018426Y001542D01*
X018447Y001563D01*
X018465Y001586D01*
X018480Y001611D01*
X018492Y001637D01*
X018501Y001665D01*
X018506Y001694D01*
X018508Y001723D01*
X018508Y004361D01*
X018506Y004390D01*
X018501Y004418D01*
X018492Y004446D01*
X018481Y004473D01*
X018466Y004497D01*
X018448Y004520D01*
X018427Y004541D01*
X018404Y004559D01*
X018380Y004574D01*
X018353Y004585D01*
X018325Y004594D01*
X018297Y004599D01*
X018268Y004601D01*
X017728Y004601D01*
X017728Y004361D01*
X016888Y004361D01*
X016888Y004601D01*
X015448Y004601D01*
X015419Y004599D01*
X015391Y004594D01*
X015363Y004585D01*
X015336Y004574D01*
X015312Y004559D01*
X015289Y004541D01*
X015268Y004520D01*
X015250Y004497D01*
X015235Y004473D01*
X015224Y004446D01*
X015215Y004418D01*
X015210Y004390D01*
X015208Y004361D01*
X015208Y004001D01*
X015206Y003972D01*
X015201Y003944D01*
X015192Y003916D01*
X015181Y003889D01*
X015166Y003865D01*
X015148Y003842D01*
X015127Y003821D01*
X015104Y003803D01*
X015080Y003788D01*
X015053Y003777D01*
X015025Y003768D01*
X014997Y003763D01*
X014968Y003761D01*
X014068Y003761D01*
X014423Y003761D02*
X014425Y003777D01*
X014431Y003792D01*
X014441Y003805D01*
X014453Y003816D01*
X014468Y003823D01*
X014484Y003826D01*
X014500Y003825D01*
X014516Y003820D01*
X014529Y003811D01*
X014541Y003799D01*
X014548Y003785D01*
X014552Y003769D01*
X014552Y003753D01*
X014548Y003737D01*
X014541Y003723D01*
X014529Y003711D01*
X014516Y003702D01*
X014500Y003697D01*
X014484Y003696D01*
X014468Y003699D01*
X014453Y003706D01*
X014441Y003717D01*
X014431Y003730D01*
X014425Y003745D01*
X014423Y003761D01*
X014068Y003761D02*
X014035Y003763D01*
X014003Y003769D01*
X013972Y003779D01*
X013943Y003792D01*
X013915Y003809D01*
X013889Y003829D01*
X013866Y003852D01*
X013846Y003878D01*
X013829Y003906D01*
X013816Y003935D01*
X013806Y003966D01*
X013800Y003998D01*
X013798Y004031D01*
X013798Y006661D01*
X013796Y006705D01*
X013790Y006748D01*
X013781Y006790D01*
X013768Y006832D01*
X013751Y006872D01*
X013731Y006911D01*
X013708Y006948D01*
X013681Y006982D01*
X013652Y007015D01*
X013619Y007044D01*
X013585Y007071D01*
X013548Y007094D01*
X013509Y007114D01*
X013469Y007131D01*
X013427Y007144D01*
X013385Y007153D01*
X013342Y007159D01*
X013298Y007161D01*
X002548Y007161D01*
X003230Y006865D02*
X003232Y006889D01*
X003238Y006912D01*
X003248Y006934D01*
X003262Y006954D01*
X003279Y006971D01*
X003299Y006985D01*
X003321Y006995D01*
X003344Y007001D01*
X003368Y007003D01*
X003392Y007001D01*
X003415Y006995D01*
X003437Y006985D01*
X003457Y006971D01*
X003474Y006954D01*
X003488Y006934D01*
X003498Y006912D01*
X003504Y006889D01*
X003506Y006865D01*
X003504Y006841D01*
X003498Y006818D01*
X003488Y006796D01*
X003474Y006776D01*
X003457Y006759D01*
X003437Y006745D01*
X003415Y006735D01*
X003392Y006729D01*
X003368Y006727D01*
X003344Y006729D01*
X003321Y006735D01*
X003299Y006745D01*
X003279Y006759D01*
X003262Y006776D01*
X003248Y006796D01*
X003238Y006818D01*
X003232Y006841D01*
X003230Y006865D01*
X002548Y007161D02*
X002504Y007159D01*
X002461Y007153D01*
X002419Y007144D01*
X002377Y007131D01*
X002337Y007114D01*
X002298Y007094D01*
X002261Y007071D01*
X002227Y007044D01*
X002194Y007015D01*
X002165Y006982D01*
X002138Y006948D01*
X002115Y006911D01*
X002095Y006872D01*
X002078Y006832D01*
X002065Y006790D01*
X002056Y006748D01*
X002050Y006705D01*
X002048Y006661D01*
X002048Y001661D01*
X002050Y001617D01*
X002056Y001574D01*
X002065Y001532D01*
X002078Y001490D01*
X002095Y001450D01*
X002115Y001411D01*
X002138Y001374D01*
X002165Y001340D01*
X002194Y001307D01*
X002227Y001278D01*
X002261Y001251D01*
X002298Y001228D01*
X002337Y001208D01*
X002377Y001191D01*
X002419Y001178D01*
X002461Y001169D01*
X002504Y001163D01*
X002548Y001161D01*
X003410Y001307D02*
X003412Y001331D01*
X003418Y001354D01*
X003428Y001376D01*
X003442Y001396D01*
X003459Y001413D01*
X003479Y001427D01*
X003501Y001437D01*
X003524Y001443D01*
X003548Y001445D01*
X003572Y001443D01*
X003595Y001437D01*
X003617Y001427D01*
X003637Y001413D01*
X003654Y001396D01*
X003668Y001376D01*
X003678Y001354D01*
X003684Y001331D01*
X003686Y001307D01*
X003684Y001283D01*
X003678Y001260D01*
X003668Y001238D01*
X003654Y001218D01*
X003637Y001201D01*
X003617Y001187D01*
X003595Y001177D01*
X003572Y001171D01*
X003548Y001169D01*
X003524Y001171D01*
X003501Y001177D01*
X003479Y001187D01*
X003459Y001201D01*
X003442Y001218D01*
X003428Y001238D01*
X003418Y001260D01*
X003412Y001283D01*
X003410Y001307D01*
X003410Y002015D02*
X003412Y002039D01*
X003418Y002062D01*
X003428Y002084D01*
X003442Y002104D01*
X003459Y002121D01*
X003479Y002135D01*
X003501Y002145D01*
X003524Y002151D01*
X003548Y002153D01*
X003572Y002151D01*
X003595Y002145D01*
X003617Y002135D01*
X003637Y002121D01*
X003654Y002104D01*
X003668Y002084D01*
X003678Y002062D01*
X003684Y002039D01*
X003686Y002015D01*
X003684Y001991D01*
X003678Y001968D01*
X003668Y001946D01*
X003654Y001926D01*
X003637Y001909D01*
X003617Y001895D01*
X003595Y001885D01*
X003572Y001879D01*
X003548Y001877D01*
X003524Y001879D01*
X003501Y001885D01*
X003479Y001895D01*
X003459Y001909D01*
X003442Y001926D01*
X003428Y001946D01*
X003418Y001968D01*
X003412Y001991D01*
X003410Y002015D01*
X003230Y006157D02*
X003232Y006181D01*
X003238Y006204D01*
X003248Y006226D01*
X003262Y006246D01*
X003279Y006263D01*
X003299Y006277D01*
X003321Y006287D01*
X003344Y006293D01*
X003368Y006295D01*
X003392Y006293D01*
X003415Y006287D01*
X003437Y006277D01*
X003457Y006263D01*
X003474Y006246D01*
X003488Y006226D01*
X003498Y006204D01*
X003504Y006181D01*
X003506Y006157D01*
X003504Y006133D01*
X003498Y006110D01*
X003488Y006088D01*
X003474Y006068D01*
X003457Y006051D01*
X003437Y006037D01*
X003415Y006027D01*
X003392Y006021D01*
X003368Y006019D01*
X003344Y006021D01*
X003321Y006027D01*
X003299Y006037D01*
X003279Y006051D01*
X003262Y006068D01*
X003248Y006088D01*
X003238Y006110D01*
X003232Y006133D01*
X003230Y006157D01*
X014423Y003401D02*
X014425Y003417D01*
X014431Y003432D01*
X014441Y003445D01*
X014453Y003456D01*
X014468Y003463D01*
X014484Y003466D01*
X014500Y003465D01*
X014516Y003460D01*
X014529Y003451D01*
X014541Y003439D01*
X014548Y003425D01*
X014552Y003409D01*
X014552Y003393D01*
X014548Y003377D01*
X014541Y003363D01*
X014529Y003351D01*
X014516Y003342D01*
X014500Y003337D01*
X014484Y003336D01*
X014468Y003339D01*
X014453Y003346D01*
X014441Y003357D01*
X014431Y003370D01*
X014425Y003385D01*
X014423Y003401D01*
X014423Y003041D02*
X014425Y003057D01*
X014431Y003072D01*
X014441Y003085D01*
X014453Y003096D01*
X014468Y003103D01*
X014484Y003106D01*
X014500Y003105D01*
X014516Y003100D01*
X014529Y003091D01*
X014541Y003079D01*
X014548Y003065D01*
X014552Y003049D01*
X014552Y003033D01*
X014548Y003017D01*
X014541Y003003D01*
X014529Y002991D01*
X014516Y002982D01*
X014500Y002977D01*
X014484Y002976D01*
X014468Y002979D01*
X014453Y002986D01*
X014441Y002997D01*
X014431Y003010D01*
X014425Y003025D01*
X014423Y003041D01*
X014423Y002681D02*
X014425Y002697D01*
X014431Y002712D01*
X014441Y002725D01*
X014453Y002736D01*
X014468Y002743D01*
X014484Y002746D01*
X014500Y002745D01*
X014516Y002740D01*
X014529Y002731D01*
X014541Y002719D01*
X014548Y002705D01*
X014552Y002689D01*
X014552Y002673D01*
X014548Y002657D01*
X014541Y002643D01*
X014529Y002631D01*
X014516Y002622D01*
X014500Y002617D01*
X014484Y002616D01*
X014468Y002619D01*
X014453Y002626D01*
X014441Y002637D01*
X014431Y002650D01*
X014425Y002665D01*
X014423Y002681D01*
X014423Y002321D02*
X014425Y002337D01*
X014431Y002352D01*
X014441Y002365D01*
X014453Y002376D01*
X014468Y002383D01*
X014484Y002386D01*
X014500Y002385D01*
X014516Y002380D01*
X014529Y002371D01*
X014541Y002359D01*
X014548Y002345D01*
X014552Y002329D01*
X014552Y002313D01*
X014548Y002297D01*
X014541Y002283D01*
X014529Y002271D01*
X014516Y002262D01*
X014500Y002257D01*
X014484Y002256D01*
X014468Y002259D01*
X014453Y002266D01*
X014441Y002277D01*
X014431Y002290D01*
X014425Y002305D01*
X014423Y002321D01*
D11*
X015870Y002403D02*
X015870Y002718D01*
X016106Y002718D02*
X016106Y002403D01*
X016320Y002403D02*
X016320Y002718D01*
X016556Y002718D02*
X016556Y002403D01*
X016652Y002403D02*
X016652Y002246D01*
X016691Y002246D02*
X016691Y002403D01*
X016652Y002403D01*
X016770Y002403D02*
X016770Y002443D01*
X017006Y002443D01*
X017006Y002482D01*
X016770Y002482D01*
X016770Y002718D01*
X017006Y002718D02*
X017006Y002482D01*
X017006Y002443D02*
X017006Y002403D01*
X017085Y002403D02*
X017124Y002403D01*
X017124Y002246D01*
X017085Y002246D02*
X017085Y002403D01*
X016770Y002443D02*
X016770Y002482D01*
X017190Y002883D02*
X017190Y003120D01*
X017426Y003120D01*
X017426Y002883D01*
X017522Y002876D02*
X017522Y002718D01*
X017561Y002718D01*
X017561Y002876D01*
X017640Y002718D02*
X017640Y002679D01*
X017876Y002679D01*
X017876Y002640D01*
X017640Y002640D01*
X017640Y002403D01*
X017876Y002403D02*
X017876Y002640D01*
X017876Y002679D02*
X017876Y002718D01*
X017955Y002718D02*
X017994Y002718D01*
X017994Y002876D01*
X017955Y002876D02*
X017955Y002718D01*
X017640Y002679D02*
X017640Y002640D01*
X017426Y003120D02*
X017426Y003159D01*
X017190Y003159D01*
X017190Y003120D01*
X017190Y003159D02*
X017190Y003198D01*
X017111Y003198D02*
X017072Y003198D01*
X017072Y003356D01*
X017111Y003356D02*
X017111Y003198D01*
X017426Y003198D02*
X017426Y003159D01*
X017505Y003198D02*
X017544Y003198D01*
X017544Y003356D01*
X017561Y003363D02*
X017522Y003363D01*
X017522Y003206D01*
X017505Y003198D02*
X017505Y003356D01*
X017561Y003363D02*
X017561Y003206D01*
X017640Y003363D02*
X017640Y003403D01*
X017876Y003403D01*
X017876Y003442D01*
X017640Y003442D01*
X017640Y003678D01*
X017876Y003678D02*
X017876Y003442D01*
X017876Y003403D02*
X017876Y003363D01*
X017955Y003363D02*
X017994Y003363D01*
X017994Y003206D01*
X017955Y003206D02*
X017955Y003363D01*
X017640Y003403D02*
X017640Y003442D01*
X017124Y003678D02*
X017124Y003836D01*
X017085Y003836D02*
X017085Y003678D01*
X017124Y003678D01*
X017006Y003678D02*
X017006Y003639D01*
X016770Y003639D01*
X016770Y003600D01*
X017006Y003600D01*
X017006Y003363D01*
X016770Y003363D02*
X016770Y003600D01*
X016770Y003639D02*
X016770Y003678D01*
X016691Y003678D02*
X016652Y003678D01*
X016652Y003836D01*
X016691Y003836D02*
X016691Y003678D01*
X017006Y003639D02*
X017006Y003600D01*
X016106Y003678D02*
X016106Y003363D01*
X015870Y003363D02*
X015870Y003678D01*
X012705Y003779D02*
X012390Y003779D01*
X012390Y003543D02*
X012705Y003543D01*
X012705Y003279D02*
X012390Y003279D01*
X012390Y003043D02*
X012705Y003043D01*
X012705Y002779D02*
X012390Y002779D01*
X012390Y002543D02*
X012705Y002543D01*
X012705Y002279D02*
X012390Y002279D01*
X012390Y002043D02*
X012705Y002043D01*
X011583Y001837D02*
X011425Y001837D01*
X011425Y001798D01*
X011583Y001798D01*
X011425Y001719D02*
X011386Y001719D01*
X011386Y001483D01*
X011347Y001483D01*
X011347Y001719D01*
X011110Y001719D01*
X011347Y001719D02*
X011386Y001719D01*
X011386Y001483D02*
X011425Y001483D01*
X011347Y001483D02*
X011110Y001483D01*
X011425Y001404D02*
X011425Y001365D01*
X011583Y001365D01*
X011583Y001404D02*
X011425Y001404D01*
X010465Y001483D02*
X010150Y001483D01*
X010150Y001719D02*
X010465Y001719D01*
X009176Y002283D02*
X008979Y002283D01*
X009176Y002283D02*
X009176Y002480D01*
X009980Y003223D02*
X010295Y003223D01*
X010295Y003459D02*
X009980Y003459D01*
X009980Y003673D02*
X010295Y003673D01*
X010722Y003698D02*
X010722Y003856D01*
X010761Y003856D02*
X010761Y003698D01*
X010722Y003698D01*
X010840Y003698D02*
X010840Y003659D01*
X011076Y003659D01*
X011076Y003620D01*
X010840Y003620D01*
X010840Y003383D01*
X011076Y003383D02*
X011076Y003620D01*
X011076Y003659D02*
X011076Y003698D01*
X011155Y003698D02*
X011194Y003698D01*
X011194Y003856D01*
X011155Y003856D02*
X011155Y003698D01*
X010840Y003659D02*
X010840Y003620D01*
X010295Y003909D02*
X009980Y003909D01*
X009176Y004842D02*
X009176Y005039D01*
X008979Y005039D01*
X009071Y005781D02*
X007024Y005781D01*
X007024Y005860D01*
X006666Y006253D02*
X006666Y006568D01*
X006430Y006568D02*
X006430Y006253D01*
X006099Y006712D02*
X006099Y006751D01*
X005843Y006751D02*
X005843Y005570D01*
X005253Y005570D01*
X005253Y006751D01*
X005843Y006751D01*
X004997Y006751D02*
X004997Y006712D01*
X004037Y007023D02*
X004037Y007101D01*
X003722Y007101D01*
X003683Y007101D01*
X003683Y007338D01*
X003053Y007338D01*
X003053Y007101D01*
X003053Y007023D01*
X003683Y007023D01*
X003683Y007101D01*
X003053Y007101D01*
X002699Y007101D01*
X002699Y007023D01*
X002699Y005999D02*
X002699Y005920D01*
X004037Y005920D01*
X004037Y005999D01*
X003808Y005637D02*
X003808Y005401D01*
X003808Y005637D02*
X002548Y005637D01*
X004420Y005668D02*
X004420Y005353D01*
X004656Y005353D02*
X004656Y005668D01*
X004997Y005610D02*
X004997Y005570D01*
X006099Y005570D02*
X006099Y005610D01*
X006420Y005039D02*
X006420Y004842D01*
X006420Y005039D02*
X006617Y005039D01*
X005415Y004749D02*
X005100Y004749D01*
X005100Y004513D02*
X005415Y004513D01*
X005496Y004048D02*
X005496Y003733D01*
X005260Y003733D02*
X005260Y004048D01*
X004666Y004068D02*
X004666Y003753D01*
X004430Y003753D02*
X004430Y004068D01*
X004407Y003522D02*
X004367Y003522D01*
X004367Y003266D02*
X005548Y003266D01*
X005548Y002676D01*
X004367Y002676D01*
X004367Y003266D01*
X003808Y002921D02*
X003808Y002704D01*
X002548Y002704D01*
X002879Y002251D02*
X004217Y002251D01*
X004217Y002173D01*
X004367Y002420D02*
X004407Y002420D01*
X005509Y002420D02*
X005548Y002420D01*
X006420Y002480D02*
X006420Y002283D01*
X006617Y002283D01*
X004217Y001149D02*
X004217Y001070D01*
X003863Y001070D01*
X003863Y000834D01*
X003233Y000834D01*
X003233Y001070D01*
X003233Y001149D01*
X003863Y001149D01*
X003863Y001070D01*
X003233Y001070D01*
X003194Y001070D01*
X002879Y001070D01*
X002879Y001149D01*
X002879Y002173D02*
X002879Y002251D01*
X005509Y003522D02*
X005548Y003522D01*
X008585Y005826D02*
X008587Y005854D01*
X008593Y005882D01*
X008603Y005908D01*
X008616Y005933D01*
X008633Y005955D01*
X008653Y005975D01*
X008675Y005992D01*
X008700Y006005D01*
X008726Y006015D01*
X008754Y006021D01*
X008782Y006023D01*
X008810Y006021D01*
X008838Y006015D01*
X008864Y006005D01*
X008889Y005992D01*
X008911Y005975D01*
X008931Y005955D01*
X008948Y005933D01*
X008961Y005908D01*
X008971Y005882D01*
X008977Y005854D01*
X008979Y005826D01*
X008977Y005798D01*
X008971Y005770D01*
X008961Y005744D01*
X008948Y005719D01*
X008931Y005697D01*
X008911Y005677D01*
X008889Y005660D01*
X008864Y005647D01*
X008838Y005637D01*
X008810Y005631D01*
X008782Y005629D01*
X008754Y005631D01*
X008726Y005637D01*
X008700Y005647D01*
X008675Y005660D01*
X008653Y005677D01*
X008633Y005697D01*
X008616Y005719D01*
X008603Y005744D01*
X008593Y005770D01*
X008587Y005798D01*
X008585Y005826D01*
X009071Y005860D02*
X009071Y005781D01*
X009071Y006942D02*
X009071Y007041D01*
X007024Y007041D01*
X007024Y006942D01*
D12*
X009411Y006802D02*
X009702Y006802D01*
X009702Y006898D02*
X009702Y006705D01*
X009702Y006604D02*
X009411Y006410D01*
X009411Y006604D02*
X009702Y006410D01*
X009508Y006705D02*
X009411Y006802D01*
X009456Y005551D02*
X009456Y005261D01*
X009552Y005261D02*
X009359Y005261D01*
X009258Y005309D02*
X009258Y005551D01*
X009359Y005454D02*
X009456Y005551D01*
X009064Y005551D02*
X009064Y005309D01*
X009113Y005261D01*
X009209Y005261D01*
X009258Y005309D01*
X005654Y005357D02*
X005654Y005405D01*
X005605Y005454D01*
X005508Y005454D01*
X005460Y005405D01*
X005359Y005454D02*
X005359Y005212D01*
X005311Y005163D01*
X005214Y005163D01*
X005165Y005212D01*
X005165Y005454D01*
X005460Y005163D02*
X005654Y005357D01*
X005654Y005163D02*
X005460Y005163D01*
X005296Y003114D02*
X005199Y003114D01*
X005151Y003065D01*
X005151Y003017D01*
X005199Y002969D01*
X005296Y002969D01*
X005344Y002920D01*
X005344Y002872D01*
X005296Y002823D01*
X005199Y002823D01*
X005151Y002872D01*
X004970Y002872D02*
X004970Y003065D01*
X004922Y003114D01*
X004777Y003114D01*
X004777Y002823D01*
X004922Y002823D01*
X004970Y002872D01*
X004616Y002872D02*
X004616Y002969D01*
X004519Y002969D01*
X004422Y003065D02*
X004422Y002872D01*
X004471Y002823D01*
X004567Y002823D01*
X004616Y002872D01*
X004616Y003065D02*
X004567Y003114D01*
X004471Y003114D01*
X004422Y003065D01*
X005296Y003114D02*
X005344Y003065D01*
X005304Y002189D02*
X005304Y001947D01*
X005256Y001899D01*
X005159Y001899D01*
X005111Y001947D01*
X005111Y002189D01*
X005406Y002140D02*
X005454Y002189D01*
X005551Y002189D01*
X005599Y002140D01*
X005599Y002092D01*
X005551Y002044D01*
X005599Y001995D01*
X005599Y001947D01*
X005551Y001899D01*
X005454Y001899D01*
X005406Y001947D01*
X005502Y002044D02*
X005551Y002044D01*
D13*
X004307Y003790D02*
X004157Y003790D01*
X004157Y003865D01*
X004182Y003890D01*
X004232Y003890D01*
X004257Y003865D01*
X004257Y003790D01*
X004257Y003840D02*
X004307Y003890D01*
X004282Y003938D02*
X004307Y003963D01*
X004307Y004013D01*
X004282Y004038D01*
X004257Y004038D01*
X004232Y004013D01*
X004232Y003988D01*
X004232Y004013D02*
X004207Y004038D01*
X004182Y004038D01*
X004157Y004013D01*
X004157Y003963D01*
X004182Y003938D01*
X004957Y003935D02*
X004957Y003860D01*
X005107Y003860D01*
X005057Y003860D02*
X005057Y003935D01*
X005032Y003960D01*
X004982Y003960D01*
X004957Y003935D01*
X005007Y004008D02*
X004957Y004058D01*
X005107Y004058D01*
X005107Y004008D02*
X005107Y004108D01*
X005107Y003960D02*
X005057Y003910D01*
X004739Y004567D02*
X004589Y004567D01*
X004589Y004642D01*
X004614Y004667D01*
X004664Y004667D01*
X004689Y004642D01*
X004689Y004567D01*
X004689Y004617D02*
X004739Y004667D01*
X004739Y004714D02*
X004639Y004814D01*
X004614Y004814D01*
X004589Y004789D01*
X004589Y004739D01*
X004614Y004714D01*
X004739Y004714D02*
X004739Y004814D01*
X004214Y005527D02*
X004239Y005552D01*
X004239Y005602D01*
X004214Y005627D01*
X004239Y005674D02*
X004239Y005774D01*
X004239Y005724D02*
X004089Y005724D01*
X004139Y005674D01*
X004114Y005627D02*
X004089Y005602D01*
X004089Y005552D01*
X004114Y005527D01*
X004214Y005527D01*
X006107Y006857D02*
X006132Y006832D01*
X006182Y006832D01*
X006207Y006857D01*
X006255Y006857D02*
X006280Y006832D01*
X006330Y006832D01*
X006355Y006857D01*
X006355Y006882D01*
X006330Y006907D01*
X006305Y006907D01*
X006330Y006907D02*
X006355Y006932D01*
X006355Y006957D01*
X006330Y006982D01*
X006280Y006982D01*
X006255Y006957D01*
X006207Y006957D02*
X006182Y006982D01*
X006132Y006982D01*
X006107Y006957D01*
X006107Y006857D01*
X010124Y004155D02*
X010124Y004055D01*
X010149Y004030D01*
X010199Y004030D01*
X010224Y004055D01*
X010271Y004030D02*
X010371Y004130D01*
X010371Y004155D01*
X010346Y004180D01*
X010296Y004180D01*
X010271Y004155D01*
X010224Y004155D02*
X010199Y004180D01*
X010149Y004180D01*
X010124Y004155D01*
X010271Y004030D02*
X010371Y004030D01*
X011238Y003774D02*
X011388Y003774D01*
X011238Y003674D01*
X011388Y003674D01*
X011388Y003627D02*
X011338Y003577D01*
X011338Y003602D02*
X011338Y003527D01*
X011388Y003527D02*
X011238Y003527D01*
X011238Y003602D01*
X011263Y003627D01*
X011313Y003627D01*
X011338Y003602D01*
X011313Y003480D02*
X011313Y003430D01*
X011313Y003480D02*
X011363Y003480D01*
X011388Y003455D01*
X011388Y003405D01*
X011363Y003380D01*
X011263Y003380D01*
X011238Y003405D01*
X011238Y003455D01*
X011263Y003480D01*
X011263Y003332D02*
X011238Y003307D01*
X011238Y003232D01*
X011388Y003232D01*
X011388Y003307D01*
X011363Y003332D01*
X011263Y003332D01*
X011238Y003185D02*
X011238Y003085D01*
X011388Y003085D01*
X011388Y003185D01*
X011313Y003135D02*
X011313Y003085D01*
X011388Y003038D02*
X011388Y002938D01*
X011238Y002938D01*
X010371Y002975D02*
X010346Y002950D01*
X010296Y002950D01*
X010271Y002975D01*
X010271Y003025D01*
X010346Y003025D01*
X010371Y003000D01*
X010371Y002975D01*
X010321Y003075D02*
X010271Y003025D01*
X010224Y003025D02*
X010224Y003075D01*
X010199Y003100D01*
X010124Y003100D01*
X010124Y002950D01*
X010124Y003000D02*
X010199Y003000D01*
X010224Y003025D01*
X010174Y003000D02*
X010224Y002950D01*
X010321Y003075D02*
X010371Y003100D01*
X010995Y002070D02*
X010995Y001920D01*
X011095Y001920D01*
X011142Y001920D02*
X011242Y001920D01*
X011289Y001920D02*
X011364Y001920D01*
X011389Y001945D01*
X011389Y002045D01*
X011364Y002070D01*
X011289Y002070D01*
X011289Y001920D01*
X011192Y001995D02*
X011142Y001995D01*
X011142Y002070D02*
X011142Y001920D01*
X011142Y002070D02*
X011242Y002070D01*
X011436Y002070D02*
X011512Y002070D01*
X011537Y002045D01*
X011537Y001995D01*
X011512Y001970D01*
X011436Y001970D01*
X011436Y001920D02*
X011436Y002070D01*
X011584Y002070D02*
X011584Y001920D01*
X011684Y001920D01*
X011731Y001920D02*
X011806Y001920D01*
X011831Y001945D01*
X011831Y002045D01*
X011806Y002070D01*
X011731Y002070D01*
X011731Y001920D01*
X011634Y001995D02*
X011584Y001995D01*
X011584Y002070D02*
X011684Y002070D01*
X011537Y001920D02*
X011487Y001970D01*
X010331Y001975D02*
X010331Y001925D01*
X010306Y001900D01*
X010256Y001900D01*
X010231Y001925D01*
X010231Y001975D02*
X010281Y002000D01*
X010306Y002000D01*
X010331Y001975D01*
X010331Y002050D02*
X010231Y002050D01*
X010231Y001975D01*
X010184Y001975D02*
X010159Y001950D01*
X010084Y001950D01*
X010134Y001950D02*
X010184Y001900D01*
X010184Y001975D02*
X010184Y002025D01*
X010159Y002050D01*
X010084Y002050D01*
X010084Y001900D01*
X013089Y001960D02*
X013089Y002035D01*
X013114Y002060D01*
X013164Y002060D01*
X013189Y002035D01*
X013189Y001960D01*
X013189Y002010D02*
X013239Y002060D01*
X013239Y002107D02*
X013239Y002207D01*
X013239Y002157D02*
X013089Y002157D01*
X013139Y002107D01*
X013114Y002254D02*
X013089Y002279D01*
X013089Y002329D01*
X013114Y002354D01*
X013214Y002254D01*
X013239Y002279D01*
X013239Y002329D01*
X013214Y002354D01*
X013114Y002354D01*
X013114Y002254D02*
X013214Y002254D01*
X013199Y002527D02*
X013199Y002602D01*
X013174Y002627D01*
X013124Y002627D01*
X013099Y002602D01*
X013099Y002527D01*
X013249Y002527D01*
X013199Y002577D02*
X013249Y002627D01*
X013224Y002674D02*
X013249Y002699D01*
X013249Y002749D01*
X013224Y002774D01*
X013124Y002774D01*
X013099Y002749D01*
X013099Y002699D01*
X013124Y002674D01*
X013149Y002674D01*
X013174Y002699D01*
X013174Y002774D01*
X013209Y003007D02*
X013209Y003082D01*
X013184Y003107D01*
X013134Y003107D01*
X013109Y003082D01*
X013109Y003007D01*
X013259Y003007D01*
X013209Y003057D02*
X013259Y003107D01*
X013234Y003154D02*
X013209Y003154D01*
X013184Y003179D01*
X013184Y003229D01*
X013209Y003254D01*
X013234Y003254D01*
X013259Y003229D01*
X013259Y003179D01*
X013234Y003154D01*
X013184Y003179D02*
X013159Y003154D01*
X013134Y003154D01*
X013109Y003179D01*
X013109Y003229D01*
X013134Y003254D01*
X013159Y003254D01*
X013184Y003229D01*
X013219Y003487D02*
X013219Y003562D01*
X013194Y003587D01*
X013144Y003587D01*
X013119Y003562D01*
X013119Y003487D01*
X013269Y003487D01*
X013219Y003537D02*
X013269Y003587D01*
X013269Y003634D02*
X013244Y003634D01*
X013144Y003734D01*
X013119Y003734D01*
X013119Y003634D01*
X015597Y003473D02*
X015672Y003398D01*
X015672Y003498D01*
X015747Y003473D02*
X015597Y003473D01*
X015622Y003350D02*
X015597Y003325D01*
X015597Y003275D01*
X015622Y003250D01*
X015722Y003250D01*
X015747Y003275D01*
X015747Y003325D01*
X015722Y003350D01*
X015694Y002854D02*
X015719Y002829D01*
X015719Y002779D01*
X015694Y002754D01*
X015694Y002707D02*
X015719Y002682D01*
X015719Y002632D01*
X015694Y002607D01*
X015594Y002607D01*
X015569Y002632D01*
X015569Y002682D01*
X015594Y002707D01*
X015569Y002754D02*
X015644Y002754D01*
X015619Y002804D01*
X015619Y002829D01*
X015644Y002854D01*
X015694Y002854D01*
X015569Y002854D02*
X015569Y002754D01*
X017217Y002487D02*
X017217Y002387D01*
X017242Y002362D01*
X017292Y002362D01*
X017317Y002387D01*
X017317Y002487D01*
X017292Y002512D01*
X017242Y002512D01*
X017217Y002487D01*
X017267Y002412D02*
X017317Y002362D01*
X017365Y002362D02*
X017465Y002362D01*
X017415Y002362D02*
X017415Y002512D01*
X017365Y002462D01*
X018038Y002500D02*
X018038Y002400D01*
X018188Y002400D01*
X018188Y002500D01*
X018188Y002547D02*
X018188Y002622D01*
X018163Y002647D01*
X018063Y002647D01*
X018038Y002622D01*
X018038Y002547D01*
X018188Y002547D01*
X018113Y002450D02*
X018113Y002400D01*
X018188Y002352D02*
X018188Y002252D01*
X018038Y002252D01*
X018088Y002694D02*
X018038Y002744D01*
X018188Y002744D01*
X018188Y002694D02*
X018188Y002794D01*
X018197Y003340D02*
X018197Y003440D01*
X018197Y003488D02*
X018197Y003588D01*
X018197Y003635D02*
X018197Y003710D01*
X018172Y003735D01*
X018072Y003735D01*
X018047Y003710D01*
X018047Y003635D01*
X018197Y003635D01*
X018047Y003588D02*
X018047Y003488D01*
X018197Y003488D01*
X018122Y003488D02*
X018122Y003538D01*
X018047Y003340D02*
X018197Y003340D01*
X018122Y003782D02*
X018122Y003882D01*
X018047Y003857D02*
X018122Y003782D01*
X018197Y003857D02*
X018047Y003857D01*
X017219Y004067D02*
X017194Y004042D01*
X017144Y004042D01*
X017119Y004067D01*
X017072Y004067D02*
X017072Y004167D01*
X017047Y004192D01*
X016972Y004192D01*
X016972Y004042D01*
X017047Y004042D01*
X017072Y004067D01*
X017169Y004117D02*
X017194Y004117D01*
X017219Y004092D01*
X017219Y004067D01*
X017194Y004117D02*
X017219Y004142D01*
X017219Y004167D01*
X017194Y004192D01*
X017144Y004192D01*
X017119Y004167D01*
X016925Y004192D02*
X016825Y004192D01*
X016825Y004042D01*
X016925Y004042D01*
X016875Y004117D02*
X016825Y004117D01*
X016777Y004042D02*
X016677Y004042D01*
X016677Y004192D01*
X016450Y002052D02*
X016375Y001977D01*
X016475Y001977D01*
X016450Y001902D02*
X016450Y002052D01*
X016327Y002027D02*
X016327Y001977D01*
X016302Y001952D01*
X016227Y001952D01*
X016227Y001902D02*
X016227Y002052D01*
X016302Y002052D01*
X016327Y002027D01*
X016277Y001952D02*
X016327Y001902D01*
X016609Y001890D02*
X016709Y001890D01*
X016756Y001890D02*
X016857Y001890D01*
X016904Y001890D02*
X016979Y001890D01*
X017004Y001915D01*
X017004Y002015D01*
X016979Y002040D01*
X016904Y002040D01*
X016904Y001890D01*
X016807Y001965D02*
X016756Y001965D01*
X016756Y002040D02*
X016756Y001890D01*
X016609Y001890D02*
X016609Y002040D01*
X016756Y002040D02*
X016857Y002040D01*
X017051Y002015D02*
X017076Y002040D01*
X017126Y002040D01*
X017151Y002015D01*
X017151Y001990D01*
X017051Y001890D01*
X017151Y001890D01*
X013239Y001960D02*
X013089Y001960D01*
M02*
