G75*
G70*
%OFA0B0*%
%FSLAX24Y24*%
%IPPOS*%
%LPD*%
%AMOC8*
5,1,8,0,0,1.08239X$1,22.5*
%
%ADD10R,0.0118X0.0512*%
%ADD11R,0.0512X0.0118*%
%ADD12R,0.1850X0.1850*%
%ADD13R,0.0709X0.0157*%
%ADD14O,0.0831X0.0416*%
%ADD15R,0.0787X0.0394*%
%ADD16R,0.0650X0.0650*%
%ADD17R,0.0315X0.0157*%
%ADD18R,0.0315X0.0236*%
%ADD19R,0.0236X0.0315*%
%ADD20R,0.0551X0.0394*%
%ADD21OC8,0.0709*%
%ADD22R,0.0157X0.0315*%
%ADD23R,0.0787X0.0945*%
%ADD24C,0.0120*%
%ADD25C,0.0060*%
%ADD26C,0.0270*%
%ADD27C,0.0160*%
%ADD28C,0.0080*%
D10*
X006902Y002253D03*
X007158Y002253D03*
X007414Y002253D03*
X007670Y002253D03*
X007926Y002253D03*
X008182Y002253D03*
X008438Y002253D03*
X008694Y002253D03*
X008694Y005068D03*
X008438Y005068D03*
X008182Y005068D03*
X007926Y005068D03*
X007670Y005068D03*
X007414Y005068D03*
X007158Y005068D03*
X006902Y005068D03*
D11*
X006390Y004557D03*
X006390Y004301D03*
X006390Y004045D03*
X006390Y003789D03*
X006390Y003533D03*
X006390Y003277D03*
X006390Y003021D03*
X006390Y002765D03*
X009205Y002765D03*
X009205Y003021D03*
X009205Y003277D03*
X009205Y003533D03*
X009205Y003789D03*
X009205Y004045D03*
X009205Y004301D03*
X009205Y004557D03*
D12*
X007798Y003661D03*
D13*
X003650Y003649D03*
X003650Y003905D03*
X003650Y004161D03*
X003650Y004417D03*
X003650Y004673D03*
D14*
X003729Y005106D03*
X003729Y003216D03*
D15*
X002548Y003905D03*
X002548Y004417D03*
D16*
X002548Y005165D03*
X002548Y003157D03*
D17*
X005036Y005787D03*
X005036Y006161D03*
X005036Y006535D03*
X006060Y006535D03*
X006060Y005787D03*
D18*
X006548Y006096D03*
X006548Y006726D03*
X004538Y005826D03*
X004538Y005196D03*
X004548Y004226D03*
X005378Y004206D03*
X005378Y003576D03*
X004548Y003596D03*
X010958Y003856D03*
X010958Y003226D03*
X015988Y003206D03*
X015988Y002876D03*
X016438Y002876D03*
X016888Y002876D03*
X017308Y002726D03*
X017758Y002876D03*
X017758Y003206D03*
X017308Y003356D03*
X016888Y003206D03*
X016888Y003836D03*
X017758Y003836D03*
X015988Y003836D03*
X015988Y002246D03*
X016438Y002246D03*
X016888Y002246D03*
X017758Y002246D03*
D19*
X012863Y002161D03*
X012233Y002161D03*
X012233Y002661D03*
X012863Y002661D03*
X012863Y003161D03*
X012233Y003161D03*
X012233Y003661D03*
X012863Y003661D03*
X010453Y003791D03*
X009823Y003791D03*
X009823Y003341D03*
X010453Y003341D03*
X010623Y001601D03*
X010953Y001601D03*
X011583Y001601D03*
X009993Y001601D03*
X005573Y004631D03*
X004943Y004631D03*
D20*
X004077Y006235D03*
X004077Y006787D03*
X002659Y006787D03*
X002659Y006235D03*
X002839Y001937D03*
X002839Y001385D03*
X004257Y001385D03*
X004257Y001937D03*
D21*
X010048Y004661D03*
X011048Y004661D03*
X012048Y004661D03*
X013048Y004661D03*
X013048Y005661D03*
X012048Y005661D03*
X011048Y005661D03*
X010048Y005661D03*
D22*
X004958Y003483D03*
X005332Y002459D03*
X004584Y002459D03*
D23*
X007260Y006411D03*
X008835Y006411D03*
D24*
X006548Y006096D02*
X006003Y006096D01*
X005908Y006191D01*
X005428Y006311D02*
X005428Y005891D01*
X005368Y005831D01*
X005338Y005801D01*
X005068Y005801D01*
X005038Y005771D01*
X005036Y005773D01*
X005036Y005787D01*
X005024Y005787D01*
X004888Y005651D01*
X004888Y005531D01*
X004553Y005196D01*
X004538Y005196D01*
X004533Y005196D01*
X004498Y005231D01*
X004378Y005111D01*
X004378Y004901D01*
X004150Y004673D01*
X003650Y004673D01*
X005428Y006311D02*
X005204Y006535D01*
X005036Y006535D01*
X009958Y004601D02*
X010018Y004661D01*
X010048Y004691D01*
X010048Y004661D01*
X009958Y004601D02*
X009958Y004001D01*
X009838Y003881D01*
X009838Y003821D01*
D25*
X002397Y001379D02*
X002345Y001414D01*
X002300Y001458D01*
X002266Y001510D01*
X002242Y001568D01*
X002229Y001630D01*
X002228Y001661D01*
X002228Y001735D01*
X002228Y002702D01*
X002518Y002702D01*
X002518Y003127D01*
X002578Y003127D01*
X002578Y003187D01*
X003003Y003187D01*
X003003Y003536D01*
X002960Y003578D01*
X002995Y003578D01*
X003072Y003654D01*
X003072Y003875D01*
X002578Y003875D01*
X002578Y003935D01*
X003072Y003935D01*
X003072Y004156D01*
X003066Y004161D01*
X003072Y004166D01*
X003072Y004387D01*
X002578Y004387D01*
X002578Y004447D01*
X002518Y004447D01*
X002518Y004744D01*
X002518Y005135D01*
X002578Y005135D01*
X002578Y005195D01*
X002518Y005195D01*
X002518Y005620D01*
X002228Y005620D01*
X002228Y006661D01*
X002229Y006692D01*
X002242Y006754D01*
X002266Y006812D01*
X002294Y006854D01*
X002294Y006552D01*
X002307Y006539D01*
X002254Y006486D01*
X002254Y006265D01*
X002629Y006265D01*
X002228Y006265D01*
X002228Y006207D02*
X002629Y006207D01*
X002629Y006205D02*
X002254Y006205D01*
X002254Y005985D01*
X002330Y005909D01*
X002629Y005909D01*
X002629Y006205D01*
X002689Y006205D01*
X002689Y005909D01*
X002989Y005909D01*
X003065Y005985D01*
X003065Y006058D01*
X003098Y005977D01*
X003188Y005887D01*
X003305Y005839D01*
X003431Y005839D01*
X003548Y005887D01*
X003637Y005977D01*
X003671Y006058D01*
X003671Y005985D01*
X003747Y005909D01*
X004047Y005909D01*
X004047Y006205D01*
X004106Y006205D01*
X004106Y005909D01*
X004250Y005909D01*
X004250Y005855D01*
X004509Y005855D01*
X004509Y006074D01*
X004482Y006074D01*
X004482Y006205D01*
X004107Y006205D01*
X004107Y006265D01*
X004749Y006265D01*
X004749Y006294D02*
X004749Y006170D01*
X005026Y006170D01*
X005026Y006151D01*
X004749Y006151D01*
X004749Y006074D01*
X004567Y006074D01*
X004567Y005855D01*
X004509Y005855D01*
X004567Y005855D01*
X004567Y005797D02*
X004567Y005578D01*
X004723Y005578D01*
X004549Y005404D01*
X004343Y005404D01*
X004290Y005351D01*
X004290Y005236D01*
X004275Y005220D01*
X004275Y005246D01*
X004077Y005444D01*
X003759Y005444D01*
X003759Y005136D01*
X003699Y005136D01*
X003699Y005444D01*
X003381Y005444D01*
X003183Y005246D01*
X003183Y005136D01*
X003699Y005136D01*
X003699Y005076D01*
X003183Y005076D01*
X003183Y004966D01*
X003308Y004841D01*
X003259Y004841D01*
X003206Y004789D01*
X003206Y004557D01*
X003218Y004545D01*
X003206Y004533D01*
X003206Y004301D01*
X003218Y004289D01*
X003206Y004277D01*
X003206Y004045D01*
X003218Y004033D01*
X003206Y004021D01*
X003206Y003822D01*
X003166Y003782D01*
X003166Y003659D01*
X003641Y003659D01*
X003641Y003640D01*
X003166Y003640D01*
X003166Y003517D01*
X003242Y003440D01*
X003268Y003440D01*
X003183Y003356D01*
X003183Y003246D01*
X003699Y003246D01*
X003699Y003186D01*
X003759Y003186D01*
X003759Y003246D01*
X004275Y003246D01*
X004275Y003356D01*
X004124Y003506D01*
X004135Y003517D01*
X004135Y003640D01*
X003660Y003640D01*
X003660Y003659D01*
X004135Y003659D01*
X004135Y003782D01*
X004095Y003822D01*
X004095Y004021D01*
X004083Y004033D01*
X004091Y004041D01*
X004330Y004041D01*
X004353Y004018D01*
X004743Y004018D01*
X004795Y004071D01*
X004795Y004106D01*
X005130Y004106D01*
X005130Y004051D01*
X005183Y003998D01*
X005573Y003998D01*
X005608Y004033D01*
X005608Y003749D01*
X005573Y003784D01*
X005183Y003784D01*
X005130Y003731D01*
X005130Y003421D01*
X005183Y003368D01*
X005501Y003368D01*
X005712Y003157D01*
X005811Y003157D01*
X006068Y003157D01*
X006076Y003149D01*
X006068Y003141D01*
X005128Y003141D01*
X005028Y003141D01*
X004594Y002707D01*
X004468Y002707D01*
X004415Y002654D01*
X004415Y002264D01*
X004416Y002263D01*
X004286Y002263D01*
X004286Y001967D01*
X004227Y001967D01*
X004227Y002263D01*
X003927Y002263D01*
X003851Y002187D01*
X003851Y002114D01*
X003817Y002195D01*
X003728Y002285D01*
X003611Y002333D01*
X003485Y002333D01*
X003368Y002285D01*
X003278Y002195D01*
X003245Y002114D01*
X003245Y002187D01*
X003169Y002263D01*
X002869Y002263D01*
X002869Y001967D01*
X002809Y001967D01*
X002809Y002263D01*
X002510Y002263D01*
X002434Y002187D01*
X002434Y001966D01*
X002809Y001966D01*
X002809Y001907D01*
X002434Y001907D01*
X002434Y001686D01*
X002487Y001633D01*
X002474Y001619D01*
X002474Y001351D01*
X002455Y001355D01*
X002397Y001379D01*
X002356Y001406D02*
X002474Y001406D01*
X002474Y001465D02*
X002296Y001465D01*
X002260Y001523D02*
X002474Y001523D01*
X002474Y001582D02*
X002239Y001582D01*
X002229Y001640D02*
X002479Y001640D01*
X002434Y001699D02*
X002228Y001699D01*
X002228Y001757D02*
X002434Y001757D01*
X002434Y001816D02*
X002228Y001816D01*
X002228Y001874D02*
X002434Y001874D01*
X002228Y001933D02*
X002809Y001933D01*
X002809Y001991D02*
X002869Y001991D01*
X002869Y001966D02*
X003230Y001966D01*
X003230Y001952D01*
X003278Y001835D01*
X003303Y001811D01*
X003245Y001811D01*
X003245Y001907D01*
X002869Y001907D01*
X002869Y001966D01*
X002869Y001933D02*
X003238Y001933D01*
X003245Y001874D02*
X003262Y001874D01*
X003245Y001816D02*
X003298Y001816D01*
X003268Y001691D02*
X003838Y001691D01*
X004198Y001331D01*
X004252Y001385D01*
X004257Y001385D01*
X004732Y001385D01*
X004978Y001631D01*
X004978Y002531D01*
X004753Y002526D02*
X004753Y002486D01*
X004787Y002403D01*
X004850Y002340D01*
X004858Y002337D01*
X004858Y001681D01*
X004683Y001505D01*
X004622Y001505D01*
X004622Y001619D01*
X004609Y001633D01*
X004662Y001686D01*
X004662Y001907D01*
X004287Y001907D01*
X004287Y001966D01*
X004662Y001966D01*
X004662Y002187D01*
X004638Y002212D01*
X004700Y002212D01*
X004753Y002264D01*
X004753Y002526D01*
X004753Y002526D01*
X004753Y002518D02*
X004753Y002518D01*
X004753Y002460D02*
X004764Y002460D01*
X004753Y002401D02*
X004789Y002401D01*
X004753Y002343D02*
X004848Y002343D01*
X004858Y002284D02*
X004753Y002284D01*
X004714Y002226D02*
X004858Y002226D01*
X004858Y002167D02*
X004662Y002167D01*
X004662Y002109D02*
X004858Y002109D01*
X004858Y002050D02*
X004662Y002050D01*
X004662Y001991D02*
X004858Y001991D01*
X004858Y001933D02*
X004287Y001933D01*
X004286Y001991D02*
X004227Y001991D01*
X004226Y001966D02*
X004226Y001907D01*
X003851Y001907D01*
X003851Y001811D01*
X003793Y001811D01*
X003817Y001835D01*
X003866Y001952D01*
X003866Y001966D01*
X004226Y001966D01*
X004226Y001933D02*
X003858Y001933D01*
X003851Y001874D02*
X003833Y001874D01*
X003851Y001816D02*
X003798Y001816D01*
X004227Y002050D02*
X004286Y002050D01*
X004286Y002109D02*
X004227Y002109D01*
X004227Y002167D02*
X004286Y002167D01*
X004286Y002226D02*
X004227Y002226D01*
X004415Y002284D02*
X003728Y002284D01*
X003787Y002226D02*
X003889Y002226D01*
X003851Y002167D02*
X003829Y002167D01*
X003367Y002284D02*
X002228Y002284D01*
X002228Y002226D02*
X002472Y002226D01*
X002434Y002167D02*
X002228Y002167D01*
X002228Y002109D02*
X002434Y002109D01*
X002434Y002050D02*
X002228Y002050D01*
X002228Y001991D02*
X002434Y001991D01*
X002809Y002050D02*
X002869Y002050D01*
X002869Y002109D02*
X002809Y002109D01*
X002809Y002167D02*
X002869Y002167D01*
X002869Y002226D02*
X002809Y002226D01*
X003206Y002226D02*
X003309Y002226D01*
X003267Y002167D02*
X003245Y002167D01*
X002228Y002343D02*
X004415Y002343D01*
X004415Y002401D02*
X002228Y002401D01*
X002228Y002460D02*
X004415Y002460D01*
X004415Y002518D02*
X002228Y002518D01*
X002228Y002577D02*
X004415Y002577D01*
X004415Y002635D02*
X002228Y002635D01*
X002228Y002694D02*
X004455Y002694D01*
X004640Y002753D02*
X002977Y002753D01*
X003003Y002778D02*
X003003Y003127D01*
X002578Y003127D01*
X002578Y002702D01*
X002926Y002702D01*
X003003Y002778D01*
X003003Y002811D02*
X004698Y002811D01*
X004757Y002870D02*
X003003Y002870D01*
X003003Y002928D02*
X003331Y002928D01*
X003381Y002878D02*
X003699Y002878D01*
X003699Y003186D01*
X003183Y003186D01*
X003183Y003076D01*
X003381Y002878D01*
X003273Y002987D02*
X003003Y002987D01*
X003003Y003045D02*
X003214Y003045D01*
X003183Y003104D02*
X003003Y003104D01*
X003183Y003162D02*
X002578Y003162D01*
X002578Y003187D02*
X002518Y003187D01*
X002518Y003578D01*
X002518Y003875D01*
X002578Y003875D01*
X002578Y003578D01*
X002578Y003187D01*
X002578Y003221D02*
X002518Y003221D01*
X002518Y003279D02*
X002578Y003279D01*
X002578Y003338D02*
X002518Y003338D01*
X002518Y003396D02*
X002578Y003396D01*
X002578Y003455D02*
X002518Y003455D01*
X002518Y003514D02*
X002578Y003514D01*
X002578Y003572D02*
X002518Y003572D01*
X002518Y003578D02*
X002518Y003578D01*
X002518Y003631D02*
X002578Y003631D01*
X002578Y003578D02*
X002578Y003578D01*
X002578Y003689D02*
X002518Y003689D01*
X002518Y003748D02*
X002578Y003748D01*
X002578Y003806D02*
X002518Y003806D01*
X002518Y003865D02*
X002578Y003865D01*
X002578Y003923D02*
X003206Y003923D01*
X003206Y003865D02*
X003072Y003865D01*
X003072Y003806D02*
X003191Y003806D01*
X003166Y003748D02*
X003072Y003748D01*
X003072Y003689D02*
X003166Y003689D01*
X003166Y003631D02*
X003048Y003631D01*
X002966Y003572D02*
X003166Y003572D01*
X003169Y003514D02*
X003003Y003514D01*
X003003Y003455D02*
X003227Y003455D01*
X003224Y003396D02*
X003003Y003396D01*
X003003Y003338D02*
X003183Y003338D01*
X003183Y003279D02*
X003003Y003279D01*
X003003Y003221D02*
X003699Y003221D01*
X003699Y003162D02*
X003759Y003162D01*
X003759Y003186D02*
X003759Y002878D01*
X004077Y002878D01*
X004275Y003076D01*
X004275Y003186D01*
X003759Y003186D01*
X003759Y003221D02*
X005648Y003221D01*
X005590Y003279D02*
X005118Y003279D01*
X005127Y003288D02*
X005127Y003677D01*
X005074Y003730D01*
X004842Y003730D01*
X004795Y003684D01*
X004795Y003751D01*
X004743Y003804D01*
X004353Y003804D01*
X004300Y003751D01*
X004300Y003441D01*
X004353Y003388D01*
X004743Y003388D01*
X004786Y003431D01*
X004789Y003431D01*
X004789Y003288D01*
X004842Y003235D01*
X005074Y003235D01*
X005127Y003288D01*
X005127Y003338D02*
X005531Y003338D01*
X005762Y003277D02*
X005428Y003611D01*
X005393Y003576D01*
X005378Y003576D01*
X005130Y003572D02*
X005127Y003572D01*
X005127Y003514D02*
X005130Y003514D01*
X005127Y003455D02*
X005130Y003455D01*
X005127Y003396D02*
X005154Y003396D01*
X004958Y003483D02*
X004956Y003483D01*
X004888Y003551D01*
X004678Y003551D01*
X004633Y003596D01*
X004548Y003596D01*
X004300Y003572D02*
X004135Y003572D01*
X004132Y003514D02*
X004300Y003514D01*
X004300Y003455D02*
X004175Y003455D01*
X004234Y003396D02*
X004344Y003396D01*
X004275Y003338D02*
X004789Y003338D01*
X004789Y003396D02*
X004751Y003396D01*
X004798Y003279D02*
X004275Y003279D01*
X004275Y003162D02*
X005707Y003162D01*
X005762Y003277D02*
X006390Y003277D01*
X006705Y003149D02*
X006736Y003117D01*
X006736Y002925D01*
X006705Y002893D01*
X006736Y002862D01*
X006736Y002669D01*
X006684Y002616D01*
X006097Y002616D01*
X006044Y002669D01*
X006044Y002862D01*
X006076Y002893D01*
X006068Y002901D01*
X005128Y002901D01*
X004982Y002756D01*
X005023Y002756D01*
X005105Y002722D01*
X005168Y002659D01*
X005216Y002707D01*
X005448Y002707D01*
X005501Y002654D01*
X005501Y002579D01*
X005503Y002579D01*
X005503Y002606D01*
X005537Y002688D01*
X005600Y002752D01*
X005683Y002786D01*
X005773Y002786D01*
X005855Y002752D01*
X005919Y002688D01*
X005953Y002606D01*
X005953Y002516D01*
X005919Y002433D01*
X005855Y002370D01*
X005773Y002336D01*
X005683Y002336D01*
X005675Y002339D01*
X005576Y002339D01*
X005501Y002339D01*
X005501Y002264D01*
X005448Y002212D01*
X005216Y002212D01*
X005163Y002264D01*
X005163Y002398D01*
X005105Y002340D01*
X005098Y002337D01*
X005098Y001581D01*
X005028Y001511D01*
X004857Y001341D01*
X011383Y001341D01*
X011335Y001390D01*
X011335Y001572D01*
X011554Y001572D01*
X011554Y001630D01*
X011554Y001888D01*
X011411Y001888D01*
X011335Y001812D01*
X011335Y001630D01*
X011554Y001630D01*
X011612Y001630D01*
X011831Y001630D01*
X011831Y001808D01*
X011968Y001671D01*
X012038Y001601D01*
X013118Y001601D01*
X013218Y001601D01*
X013356Y001739D01*
X013363Y001736D01*
X013453Y001736D01*
X013535Y001770D01*
X013599Y001833D01*
X013618Y001880D01*
X013618Y001735D01*
X013618Y001661D01*
X013618Y001661D01*
X013616Y001630D01*
X013604Y001568D01*
X013580Y001510D01*
X013545Y001458D01*
X013501Y001414D01*
X013449Y001379D01*
X013391Y001355D01*
X013329Y001342D01*
X013298Y001341D01*
X011782Y001341D01*
X011831Y001390D01*
X011831Y001572D01*
X011612Y001572D01*
X011612Y001630D01*
X011612Y001888D01*
X011751Y001888D01*
X011498Y002141D01*
X010158Y002141D01*
X009865Y001848D01*
X010148Y001848D01*
X010201Y001796D01*
X010201Y001406D01*
X010415Y001406D01*
X010467Y001353D01*
X010778Y001353D01*
X010788Y001363D01*
X010798Y001353D01*
X011108Y001353D01*
X011161Y001406D01*
X011335Y001406D01*
X011335Y001465D02*
X011161Y001465D01*
X011161Y001523D02*
X011335Y001523D01*
X011335Y001640D02*
X011161Y001640D01*
X011161Y001582D02*
X011554Y001582D01*
X011612Y001582D02*
X013607Y001582D01*
X013617Y001640D02*
X013257Y001640D01*
X013315Y001699D02*
X013618Y001699D01*
X013618Y001757D02*
X013504Y001757D01*
X013581Y001816D02*
X013618Y001816D01*
X013615Y001874D02*
X013618Y001874D01*
X013408Y001961D02*
X013168Y001721D01*
X012088Y001721D01*
X011548Y002261D01*
X010108Y002261D01*
X009568Y001721D01*
X008128Y001721D01*
X007926Y001923D01*
X007926Y002253D01*
X007670Y002253D02*
X007670Y001819D01*
X007948Y001541D01*
X009928Y001541D01*
X009988Y001601D01*
X009993Y001601D01*
X010201Y001582D02*
X010415Y001582D01*
X010415Y001640D02*
X010201Y001640D01*
X010201Y001699D02*
X010415Y001699D01*
X010415Y001757D02*
X010201Y001757D01*
X010181Y001816D02*
X010435Y001816D01*
X010415Y001796D02*
X010415Y001406D01*
X010415Y001465D02*
X010201Y001465D01*
X010201Y001523D02*
X010415Y001523D01*
X010623Y001601D02*
X010953Y001601D01*
X011161Y001699D02*
X011335Y001699D01*
X011335Y001757D02*
X011161Y001757D01*
X011161Y001796D02*
X011108Y001848D01*
X010798Y001848D01*
X010788Y001839D01*
X010778Y001848D01*
X010467Y001848D01*
X010415Y001796D01*
X009949Y001933D02*
X011706Y001933D01*
X011648Y001991D02*
X010008Y001991D01*
X010067Y002050D02*
X011589Y002050D01*
X011531Y002109D02*
X010125Y002109D01*
X009891Y001874D02*
X011397Y001874D01*
X011338Y001816D02*
X011141Y001816D01*
X011161Y001796D02*
X011161Y001406D01*
X011377Y001347D02*
X004864Y001347D01*
X004923Y001406D02*
X009785Y001406D01*
X009838Y001353D01*
X010148Y001353D01*
X010201Y001406D01*
X009785Y001421D02*
X009785Y001406D01*
X009785Y001421D02*
X007898Y001421D01*
X007828Y001491D01*
X007550Y001769D01*
X007550Y001869D01*
X007550Y001931D01*
X007542Y001939D01*
X007534Y001931D01*
X007534Y001793D01*
X007539Y001788D01*
X007573Y001706D01*
X007573Y001616D01*
X007539Y001533D01*
X007475Y001470D01*
X007393Y001436D01*
X007303Y001436D01*
X007220Y001470D01*
X007157Y001533D01*
X007123Y001616D01*
X007123Y001706D01*
X007142Y001751D01*
X006528Y001751D01*
X006428Y001751D01*
X006320Y001859D01*
X006313Y001856D01*
X006223Y001856D01*
X006140Y001890D01*
X006077Y001953D01*
X006043Y002036D01*
X006043Y002126D01*
X006077Y002208D01*
X006140Y002272D01*
X006223Y002306D01*
X006283Y002306D01*
X006283Y002306D01*
X006283Y002396D01*
X006317Y002478D01*
X006380Y002542D01*
X006463Y002576D01*
X006553Y002576D01*
X006635Y002542D01*
X006699Y002478D01*
X006733Y002396D01*
X006733Y002373D01*
X006753Y002373D01*
X006753Y002547D01*
X006806Y002599D01*
X006999Y002599D01*
X007030Y002568D01*
X007062Y002599D01*
X007254Y002599D01*
X007286Y002568D01*
X007318Y002599D01*
X007510Y002599D01*
X007542Y002568D01*
X007574Y002599D01*
X007766Y002599D01*
X007798Y002568D01*
X007829Y002599D01*
X008022Y002599D01*
X008054Y002568D01*
X008085Y002599D01*
X008278Y002599D01*
X008310Y002568D01*
X008341Y002599D01*
X008534Y002599D01*
X008566Y002568D01*
X008597Y002599D01*
X008790Y002599D01*
X008843Y002547D01*
X008843Y002201D01*
X009398Y002201D01*
X009808Y002611D01*
X009818Y002621D01*
X009808Y002631D01*
X009794Y002645D01*
X009528Y002645D01*
X009499Y002616D01*
X008912Y002616D01*
X008859Y002669D01*
X008859Y002862D01*
X008891Y002893D01*
X008859Y002925D01*
X008859Y003117D01*
X008891Y003149D01*
X008859Y003181D01*
X008859Y003373D01*
X008891Y003405D01*
X008859Y003437D01*
X008859Y003629D01*
X008891Y003661D01*
X008859Y003693D01*
X008859Y003885D01*
X008891Y003917D01*
X008859Y003948D01*
X008859Y004141D01*
X008891Y004173D01*
X008859Y004204D01*
X008859Y004397D01*
X008891Y004429D01*
X008859Y004460D01*
X008859Y004653D01*
X008912Y004706D01*
X009151Y004706D01*
X009140Y004710D01*
X009077Y004773D01*
X009043Y004856D01*
X009043Y004946D01*
X009077Y005028D01*
X009140Y005092D01*
X009223Y005126D01*
X009313Y005126D01*
X009320Y005123D01*
X009388Y005191D01*
X009458Y005261D01*
X009763Y005261D01*
X009564Y005460D01*
X009564Y005631D01*
X010018Y005631D01*
X010018Y005691D01*
X010018Y006145D01*
X009847Y006145D01*
X009564Y005862D01*
X009564Y005691D01*
X010018Y005691D01*
X010078Y005691D01*
X010078Y006145D01*
X010248Y006145D01*
X010408Y005986D01*
X010408Y006031D01*
X010363Y006031D01*
X010408Y006031D02*
X010648Y006271D01*
X010718Y006341D01*
X012458Y006341D01*
X012558Y006341D01*
X012829Y006070D01*
X012864Y006105D01*
X013232Y006105D01*
X013492Y005845D01*
X013492Y005477D01*
X013232Y005217D01*
X012864Y005217D01*
X012604Y005477D01*
X012604Y005845D01*
X012659Y005900D01*
X012458Y006101D01*
X012236Y006101D01*
X012492Y005845D01*
X012492Y005477D01*
X012232Y005217D01*
X011864Y005217D01*
X011604Y005477D01*
X011604Y005845D01*
X011860Y006101D01*
X011236Y006101D01*
X011492Y005845D01*
X011492Y005477D01*
X011437Y005422D01*
X011668Y005191D01*
X011668Y005091D01*
X011668Y004909D01*
X011864Y005105D01*
X012232Y005105D01*
X012492Y004845D01*
X012492Y004477D01*
X012232Y004217D01*
X011864Y004217D01*
X011757Y004323D01*
X011773Y004286D01*
X011773Y004196D01*
X011739Y004113D01*
X011686Y004061D01*
X013004Y004061D01*
X013007Y004068D01*
X013070Y004132D01*
X013153Y004166D01*
X013243Y004166D01*
X013325Y004132D01*
X013389Y004068D01*
X013423Y003986D01*
X013423Y003896D01*
X013389Y003813D01*
X013356Y003781D01*
X013488Y003781D01*
X013588Y003781D01*
X013618Y003751D01*
X013712Y003751D01*
X013708Y003755D01*
X013649Y003857D01*
X013649Y003857D01*
X013624Y003951D01*
X013618Y003956D01*
X013618Y006586D01*
X013618Y006661D01*
X013616Y006692D01*
X013604Y006754D01*
X013580Y006812D01*
X013545Y006864D01*
X013501Y006908D01*
X013449Y006943D01*
X013391Y006967D01*
X013329Y006979D01*
X013298Y006981D01*
X009547Y006981D01*
X009558Y006971D01*
X009628Y006901D01*
X009628Y006061D01*
X009628Y005961D01*
X009148Y005481D01*
X009078Y005411D01*
X008793Y005411D01*
X008843Y005362D01*
X008843Y004775D01*
X008790Y004723D01*
X008597Y004723D01*
X008566Y004754D01*
X008534Y004723D01*
X008341Y004723D01*
X008310Y004754D01*
X008278Y004723D01*
X008085Y004723D01*
X008054Y004754D01*
X008022Y004723D01*
X007829Y004723D01*
X007798Y004754D01*
X007766Y004723D01*
X007574Y004723D01*
X007542Y004754D01*
X007510Y004723D01*
X007318Y004723D01*
X007286Y004754D01*
X007254Y004723D01*
X007062Y004723D01*
X007030Y004754D01*
X006999Y004723D01*
X006806Y004723D01*
X006753Y004775D01*
X006753Y005236D01*
X006710Y005279D01*
X006703Y005276D01*
X006613Y005276D01*
X006530Y005310D01*
X006467Y005373D01*
X006433Y005456D01*
X006433Y005546D01*
X006467Y005628D01*
X006530Y005692D01*
X006613Y005726D01*
X006639Y005726D01*
X006574Y005791D01*
X006498Y005867D01*
X006498Y005888D01*
X006353Y005888D01*
X006300Y005941D01*
X006300Y005946D01*
X006264Y005946D01*
X006307Y005903D01*
X006307Y005671D01*
X006254Y005618D01*
X005865Y005618D01*
X005812Y005671D01*
X005812Y005903D01*
X005865Y005956D01*
X005931Y005956D01*
X005921Y005966D01*
X005863Y005966D01*
X005780Y006000D01*
X005717Y006063D01*
X005683Y006146D01*
X005683Y006236D01*
X005717Y006318D01*
X005780Y006382D01*
X005829Y006402D01*
X005812Y006419D01*
X005812Y006456D01*
X005799Y006423D01*
X005735Y006360D01*
X005653Y006326D01*
X005578Y006326D01*
X005578Y005953D01*
X005578Y005829D01*
X005559Y005810D01*
X005808Y005561D01*
X006228Y005561D01*
X006298Y005491D01*
X006688Y005101D01*
X006688Y005001D01*
X006688Y004701D01*
X006736Y004653D01*
X006736Y004460D01*
X006705Y004429D01*
X006736Y004397D01*
X006736Y004204D01*
X006705Y004173D01*
X006736Y004141D01*
X006736Y003948D01*
X006705Y003917D01*
X006736Y003885D01*
X006736Y003693D01*
X006705Y003661D01*
X006736Y003629D01*
X006736Y003437D01*
X006705Y003405D01*
X006736Y003373D01*
X006736Y003181D01*
X006705Y003149D01*
X006718Y003162D02*
X006743Y003162D01*
X006736Y003104D02*
X006743Y003104D01*
X006736Y003045D02*
X006743Y003045D01*
X006736Y002987D02*
X006743Y002987D01*
X006736Y002928D02*
X006743Y002928D01*
X006743Y002870D02*
X006728Y002870D01*
X006736Y002811D02*
X006743Y002811D01*
X006736Y002753D02*
X006743Y002753D01*
X006736Y002694D02*
X006743Y002694D01*
X006743Y002682D02*
X006819Y002606D01*
X007768Y002606D01*
X007768Y003631D01*
X007828Y003631D01*
X007828Y003691D01*
X008853Y003691D01*
X008853Y004640D01*
X008777Y004716D01*
X007828Y004716D01*
X007828Y003691D01*
X007768Y003691D01*
X007768Y004716D01*
X006819Y004716D01*
X006743Y004640D01*
X006743Y003691D01*
X007768Y003691D01*
X007768Y003631D01*
X006743Y003631D01*
X006743Y002682D01*
X006703Y002635D02*
X006789Y002635D01*
X006783Y002577D02*
X005953Y002577D01*
X005953Y002518D02*
X006357Y002518D01*
X006309Y002460D02*
X005929Y002460D01*
X005886Y002401D02*
X006285Y002401D01*
X006283Y002343D02*
X005789Y002343D01*
X005626Y002459D02*
X005728Y002561D01*
X005941Y002635D02*
X006078Y002635D01*
X006044Y002694D02*
X005913Y002694D01*
X005853Y002753D02*
X006044Y002753D01*
X006044Y002811D02*
X005038Y002811D01*
X005031Y002753D02*
X005603Y002753D01*
X005543Y002694D02*
X005460Y002694D01*
X005501Y002635D02*
X005515Y002635D01*
X005626Y002459D02*
X005332Y002459D01*
X005163Y002343D02*
X005108Y002343D01*
X005098Y002284D02*
X005163Y002284D01*
X005202Y002226D02*
X005098Y002226D01*
X005098Y002167D02*
X006060Y002167D01*
X006043Y002109D02*
X005098Y002109D01*
X005098Y002050D02*
X006043Y002050D01*
X006061Y001991D02*
X005098Y001991D01*
X005098Y001933D02*
X006098Y001933D01*
X006179Y001874D02*
X005098Y001874D01*
X005098Y001816D02*
X006363Y001816D01*
X006422Y001757D02*
X005098Y001757D01*
X005098Y001699D02*
X007123Y001699D01*
X007123Y001640D02*
X005098Y001640D01*
X005098Y001582D02*
X007137Y001582D01*
X007167Y001523D02*
X005040Y001523D01*
X004981Y001465D02*
X007234Y001465D01*
X007462Y001465D02*
X007855Y001465D01*
X007796Y001523D02*
X007528Y001523D01*
X007559Y001582D02*
X007737Y001582D01*
X007679Y001640D02*
X007573Y001640D01*
X007573Y001699D02*
X007620Y001699D01*
X007562Y001757D02*
X007551Y001757D01*
X007550Y001816D02*
X007534Y001816D01*
X007534Y001874D02*
X007550Y001874D01*
X007548Y001933D02*
X007536Y001933D01*
X007158Y001921D02*
X007108Y001871D01*
X006478Y001871D01*
X006268Y002081D01*
X006094Y002226D02*
X005462Y002226D01*
X005501Y002284D02*
X006171Y002284D01*
X006508Y002351D02*
X006605Y002253D01*
X006902Y002253D01*
X007158Y002253D02*
X007158Y001921D01*
X007414Y001727D02*
X007348Y001661D01*
X007414Y001727D02*
X007414Y002253D01*
X007295Y002577D02*
X007277Y002577D01*
X007039Y002577D02*
X007021Y002577D01*
X006753Y002518D02*
X006659Y002518D01*
X006706Y002460D02*
X006753Y002460D01*
X006753Y002401D02*
X006731Y002401D01*
X007533Y002577D02*
X007551Y002577D01*
X007768Y002635D02*
X007828Y002635D01*
X007828Y002606D02*
X008777Y002606D01*
X008853Y002682D01*
X008853Y003631D01*
X007828Y003631D01*
X007828Y002606D01*
X007807Y002577D02*
X007789Y002577D01*
X007768Y002694D02*
X007828Y002694D01*
X007828Y002753D02*
X007768Y002753D01*
X007768Y002811D02*
X007828Y002811D01*
X007828Y002870D02*
X007768Y002870D01*
X007768Y002928D02*
X007828Y002928D01*
X007828Y002987D02*
X007768Y002987D01*
X007768Y003045D02*
X007828Y003045D01*
X007828Y003104D02*
X007768Y003104D01*
X007768Y003162D02*
X007828Y003162D01*
X007828Y003221D02*
X007768Y003221D01*
X007768Y003279D02*
X007828Y003279D01*
X007828Y003338D02*
X007768Y003338D01*
X007768Y003396D02*
X007828Y003396D01*
X007828Y003455D02*
X007768Y003455D01*
X007768Y003514D02*
X007828Y003514D01*
X007828Y003572D02*
X007768Y003572D01*
X007768Y003631D02*
X007828Y003631D01*
X007828Y003689D02*
X008863Y003689D01*
X008853Y003631D02*
X008861Y003631D01*
X008853Y003572D02*
X008859Y003572D01*
X008853Y003514D02*
X008859Y003514D01*
X008853Y003455D02*
X008859Y003455D01*
X008853Y003396D02*
X008883Y003396D01*
X008859Y003338D02*
X008853Y003338D01*
X008853Y003279D02*
X008859Y003279D01*
X008853Y003221D02*
X008859Y003221D01*
X008853Y003162D02*
X008878Y003162D01*
X008859Y003104D02*
X008853Y003104D01*
X008853Y003045D02*
X008859Y003045D01*
X008853Y002987D02*
X008859Y002987D01*
X008853Y002928D02*
X008859Y002928D01*
X008853Y002870D02*
X008868Y002870D01*
X008859Y002811D02*
X008853Y002811D01*
X008853Y002753D02*
X008859Y002753D01*
X008853Y002694D02*
X008859Y002694D01*
X008893Y002635D02*
X008807Y002635D01*
X008812Y002577D02*
X009774Y002577D01*
X009804Y002635D02*
X009518Y002635D01*
X009716Y002518D02*
X008843Y002518D01*
X008843Y002460D02*
X009657Y002460D01*
X009599Y002401D02*
X008843Y002401D01*
X008843Y002343D02*
X009540Y002343D01*
X009481Y002284D02*
X008843Y002284D01*
X008843Y002226D02*
X009423Y002226D01*
X009448Y002081D02*
X009928Y002561D01*
X012178Y002561D01*
X012238Y002621D01*
X012233Y002626D01*
X012233Y002661D01*
X011968Y002441D02*
X012233Y002176D01*
X012233Y002161D01*
X011968Y002441D02*
X010048Y002441D01*
X009478Y001871D01*
X008458Y001871D01*
X008438Y001891D01*
X008438Y002253D01*
X008694Y002253D02*
X008694Y002085D01*
X008698Y002081D01*
X009448Y002081D01*
X008575Y002577D02*
X008556Y002577D01*
X008319Y002577D02*
X008300Y002577D01*
X008063Y002577D02*
X008045Y002577D01*
X009205Y002765D02*
X009844Y002765D01*
X009928Y002681D01*
X011608Y002681D01*
X012028Y003101D01*
X012208Y003101D01*
X012238Y003131D01*
X012233Y003136D01*
X012233Y003161D01*
X011732Y003455D02*
X010661Y003455D01*
X010661Y003401D02*
X010661Y003536D01*
X010659Y003538D01*
X010701Y003580D01*
X010701Y003653D01*
X010747Y003608D01*
X010929Y003608D01*
X010929Y003827D01*
X010987Y003827D01*
X010987Y003885D01*
X011245Y003885D01*
X011245Y003954D01*
X011308Y003891D01*
X011378Y003821D01*
X012025Y003821D01*
X012025Y003701D01*
X011978Y003701D01*
X011908Y003631D01*
X011192Y003631D01*
X011169Y003608D02*
X010987Y003608D01*
X010987Y003827D01*
X011245Y003827D01*
X011245Y003684D01*
X011169Y003608D01*
X011245Y003689D02*
X011966Y003689D01*
X011908Y003631D02*
X011908Y003631D01*
X011198Y002921D01*
X010038Y002921D01*
X009865Y003093D01*
X009978Y003093D01*
X010031Y003146D01*
X010031Y003536D01*
X010001Y003566D01*
X010031Y003596D01*
X010031Y003862D01*
X010108Y003939D01*
X010108Y004217D01*
X010232Y004217D01*
X010337Y004322D01*
X010558Y004101D01*
X010581Y004078D01*
X010482Y004078D01*
X010482Y003820D01*
X010424Y003820D01*
X010424Y004078D01*
X010281Y004078D01*
X010205Y004002D01*
X010205Y003820D01*
X010424Y003820D01*
X010424Y003762D01*
X010205Y003762D01*
X010205Y003580D01*
X010247Y003538D01*
X010245Y003536D01*
X010245Y003146D01*
X010297Y003093D01*
X010608Y003093D01*
X010661Y003146D01*
X010661Y003161D01*
X010710Y003161D01*
X010710Y003071D01*
X010763Y003018D01*
X011153Y003018D01*
X011205Y003071D01*
X011205Y003381D01*
X011153Y003434D01*
X010763Y003434D01*
X010730Y003401D01*
X010661Y003401D01*
X010661Y003514D02*
X011791Y003514D01*
X011849Y003572D02*
X010693Y003572D01*
X010701Y003631D02*
X010724Y003631D01*
X010929Y003631D02*
X010987Y003631D01*
X010987Y003689D02*
X010929Y003689D01*
X010929Y003748D02*
X010987Y003748D01*
X010987Y003806D02*
X010929Y003806D01*
X010987Y003865D02*
X011334Y003865D01*
X011276Y003923D02*
X011245Y003923D01*
X011245Y003806D02*
X012025Y003806D01*
X012025Y003748D02*
X011245Y003748D01*
X011428Y003941D02*
X013198Y003941D01*
X013410Y003865D02*
X013646Y003865D01*
X013631Y003923D02*
X013423Y003923D01*
X013423Y003982D02*
X013618Y003982D01*
X013618Y004040D02*
X013400Y004040D01*
X013358Y004099D02*
X013618Y004099D01*
X013618Y004158D02*
X013263Y004158D01*
X013232Y004217D02*
X013492Y004477D01*
X013492Y004845D01*
X013232Y005105D01*
X012864Y005105D01*
X012604Y004845D01*
X012604Y004477D01*
X012864Y004217D01*
X013232Y004217D01*
X013290Y004275D02*
X013618Y004275D01*
X013618Y004333D02*
X013348Y004333D01*
X013407Y004392D02*
X013618Y004392D01*
X013618Y004450D02*
X013466Y004450D01*
X013492Y004509D02*
X013618Y004509D01*
X013618Y004567D02*
X013492Y004567D01*
X013492Y004626D02*
X013618Y004626D01*
X013618Y004684D02*
X013492Y004684D01*
X013492Y004743D02*
X013618Y004743D01*
X013618Y004802D02*
X013492Y004802D01*
X013477Y004860D02*
X013618Y004860D01*
X013618Y004919D02*
X013419Y004919D01*
X013360Y004977D02*
X013618Y004977D01*
X013618Y005036D02*
X013301Y005036D01*
X013243Y005094D02*
X013618Y005094D01*
X013618Y005153D02*
X011668Y005153D01*
X011668Y005094D02*
X011853Y005094D01*
X011794Y005036D02*
X011668Y005036D01*
X011668Y004977D02*
X011736Y004977D01*
X011677Y004919D02*
X011668Y004919D01*
X011548Y005141D02*
X011038Y005651D01*
X011048Y005661D01*
X011492Y005680D02*
X011604Y005680D01*
X011604Y005738D02*
X011492Y005738D01*
X011492Y005797D02*
X011604Y005797D01*
X011614Y005855D02*
X011482Y005855D01*
X011423Y005914D02*
X011672Y005914D01*
X011731Y005972D02*
X011365Y005972D01*
X011306Y006031D02*
X011790Y006031D01*
X011848Y006089D02*
X011248Y006089D01*
X010768Y006221D02*
X012508Y006221D01*
X013048Y005681D01*
X013048Y005661D01*
X013492Y005680D02*
X013618Y005680D01*
X013618Y005738D02*
X013492Y005738D01*
X013492Y005797D02*
X013618Y005797D01*
X013618Y005855D02*
X013482Y005855D01*
X013423Y005914D02*
X013618Y005914D01*
X013618Y005972D02*
X013365Y005972D01*
X013306Y006031D02*
X013618Y006031D01*
X013618Y006089D02*
X013248Y006089D01*
X013618Y006148D02*
X012750Y006148D01*
X012692Y006207D02*
X013618Y006207D01*
X013618Y006265D02*
X012633Y006265D01*
X012575Y006324D02*
X013618Y006324D01*
X013618Y006382D02*
X009628Y006382D01*
X009628Y006324D02*
X010701Y006324D01*
X010642Y006265D02*
X009628Y006265D01*
X009628Y006207D02*
X010584Y006207D01*
X010525Y006148D02*
X009628Y006148D01*
X009628Y006089D02*
X009791Y006089D01*
X009733Y006031D02*
X009628Y006031D01*
X009628Y005972D02*
X009674Y005972D01*
X009616Y005914D02*
X009580Y005914D01*
X009564Y005855D02*
X009522Y005855D01*
X009564Y005797D02*
X009463Y005797D01*
X009405Y005738D02*
X009564Y005738D01*
X009564Y005621D02*
X009288Y005621D01*
X009346Y005680D02*
X010018Y005680D01*
X010018Y005738D02*
X010078Y005738D01*
X010078Y005797D02*
X010018Y005797D01*
X010018Y005855D02*
X010078Y005855D01*
X010078Y005914D02*
X010018Y005914D01*
X010018Y005972D02*
X010078Y005972D01*
X010078Y006031D02*
X010018Y006031D01*
X010018Y006089D02*
X010078Y006089D01*
X010304Y006089D02*
X010467Y006089D01*
X010528Y005981D02*
X010768Y006221D01*
X010528Y005981D02*
X010528Y005351D01*
X010318Y005141D01*
X009508Y005141D01*
X009268Y004901D01*
X009056Y004977D02*
X008843Y004977D01*
X008843Y004919D02*
X009043Y004919D01*
X009043Y004860D02*
X008843Y004860D01*
X008843Y004802D02*
X009065Y004802D01*
X009108Y004743D02*
X008810Y004743D01*
X008809Y004684D02*
X008891Y004684D01*
X008859Y004626D02*
X008853Y004626D01*
X008853Y004567D02*
X008859Y004567D01*
X008853Y004509D02*
X008859Y004509D01*
X008853Y004450D02*
X008869Y004450D01*
X008859Y004392D02*
X008853Y004392D01*
X008853Y004333D02*
X008859Y004333D01*
X008853Y004275D02*
X008859Y004275D01*
X008853Y004216D02*
X008859Y004216D01*
X008853Y004158D02*
X008876Y004158D01*
X008859Y004099D02*
X008853Y004099D01*
X008853Y004040D02*
X008859Y004040D01*
X008853Y003982D02*
X008859Y003982D01*
X008853Y003923D02*
X008885Y003923D01*
X008859Y003865D02*
X008853Y003865D01*
X008853Y003806D02*
X008859Y003806D01*
X008853Y003748D02*
X008859Y003748D01*
X007828Y003748D02*
X007768Y003748D01*
X007768Y003806D02*
X007828Y003806D01*
X007828Y003865D02*
X007768Y003865D01*
X007768Y003923D02*
X007828Y003923D01*
X007828Y003982D02*
X007768Y003982D01*
X007768Y004040D02*
X007828Y004040D01*
X007828Y004099D02*
X007768Y004099D01*
X007768Y004158D02*
X007828Y004158D01*
X007828Y004216D02*
X007768Y004216D01*
X007768Y004275D02*
X007828Y004275D01*
X007828Y004333D02*
X007768Y004333D01*
X007768Y004392D02*
X007828Y004392D01*
X007828Y004450D02*
X007768Y004450D01*
X007768Y004509D02*
X007828Y004509D01*
X007828Y004567D02*
X007768Y004567D01*
X007768Y004626D02*
X007828Y004626D01*
X007828Y004684D02*
X007768Y004684D01*
X007787Y004743D02*
X007809Y004743D01*
X008043Y004743D02*
X008065Y004743D01*
X008299Y004743D02*
X008321Y004743D01*
X008554Y004743D02*
X008577Y004743D01*
X008438Y005068D02*
X008438Y005071D01*
X008428Y005081D01*
X008458Y005111D01*
X008458Y005381D01*
X008608Y005531D01*
X009028Y005531D01*
X009508Y006011D01*
X009508Y006851D01*
X009358Y007001D01*
X006058Y007001D01*
X005608Y006551D01*
X005383Y006568D02*
X005383Y006596D01*
X005417Y006678D01*
X005480Y006742D01*
X005563Y006776D01*
X005653Y006776D01*
X005660Y006773D01*
X005868Y006981D01*
X004746Y006981D01*
X004779Y006948D01*
X004813Y006866D01*
X004813Y006776D01*
X004779Y006693D01*
X004715Y006630D01*
X004633Y006596D01*
X004543Y006596D01*
X004460Y006630D01*
X004442Y006649D01*
X004442Y006552D01*
X004429Y006539D01*
X004482Y006486D01*
X004482Y006265D01*
X004107Y006265D01*
X004107Y006207D02*
X004749Y006207D01*
X004749Y006148D02*
X004482Y006148D01*
X004482Y006089D02*
X004749Y006089D01*
X004567Y006031D02*
X004509Y006031D01*
X004509Y005972D02*
X004567Y005972D01*
X004567Y005914D02*
X004509Y005914D01*
X004509Y005855D02*
X004509Y005797D01*
X002228Y005797D01*
X002228Y005855D02*
X003265Y005855D01*
X003161Y005914D02*
X002994Y005914D01*
X003053Y005972D02*
X003103Y005972D01*
X003076Y006031D02*
X003065Y006031D01*
X003050Y006205D02*
X002689Y006205D01*
X002689Y006265D01*
X003069Y006265D01*
X003065Y006265D02*
X003065Y006371D01*
X003133Y006371D01*
X003098Y006337D01*
X003050Y006220D01*
X003050Y006205D01*
X003050Y006207D02*
X002689Y006207D01*
X002689Y006265D02*
X003065Y006265D01*
X003065Y006324D02*
X003093Y006324D01*
X003088Y006491D02*
X003688Y006491D01*
X004048Y006851D01*
X004077Y006822D01*
X004077Y006787D01*
X004553Y006787D01*
X004588Y006821D01*
X004795Y006733D02*
X005472Y006733D01*
X005416Y006675D02*
X005276Y006675D01*
X005266Y006685D02*
X005383Y006568D01*
X005391Y006616D02*
X005334Y006616D01*
X005266Y006685D02*
X005249Y006685D01*
X005231Y006704D01*
X004841Y006704D01*
X004789Y006651D01*
X004789Y006419D01*
X004838Y006370D01*
X004825Y006370D01*
X004749Y006294D01*
X004779Y006324D02*
X004482Y006324D01*
X004482Y006382D02*
X004825Y006382D01*
X004789Y006441D02*
X004482Y006441D01*
X004469Y006499D02*
X004789Y006499D01*
X004789Y006558D02*
X004442Y006558D01*
X004442Y006616D02*
X004494Y006616D01*
X004682Y006616D02*
X004789Y006616D01*
X004813Y006675D02*
X004760Y006675D01*
X004813Y006792D02*
X005679Y006792D01*
X005738Y006851D02*
X004813Y006851D01*
X004795Y006909D02*
X005796Y006909D01*
X005855Y006968D02*
X004759Y006968D01*
X004168Y006791D02*
X004163Y006787D01*
X004077Y006787D01*
X003671Y006371D02*
X003671Y006265D01*
X004046Y006265D01*
X003667Y006265D01*
X003686Y006220D02*
X003637Y006337D01*
X003603Y006371D01*
X003638Y006371D01*
X003671Y006371D01*
X003671Y006324D02*
X003643Y006324D01*
X003686Y006220D02*
X003686Y006205D01*
X004046Y006205D01*
X004046Y006265D01*
X004046Y006207D02*
X003686Y006207D01*
X004047Y006148D02*
X004106Y006148D01*
X004106Y006089D02*
X004047Y006089D01*
X004047Y006031D02*
X004106Y006031D01*
X004106Y005972D02*
X004047Y005972D01*
X004047Y005914D02*
X004106Y005914D01*
X004250Y005855D02*
X003471Y005855D01*
X003575Y005914D02*
X003742Y005914D01*
X003683Y005972D02*
X003633Y005972D01*
X003660Y006031D02*
X003671Y006031D01*
X004250Y005797D02*
X004250Y005654D01*
X004327Y005578D01*
X004509Y005578D01*
X004509Y005797D01*
X004567Y005797D01*
X004509Y005797D02*
X004250Y005797D01*
X004250Y005738D02*
X002228Y005738D01*
X002228Y005680D02*
X004250Y005680D01*
X004283Y005621D02*
X002228Y005621D01*
X002518Y005563D02*
X002578Y005563D01*
X002578Y005620D02*
X002578Y005195D01*
X003003Y005195D01*
X003003Y005544D01*
X002926Y005620D01*
X002578Y005620D01*
X002578Y005504D02*
X002518Y005504D01*
X002518Y005446D02*
X002578Y005446D01*
X002578Y005387D02*
X002518Y005387D01*
X002518Y005328D02*
X002578Y005328D01*
X002578Y005270D02*
X002518Y005270D01*
X002518Y005211D02*
X002578Y005211D01*
X002578Y005153D02*
X003183Y005153D01*
X003183Y005211D02*
X003003Y005211D01*
X003003Y005270D02*
X003208Y005270D01*
X003266Y005328D02*
X003003Y005328D01*
X003003Y005387D02*
X003325Y005387D01*
X003003Y005446D02*
X004590Y005446D01*
X004649Y005504D02*
X003003Y005504D01*
X002984Y005563D02*
X004707Y005563D01*
X004567Y005621D02*
X004509Y005621D01*
X004509Y005680D02*
X004567Y005680D01*
X004567Y005738D02*
X004509Y005738D01*
X004326Y005387D02*
X004133Y005387D01*
X004192Y005328D02*
X004290Y005328D01*
X004290Y005270D02*
X004250Y005270D01*
X003759Y005270D02*
X003699Y005270D01*
X003699Y005328D02*
X003759Y005328D01*
X003759Y005387D02*
X003699Y005387D01*
X003699Y005211D02*
X003759Y005211D01*
X003759Y005153D02*
X003699Y005153D01*
X003699Y005094D02*
X003003Y005094D01*
X003003Y005135D02*
X002578Y005135D01*
X002578Y004744D01*
X002578Y004447D01*
X003072Y004447D01*
X003072Y004668D01*
X002995Y004744D01*
X002960Y004744D01*
X003003Y004786D01*
X003003Y005135D01*
X003003Y005036D02*
X003183Y005036D01*
X003183Y004977D02*
X003003Y004977D01*
X003003Y004919D02*
X003231Y004919D01*
X003289Y004860D02*
X003003Y004860D01*
X003003Y004802D02*
X003219Y004802D01*
X003206Y004743D02*
X002996Y004743D01*
X003055Y004684D02*
X003206Y004684D01*
X003206Y004626D02*
X003072Y004626D01*
X003072Y004567D02*
X003206Y004567D01*
X003206Y004509D02*
X003072Y004509D01*
X003072Y004450D02*
X003206Y004450D01*
X003206Y004392D02*
X002578Y004392D01*
X002578Y004387D02*
X002578Y004232D01*
X002578Y003935D01*
X002518Y003935D01*
X002518Y004232D01*
X002518Y004387D01*
X002578Y004387D01*
X002578Y004333D02*
X002518Y004333D01*
X002518Y004275D02*
X002578Y004275D01*
X002578Y004216D02*
X002518Y004216D01*
X002518Y004158D02*
X002578Y004158D01*
X002578Y004099D02*
X002518Y004099D01*
X002518Y004040D02*
X002578Y004040D01*
X002578Y003982D02*
X002518Y003982D01*
X003072Y003982D02*
X003206Y003982D01*
X003210Y004040D02*
X003072Y004040D01*
X003072Y004099D02*
X003206Y004099D01*
X003206Y004158D02*
X003070Y004158D01*
X003072Y004216D02*
X003206Y004216D01*
X003206Y004275D02*
X003072Y004275D01*
X003072Y004333D02*
X003206Y004333D01*
X003650Y004417D02*
X004164Y004417D01*
X004288Y004541D01*
X004948Y004541D01*
X004978Y004571D01*
X004943Y004606D01*
X004943Y004631D01*
X005548Y004601D02*
X005728Y004421D01*
X005728Y003761D01*
X005956Y003533D01*
X006390Y003533D01*
X006736Y003514D02*
X006743Y003514D01*
X006736Y003572D02*
X006743Y003572D01*
X006735Y003631D02*
X006743Y003631D01*
X006733Y003689D02*
X007768Y003689D01*
X006743Y003748D02*
X006736Y003748D01*
X006736Y003806D02*
X006743Y003806D01*
X006736Y003865D02*
X006743Y003865D01*
X006743Y003923D02*
X006711Y003923D01*
X006736Y003982D02*
X006743Y003982D01*
X006736Y004040D02*
X006743Y004040D01*
X006736Y004099D02*
X006743Y004099D01*
X006743Y004158D02*
X006720Y004158D01*
X006736Y004216D02*
X006743Y004216D01*
X006736Y004275D02*
X006743Y004275D01*
X006736Y004333D02*
X006743Y004333D01*
X006736Y004392D02*
X006743Y004392D01*
X006743Y004450D02*
X006726Y004450D01*
X006736Y004509D02*
X006743Y004509D01*
X006736Y004567D02*
X006743Y004567D01*
X006736Y004626D02*
X006743Y004626D01*
X006705Y004684D02*
X006787Y004684D01*
X006785Y004743D02*
X006688Y004743D01*
X006688Y004802D02*
X006753Y004802D01*
X006753Y004860D02*
X006688Y004860D01*
X006688Y004919D02*
X006753Y004919D01*
X006753Y004977D02*
X006688Y004977D01*
X006688Y005036D02*
X006753Y005036D01*
X006753Y005094D02*
X006688Y005094D01*
X006636Y005153D02*
X006753Y005153D01*
X006753Y005211D02*
X006577Y005211D01*
X006519Y005270D02*
X006719Y005270D01*
X006902Y005257D02*
X006658Y005501D01*
X006433Y005504D02*
X006284Y005504D01*
X006343Y005446D02*
X006437Y005446D01*
X006461Y005387D02*
X006401Y005387D01*
X006460Y005328D02*
X006512Y005328D01*
X006568Y005051D02*
X006178Y005441D01*
X005758Y005441D01*
X005368Y005831D01*
X005572Y005797D02*
X005812Y005797D01*
X005812Y005855D02*
X005578Y005855D01*
X005578Y005914D02*
X005823Y005914D01*
X005847Y005972D02*
X005578Y005972D01*
X005578Y006031D02*
X005750Y006031D01*
X005706Y006089D02*
X005578Y006089D01*
X005578Y006148D02*
X005683Y006148D01*
X005683Y006207D02*
X005578Y006207D01*
X005578Y006265D02*
X005695Y006265D01*
X005722Y006324D02*
X005578Y006324D01*
X005757Y006382D02*
X005782Y006382D01*
X005806Y006441D02*
X005812Y006441D01*
X005930Y006704D02*
X006108Y006881D01*
X006260Y006881D01*
X006260Y006755D01*
X006519Y006755D01*
X006519Y006697D01*
X006261Y006697D01*
X006254Y006704D01*
X005930Y006704D01*
X005960Y006733D02*
X006519Y006733D01*
X006519Y006697D02*
X006577Y006697D01*
X006577Y006478D01*
X006759Y006478D01*
X006777Y006495D01*
X006777Y006270D01*
X006743Y006304D01*
X006492Y006304D01*
X006488Y006312D01*
X006488Y006335D01*
X006465Y006358D01*
X006412Y006411D01*
X006345Y006478D01*
X006519Y006478D01*
X006519Y006697D01*
X006519Y006675D02*
X006577Y006675D01*
X006577Y006616D02*
X006519Y006616D01*
X006519Y006558D02*
X006577Y006558D01*
X006577Y006499D02*
X006519Y006499D01*
X006440Y006382D02*
X006777Y006382D01*
X006777Y006324D02*
X006488Y006324D01*
X006382Y006441D02*
X006777Y006441D01*
X007260Y006411D02*
X007260Y006368D01*
X007670Y005959D01*
X007670Y005068D01*
X007926Y005068D02*
X007926Y005779D01*
X008128Y005981D01*
X008488Y005981D01*
X008835Y006328D01*
X008835Y006411D01*
X009628Y006441D02*
X013618Y006441D01*
X013618Y006499D02*
X009628Y006499D01*
X009628Y006558D02*
X013618Y006558D01*
X013618Y006616D02*
X009628Y006616D01*
X009628Y006675D02*
X013617Y006675D01*
X013608Y006733D02*
X009628Y006733D01*
X009628Y006792D02*
X013588Y006792D01*
X013554Y006851D02*
X009628Y006851D01*
X009619Y006909D02*
X013500Y006909D01*
X013388Y006968D02*
X009561Y006968D01*
X012248Y006089D02*
X012470Y006089D01*
X012528Y006031D02*
X012306Y006031D01*
X012365Y005972D02*
X012587Y005972D01*
X012645Y005914D02*
X012423Y005914D01*
X012482Y005855D02*
X012614Y005855D01*
X012604Y005797D02*
X012492Y005797D01*
X012492Y005738D02*
X012604Y005738D01*
X012604Y005680D02*
X012492Y005680D01*
X012492Y005621D02*
X012604Y005621D01*
X012604Y005563D02*
X012492Y005563D01*
X012492Y005504D02*
X012604Y005504D01*
X012635Y005446D02*
X012461Y005446D01*
X012402Y005387D02*
X012693Y005387D01*
X012752Y005328D02*
X012344Y005328D01*
X012285Y005270D02*
X012811Y005270D01*
X012853Y005094D02*
X012243Y005094D01*
X012301Y005036D02*
X012794Y005036D01*
X012736Y004977D02*
X012360Y004977D01*
X012419Y004919D02*
X012677Y004919D01*
X012619Y004860D02*
X012477Y004860D01*
X012492Y004802D02*
X012604Y004802D01*
X012604Y004743D02*
X012492Y004743D01*
X012492Y004684D02*
X012604Y004684D01*
X012604Y004626D02*
X012492Y004626D01*
X012492Y004567D02*
X012604Y004567D01*
X012604Y004509D02*
X012492Y004509D01*
X012466Y004450D02*
X012630Y004450D01*
X012689Y004392D02*
X012407Y004392D01*
X012348Y004333D02*
X012747Y004333D01*
X012806Y004275D02*
X012290Y004275D01*
X011806Y004275D02*
X011773Y004275D01*
X011773Y004216D02*
X013618Y004216D01*
X013133Y004158D02*
X011757Y004158D01*
X011724Y004099D02*
X013038Y004099D01*
X013381Y003806D02*
X013678Y003806D01*
X013538Y003661D02*
X013618Y003581D01*
X013538Y003661D02*
X012863Y003661D01*
X012233Y003661D02*
X012233Y003606D01*
X012208Y003581D01*
X012028Y003581D01*
X011248Y002801D01*
X009988Y002801D01*
X009768Y003021D01*
X009205Y003021D01*
X009205Y003277D02*
X009804Y003277D01*
X009838Y003311D01*
X009823Y003326D01*
X009823Y003341D01*
X010031Y003338D02*
X010245Y003338D01*
X010245Y003396D02*
X010031Y003396D01*
X010031Y003455D02*
X010245Y003455D01*
X010245Y003514D02*
X010031Y003514D01*
X010007Y003572D02*
X010212Y003572D01*
X010205Y003631D02*
X010031Y003631D01*
X010031Y003689D02*
X010205Y003689D01*
X010205Y003748D02*
X010031Y003748D01*
X010031Y003806D02*
X010424Y003806D01*
X010424Y003865D02*
X010482Y003865D01*
X010482Y003923D02*
X010424Y003923D01*
X010424Y003982D02*
X010482Y003982D01*
X010482Y004040D02*
X010424Y004040D01*
X010502Y004158D02*
X010108Y004158D01*
X010108Y004216D02*
X010443Y004216D01*
X010384Y004275D02*
X010290Y004275D01*
X010243Y004040D02*
X010108Y004040D01*
X010108Y003982D02*
X010205Y003982D01*
X010205Y003923D02*
X010092Y003923D01*
X010034Y003865D02*
X010205Y003865D01*
X010108Y004099D02*
X010560Y004099D01*
X010678Y004151D02*
X011218Y004151D01*
X011428Y003941D01*
X010678Y004151D02*
X010168Y004661D01*
X010018Y004661D01*
X009147Y005094D02*
X008843Y005094D01*
X008843Y005036D02*
X009084Y005036D01*
X008843Y005153D02*
X009350Y005153D01*
X009409Y005211D02*
X008843Y005211D01*
X008843Y005270D02*
X009754Y005270D01*
X009695Y005328D02*
X008843Y005328D01*
X008817Y005387D02*
X009637Y005387D01*
X009578Y005446D02*
X009112Y005446D01*
X009171Y005504D02*
X009564Y005504D01*
X009564Y005563D02*
X009229Y005563D01*
X008308Y005651D02*
X008188Y005531D01*
X008188Y005051D01*
X008182Y005057D01*
X008182Y005068D01*
X007553Y004743D02*
X007531Y004743D01*
X007297Y004743D02*
X007275Y004743D01*
X007041Y004743D02*
X007019Y004743D01*
X006568Y004571D02*
X006568Y005051D01*
X006208Y004961D02*
X006028Y004781D01*
X006028Y004361D01*
X006088Y004301D01*
X006390Y004301D01*
X006390Y004557D02*
X006554Y004557D01*
X006568Y004571D01*
X005908Y005021D02*
X005848Y005081D01*
X005908Y005021D02*
X005908Y004121D01*
X005984Y004045D01*
X006390Y004045D01*
X005608Y003982D02*
X004095Y003982D01*
X004095Y003923D02*
X005608Y003923D01*
X005608Y003865D02*
X004095Y003865D01*
X004110Y003806D02*
X005608Y003806D01*
X005147Y003748D02*
X004795Y003748D01*
X004795Y003689D02*
X004801Y003689D01*
X005115Y003689D02*
X005130Y003689D01*
X005127Y003631D02*
X005130Y003631D01*
X004300Y003631D02*
X004135Y003631D01*
X004135Y003689D02*
X004300Y003689D01*
X004300Y003748D02*
X004135Y003748D01*
X004090Y004040D02*
X004330Y004040D01*
X004478Y004161D02*
X004543Y004226D01*
X004548Y004226D01*
X005413Y004226D01*
X005428Y004211D01*
X005423Y004206D01*
X005378Y004206D01*
X005130Y004099D02*
X004795Y004099D01*
X004765Y004040D02*
X005140Y004040D01*
X004478Y004161D02*
X003650Y004161D01*
X002578Y004450D02*
X002518Y004450D01*
X002518Y004509D02*
X002578Y004509D01*
X002578Y004567D02*
X002518Y004567D01*
X002518Y004626D02*
X002578Y004626D01*
X002578Y004684D02*
X002518Y004684D01*
X002518Y004743D02*
X002578Y004743D01*
X002578Y004744D02*
X002578Y004744D01*
X002578Y004802D02*
X002518Y004802D01*
X002518Y004860D02*
X002578Y004860D01*
X002578Y004919D02*
X002518Y004919D01*
X002518Y004977D02*
X002578Y004977D01*
X002578Y005036D02*
X002518Y005036D01*
X002518Y005094D02*
X002578Y005094D01*
X002518Y004744D02*
X002518Y004744D01*
X002629Y005914D02*
X002689Y005914D01*
X002689Y005972D02*
X002629Y005972D01*
X002629Y006031D02*
X002689Y006031D01*
X002689Y006089D02*
X002629Y006089D01*
X002629Y006148D02*
X002689Y006148D01*
X002629Y006205D02*
X002629Y006265D01*
X002254Y006324D02*
X002228Y006324D01*
X002228Y006382D02*
X002254Y006382D01*
X002254Y006441D02*
X002228Y006441D01*
X002228Y006499D02*
X002267Y006499D01*
X002294Y006558D02*
X002228Y006558D01*
X002228Y006616D02*
X002294Y006616D01*
X002294Y006675D02*
X002229Y006675D01*
X002238Y006733D02*
X002294Y006733D01*
X002294Y006792D02*
X002257Y006792D01*
X002291Y006851D02*
X002294Y006851D01*
X002659Y006787D02*
X002792Y006787D01*
X003088Y006491D01*
X002254Y006148D02*
X002228Y006148D01*
X002228Y006089D02*
X002254Y006089D01*
X002254Y006031D02*
X002228Y006031D01*
X002228Y005972D02*
X002266Y005972D01*
X002228Y005914D02*
X002324Y005914D01*
X005548Y004601D02*
X005573Y004626D01*
X005573Y004631D01*
X006902Y005068D02*
X006902Y005257D01*
X006440Y005563D02*
X005806Y005563D01*
X005862Y005621D02*
X005747Y005621D01*
X005689Y005680D02*
X005812Y005680D01*
X005812Y005738D02*
X005630Y005738D01*
X006257Y005621D02*
X006464Y005621D01*
X006518Y005680D02*
X006307Y005680D01*
X006307Y005738D02*
X006627Y005738D01*
X006568Y005797D02*
X006307Y005797D01*
X006307Y005855D02*
X006510Y005855D01*
X006327Y005914D02*
X006296Y005914D01*
X006260Y006792D02*
X006019Y006792D01*
X006077Y006851D02*
X006260Y006851D01*
X011492Y005621D02*
X011604Y005621D01*
X011604Y005563D02*
X011492Y005563D01*
X011492Y005504D02*
X011604Y005504D01*
X011635Y005446D02*
X011461Y005446D01*
X011471Y005387D02*
X011693Y005387D01*
X011752Y005328D02*
X011530Y005328D01*
X011589Y005270D02*
X011811Y005270D01*
X011647Y005211D02*
X013618Y005211D01*
X013618Y005270D02*
X013285Y005270D01*
X013344Y005328D02*
X013618Y005328D01*
X013618Y005387D02*
X013402Y005387D01*
X013461Y005446D02*
X013618Y005446D01*
X013618Y005504D02*
X013492Y005504D01*
X013492Y005563D02*
X013618Y005563D01*
X013618Y005621D02*
X013492Y005621D01*
X012848Y006089D02*
X012809Y006089D01*
X011548Y005141D02*
X011548Y004241D01*
X011674Y003396D02*
X011190Y003396D01*
X011205Y003338D02*
X011615Y003338D01*
X011557Y003279D02*
X011205Y003279D01*
X011205Y003221D02*
X011498Y003221D01*
X011440Y003162D02*
X011205Y003162D01*
X011205Y003104D02*
X011381Y003104D01*
X011323Y003045D02*
X011180Y003045D01*
X011264Y002987D02*
X009972Y002987D01*
X009913Y003045D02*
X010736Y003045D01*
X010710Y003104D02*
X010619Y003104D01*
X010287Y003104D02*
X009989Y003104D01*
X010031Y003162D02*
X010245Y003162D01*
X010245Y003221D02*
X010031Y003221D01*
X010031Y003279D02*
X010245Y003279D01*
X010453Y003341D02*
X010468Y003341D01*
X010528Y003281D01*
X010888Y003281D01*
X010943Y003226D01*
X010958Y003226D01*
X011205Y002928D02*
X010030Y002928D01*
X011554Y001874D02*
X011612Y001874D01*
X011612Y001816D02*
X011554Y001816D01*
X011554Y001757D02*
X011612Y001757D01*
X011612Y001699D02*
X011554Y001699D01*
X011554Y001640D02*
X011612Y001640D01*
X011831Y001640D02*
X011999Y001640D01*
X011940Y001699D02*
X011831Y001699D01*
X011831Y001757D02*
X011882Y001757D01*
X011831Y001523D02*
X013586Y001523D01*
X013550Y001465D02*
X011831Y001465D01*
X011831Y001406D02*
X013490Y001406D01*
X013355Y001347D02*
X011789Y001347D01*
X012863Y002161D02*
X013188Y002161D01*
X013528Y002501D01*
X013328Y002661D02*
X013528Y002861D01*
X013328Y002661D02*
X012863Y002661D01*
X012863Y003161D02*
X013498Y003161D01*
X013558Y003221D01*
X015328Y003221D02*
X015478Y003221D01*
X015748Y003491D01*
X016558Y003491D01*
X016858Y003191D01*
X016873Y003206D01*
X016888Y003206D01*
X016640Y003221D02*
X016017Y003221D01*
X016017Y003235D02*
X016275Y003235D01*
X016275Y003371D01*
X016508Y003371D01*
X016640Y003239D01*
X016640Y003124D01*
X016467Y003124D01*
X016467Y002905D01*
X016409Y002905D01*
X016409Y003124D01*
X016275Y003124D01*
X016275Y003177D01*
X016017Y003177D01*
X016017Y003235D01*
X016017Y003177D02*
X016017Y002958D01*
X016017Y002905D01*
X016150Y002905D01*
X016409Y002905D01*
X016409Y002847D01*
X016275Y002847D01*
X016017Y002847D01*
X016017Y002905D01*
X015959Y002905D01*
X015959Y003124D01*
X015959Y003177D01*
X016017Y003177D01*
X016017Y003162D02*
X015959Y003162D01*
X015959Y003177D02*
X015700Y003177D01*
X015700Y003048D01*
X015700Y002905D01*
X015959Y002905D01*
X015959Y002847D01*
X015700Y002847D01*
X015700Y002808D01*
X015528Y002981D01*
X015448Y002981D01*
X015520Y002981D01*
X015538Y002999D01*
X015538Y003111D01*
X015700Y003274D01*
X015700Y003235D01*
X015959Y003235D01*
X015959Y003177D01*
X015959Y003221D02*
X015647Y003221D01*
X015700Y003162D02*
X015589Y003162D01*
X015538Y003104D02*
X015700Y003104D01*
X015700Y003045D02*
X015538Y003045D01*
X015526Y002987D02*
X015700Y002987D01*
X015700Y002928D02*
X015580Y002928D01*
X015639Y002870D02*
X015959Y002870D01*
X016017Y002870D02*
X016409Y002870D01*
X016409Y002928D02*
X016467Y002928D01*
X016467Y002987D02*
X016409Y002987D01*
X016409Y003045D02*
X016467Y003045D01*
X016467Y003104D02*
X016409Y003104D01*
X016275Y003162D02*
X016640Y003162D01*
X016600Y003279D02*
X016275Y003279D01*
X016275Y003338D02*
X016541Y003338D01*
X016017Y003104D02*
X015959Y003104D01*
X015959Y003045D02*
X016017Y003045D01*
X016017Y002987D02*
X015959Y002987D01*
X015959Y002928D02*
X016017Y002928D01*
X015700Y002811D02*
X015697Y002811D01*
X015478Y002861D02*
X015748Y002591D01*
X016588Y002591D01*
X016888Y002891D01*
X016888Y002876D01*
X017503Y002518D02*
X017555Y002571D01*
X017555Y002628D01*
X017729Y002628D01*
X017729Y002847D01*
X017787Y002847D01*
X017787Y002905D01*
X018045Y002905D01*
X018045Y003034D01*
X018045Y003177D01*
X017787Y003177D01*
X017787Y003235D01*
X018045Y003235D01*
X018045Y003378D01*
X017969Y003454D01*
X017787Y003454D01*
X017787Y003235D01*
X017729Y003235D01*
X017729Y003454D01*
X017555Y003454D01*
X017555Y003511D01*
X017503Y003564D01*
X017329Y003564D01*
X017272Y003621D01*
X017132Y003621D01*
X017175Y003664D01*
X017175Y003807D01*
X016917Y003807D01*
X016917Y003865D01*
X017175Y003865D01*
X017175Y004001D01*
X017408Y004001D01*
X017510Y003899D01*
X017510Y003681D01*
X017563Y003628D01*
X017953Y003628D01*
X018005Y003681D01*
X018005Y003991D01*
X017953Y004044D01*
X017704Y004044D01*
X017567Y004181D01*
X017653Y004181D01*
X017802Y004181D01*
X017908Y004286D01*
X017908Y004421D01*
X018193Y004421D01*
X018225Y004421D01*
X018268Y004421D01*
X018276Y004420D01*
X018291Y004416D01*
X018304Y004409D01*
X018315Y004397D01*
X018323Y004384D01*
X018327Y004369D01*
X018328Y004361D01*
X018328Y001797D01*
X018328Y001781D01*
X018328Y001723D01*
X018327Y001715D01*
X018323Y001699D01*
X018315Y001685D01*
X018304Y001674D01*
X018290Y001666D01*
X018274Y001661D01*
X018266Y001661D01*
X017908Y001661D01*
X017908Y001795D01*
X017802Y001901D01*
X017537Y001901D01*
X017674Y002038D01*
X017953Y002038D01*
X018005Y002091D01*
X018005Y002401D01*
X018328Y002401D01*
X018328Y002343D02*
X018005Y002343D01*
X018005Y002401D02*
X017953Y002454D01*
X017563Y002454D01*
X017510Y002401D01*
X017175Y002401D01*
X017175Y002418D02*
X017157Y002436D01*
X017239Y002518D01*
X017503Y002518D01*
X018328Y002518D01*
X018328Y002460D02*
X017181Y002460D01*
X017175Y002418D02*
X017175Y002275D01*
X016917Y002275D01*
X016917Y002217D01*
X017175Y002217D01*
X017175Y002081D01*
X017378Y002081D01*
X017510Y002213D01*
X017510Y002401D01*
X017510Y002343D02*
X017175Y002343D01*
X017175Y002284D02*
X017510Y002284D01*
X017510Y002226D02*
X016917Y002226D01*
X017175Y002167D02*
X017464Y002167D01*
X017406Y002109D02*
X017175Y002109D01*
X017428Y001961D02*
X016768Y001961D01*
X016528Y001721D01*
X015748Y001721D01*
X015508Y001961D01*
X015508Y002321D01*
X015328Y002501D01*
X015988Y002246D02*
X015988Y001991D01*
X017428Y001961D02*
X017728Y002261D01*
X017743Y002246D01*
X017758Y002246D01*
X018005Y002226D02*
X018328Y002226D01*
X018328Y002284D02*
X018005Y002284D01*
X018005Y002167D02*
X018328Y002167D01*
X018328Y002109D02*
X018005Y002109D01*
X017965Y002050D02*
X018328Y002050D01*
X018328Y001991D02*
X017628Y001991D01*
X017569Y001933D02*
X018328Y001933D01*
X018328Y001874D02*
X017829Y001874D01*
X017887Y001816D02*
X018328Y001816D01*
X018328Y001757D02*
X017908Y001757D01*
X017908Y001699D02*
X018323Y001699D01*
X018328Y002577D02*
X017555Y002577D01*
X017729Y002635D02*
X017787Y002635D01*
X017787Y002628D02*
X017969Y002628D01*
X018045Y002704D01*
X018045Y002847D01*
X017787Y002847D01*
X017787Y002628D01*
X017787Y002694D02*
X017729Y002694D01*
X017729Y002753D02*
X017787Y002753D01*
X017787Y002811D02*
X017729Y002811D01*
X017787Y002870D02*
X018328Y002870D01*
X018328Y002928D02*
X018045Y002928D01*
X018045Y002987D02*
X018328Y002987D01*
X018328Y003045D02*
X018045Y003045D01*
X018045Y003104D02*
X018328Y003104D01*
X018328Y003162D02*
X018045Y003162D01*
X018045Y003279D02*
X018328Y003279D01*
X018328Y003221D02*
X017787Y003221D01*
X017787Y003177D02*
X017787Y002958D01*
X017787Y002905D01*
X017729Y002905D01*
X017729Y002958D01*
X017729Y003177D01*
X017787Y003177D01*
X017787Y003162D02*
X017729Y003162D01*
X017729Y003104D02*
X017787Y003104D01*
X017787Y003045D02*
X017729Y003045D01*
X017729Y002987D02*
X017787Y002987D01*
X017787Y002928D02*
X017729Y002928D01*
X018045Y002811D02*
X018328Y002811D01*
X018328Y002753D02*
X018045Y002753D01*
X018035Y002694D02*
X018328Y002694D01*
X018328Y002635D02*
X017977Y002635D01*
X017787Y003279D02*
X017729Y003279D01*
X017729Y003338D02*
X017787Y003338D01*
X017787Y003396D02*
X017729Y003396D01*
X017555Y003455D02*
X018328Y003455D01*
X018328Y003396D02*
X018027Y003396D01*
X018045Y003338D02*
X018328Y003338D01*
X018328Y003514D02*
X017553Y003514D01*
X017320Y003572D02*
X018328Y003572D01*
X018328Y003631D02*
X017955Y003631D01*
X018005Y003689D02*
X018328Y003689D01*
X018328Y003748D02*
X018005Y003748D01*
X018005Y003806D02*
X018328Y003806D01*
X018328Y003865D02*
X018005Y003865D01*
X018005Y003923D02*
X018328Y003923D01*
X018328Y003982D02*
X018005Y003982D01*
X017956Y004040D02*
X018328Y004040D01*
X018328Y004099D02*
X017649Y004099D01*
X017591Y004158D02*
X018328Y004158D01*
X018328Y004216D02*
X017838Y004216D01*
X017896Y004275D02*
X018328Y004275D01*
X018328Y004333D02*
X017908Y004333D01*
X017908Y004392D02*
X018319Y004392D01*
X017758Y003821D02*
X017458Y004121D01*
X016888Y004121D01*
X016648Y004361D01*
X015808Y004361D01*
X015628Y004181D01*
X015628Y003881D01*
X015328Y003581D01*
X016242Y003861D02*
X016298Y003917D01*
X016298Y003933D01*
X016359Y003993D01*
X016393Y004076D01*
X016393Y004166D01*
X016362Y004241D01*
X016598Y004241D01*
X016755Y004084D01*
X016677Y004084D01*
X016600Y004008D01*
X016600Y003865D01*
X016859Y003865D01*
X016246Y003865D01*
X016242Y003861D02*
X016582Y003861D01*
X016636Y003807D01*
X016859Y003807D01*
X016859Y003865D01*
X016917Y003865D02*
X017510Y003865D01*
X017510Y003806D02*
X017175Y003806D01*
X017175Y003748D02*
X017510Y003748D01*
X017510Y003689D02*
X017175Y003689D01*
X017142Y003631D02*
X017560Y003631D01*
X017758Y003821D02*
X017758Y003836D01*
X017486Y003923D02*
X017175Y003923D01*
X017175Y003982D02*
X017427Y003982D01*
X016740Y004099D02*
X016393Y004099D01*
X016393Y004158D02*
X016682Y004158D01*
X016623Y004216D02*
X016372Y004216D01*
X016378Y004040D02*
X016633Y004040D01*
X016600Y003982D02*
X016347Y003982D01*
X016298Y003923D02*
X016600Y003923D01*
X015448Y002981D02*
X015448Y002981D01*
X015478Y002861D02*
X015328Y002861D01*
X006743Y003221D02*
X006736Y003221D01*
X006736Y003279D02*
X006743Y003279D01*
X006736Y003338D02*
X006743Y003338D01*
X006743Y003396D02*
X006713Y003396D01*
X006736Y003455D02*
X006743Y003455D01*
X006390Y003021D02*
X005078Y003021D01*
X004584Y002527D01*
X004584Y002459D01*
X005133Y002694D02*
X005203Y002694D01*
X005096Y002870D02*
X006053Y002870D01*
X004991Y003104D02*
X004275Y003104D01*
X004244Y003045D02*
X004932Y003045D01*
X004874Y002987D02*
X004185Y002987D01*
X004127Y002928D02*
X004815Y002928D01*
X003759Y002928D02*
X003699Y002928D01*
X003699Y002987D02*
X003759Y002987D01*
X003759Y003045D02*
X003699Y003045D01*
X003699Y003104D02*
X003759Y003104D01*
X002578Y003104D02*
X002518Y003104D01*
X002518Y003045D02*
X002578Y003045D01*
X002578Y002987D02*
X002518Y002987D01*
X002518Y002928D02*
X002578Y002928D01*
X002578Y002870D02*
X002518Y002870D01*
X002518Y002811D02*
X002578Y002811D01*
X002578Y002753D02*
X002518Y002753D01*
X004662Y001874D02*
X004858Y001874D01*
X004858Y001816D02*
X004662Y001816D01*
X004662Y001757D02*
X004858Y001757D01*
X004858Y001699D02*
X004662Y001699D01*
X004616Y001640D02*
X004817Y001640D01*
X004759Y001582D02*
X004622Y001582D01*
X004622Y001523D02*
X004700Y001523D01*
X004288Y001391D02*
X004282Y001385D01*
X004257Y001385D01*
X003268Y001691D02*
X002962Y001385D01*
X002839Y001385D01*
D26*
X004978Y002531D03*
X005728Y002561D03*
X006508Y002351D03*
X006268Y002081D03*
X007348Y001661D03*
X010588Y001991D03*
X010888Y001991D03*
X013408Y001961D03*
X015988Y001991D03*
X018148Y003041D03*
X016378Y003191D03*
X016528Y004031D03*
X016168Y004121D03*
X013528Y004241D03*
X013198Y003941D03*
X012568Y004241D03*
X011548Y004241D03*
X010138Y003761D03*
X011578Y003581D03*
X009268Y004901D03*
X008308Y005651D03*
X006658Y005501D03*
X005848Y005081D03*
X006208Y004961D03*
X005908Y006191D03*
X006538Y006461D03*
X005608Y006551D03*
X004648Y006371D03*
X004588Y006821D03*
X009808Y006641D03*
X010168Y006641D03*
X010528Y006641D03*
X008298Y003661D03*
X007798Y003661D03*
X007298Y003661D03*
X007298Y003161D03*
X007798Y003161D03*
X008298Y003161D03*
D27*
X013528Y002861D02*
X015328Y002861D01*
X015328Y002501D02*
X013528Y002501D01*
X013558Y003221D02*
X015328Y003221D01*
X015328Y003581D02*
X013618Y003581D01*
D28*
X015988Y003821D02*
X016078Y003731D01*
X016528Y003731D01*
X016768Y003491D01*
X017218Y003491D01*
X017308Y003401D01*
X017308Y003356D01*
X017278Y002741D02*
X017098Y002561D01*
X016768Y002561D01*
X016468Y002261D01*
X016423Y002246D01*
X015988Y002246D01*
X016438Y002246D02*
X016468Y002261D01*
X017278Y002741D02*
X017293Y002726D01*
X017308Y002726D01*
X016168Y003971D02*
X016033Y003836D01*
X015988Y003836D01*
X015988Y003821D01*
X016168Y003971D02*
X016168Y004121D01*
X009838Y003821D02*
X009823Y003806D01*
X009806Y003789D01*
X009205Y003789D01*
X009823Y003806D02*
X009823Y003791D01*
X007414Y005068D02*
X007414Y005555D01*
X007288Y005681D01*
X006868Y005681D01*
X006628Y005921D01*
X006628Y006101D01*
X006623Y006096D01*
X006548Y006096D01*
X006513Y006096D01*
X006388Y006221D01*
X006358Y006281D01*
X006104Y006535D01*
X006060Y006535D01*
M02*
