G75*
G70*
%OFA0B0*%
%FSLAX24Y24*%
%IPPOS*%
%LPD*%
%AMOC8*
5,1,8,0,0,1.08239X$1,22.5*
%
%ADD10C,0.0000*%
%ADD11C,0.0040*%
%ADD12C,0.0030*%
D10*
X002548Y001161D02*
X013298Y001161D01*
X013342Y001163D01*
X013385Y001169D01*
X013427Y001178D01*
X013469Y001191D01*
X013509Y001208D01*
X013548Y001228D01*
X013585Y001251D01*
X013619Y001278D01*
X013652Y001307D01*
X013681Y001340D01*
X013708Y001374D01*
X013731Y001411D01*
X013751Y001450D01*
X013768Y001490D01*
X013781Y001532D01*
X013790Y001574D01*
X013796Y001617D01*
X013798Y001661D01*
X013798Y002081D01*
X013800Y002110D01*
X013805Y002138D01*
X013814Y002166D01*
X013825Y002193D01*
X013840Y002217D01*
X013858Y002240D01*
X013879Y002261D01*
X013902Y002279D01*
X013926Y002294D01*
X013953Y002305D01*
X013981Y002314D01*
X014009Y002319D01*
X014038Y002321D01*
X014968Y002321D01*
X014997Y002319D01*
X015025Y002314D01*
X015053Y002305D01*
X015080Y002294D01*
X015104Y002279D01*
X015127Y002261D01*
X015148Y002240D01*
X015166Y002217D01*
X015181Y002193D01*
X015192Y002166D01*
X015201Y002138D01*
X015206Y002110D01*
X015208Y002081D01*
X015208Y001721D01*
X015210Y001692D01*
X015215Y001664D01*
X015224Y001636D01*
X015235Y001609D01*
X015250Y001585D01*
X015268Y001562D01*
X015289Y001541D01*
X015312Y001523D01*
X015336Y001508D01*
X015363Y001497D01*
X015391Y001488D01*
X015419Y001483D01*
X015448Y001481D01*
X016888Y001481D01*
X016888Y001721D01*
X017728Y001721D01*
X017728Y001481D01*
X018266Y001481D01*
X018295Y001483D01*
X018324Y001488D01*
X018352Y001497D01*
X018378Y001509D01*
X018403Y001524D01*
X018426Y001542D01*
X018447Y001563D01*
X018465Y001586D01*
X018480Y001611D01*
X018492Y001637D01*
X018501Y001665D01*
X018506Y001694D01*
X018508Y001723D01*
X018508Y004361D01*
X018506Y004390D01*
X018501Y004418D01*
X018492Y004446D01*
X018481Y004473D01*
X018466Y004497D01*
X018448Y004520D01*
X018427Y004541D01*
X018404Y004559D01*
X018380Y004574D01*
X018353Y004585D01*
X018325Y004594D01*
X018297Y004599D01*
X018268Y004601D01*
X017728Y004601D01*
X017728Y004361D01*
X016888Y004361D01*
X016888Y004601D01*
X015448Y004601D01*
X015419Y004599D01*
X015391Y004594D01*
X015363Y004585D01*
X015336Y004574D01*
X015312Y004559D01*
X015289Y004541D01*
X015268Y004520D01*
X015250Y004497D01*
X015235Y004473D01*
X015224Y004446D01*
X015215Y004418D01*
X015210Y004390D01*
X015208Y004361D01*
X015208Y004001D01*
X015206Y003972D01*
X015201Y003944D01*
X015192Y003916D01*
X015181Y003889D01*
X015166Y003865D01*
X015148Y003842D01*
X015127Y003821D01*
X015104Y003803D01*
X015080Y003788D01*
X015053Y003777D01*
X015025Y003768D01*
X014997Y003763D01*
X014968Y003761D01*
X014068Y003761D01*
X014423Y003761D02*
X014425Y003777D01*
X014431Y003792D01*
X014441Y003805D01*
X014453Y003816D01*
X014468Y003823D01*
X014484Y003826D01*
X014500Y003825D01*
X014516Y003820D01*
X014529Y003811D01*
X014541Y003799D01*
X014548Y003785D01*
X014552Y003769D01*
X014552Y003753D01*
X014548Y003737D01*
X014541Y003723D01*
X014529Y003711D01*
X014516Y003702D01*
X014500Y003697D01*
X014484Y003696D01*
X014468Y003699D01*
X014453Y003706D01*
X014441Y003717D01*
X014431Y003730D01*
X014425Y003745D01*
X014423Y003761D01*
X014068Y003761D02*
X014035Y003763D01*
X014003Y003769D01*
X013972Y003779D01*
X013943Y003792D01*
X013915Y003809D01*
X013889Y003829D01*
X013866Y003852D01*
X013846Y003878D01*
X013829Y003906D01*
X013816Y003935D01*
X013806Y003966D01*
X013800Y003998D01*
X013798Y004031D01*
X013798Y006661D01*
X013796Y006705D01*
X013790Y006748D01*
X013781Y006790D01*
X013768Y006832D01*
X013751Y006872D01*
X013731Y006911D01*
X013708Y006948D01*
X013681Y006982D01*
X013652Y007015D01*
X013619Y007044D01*
X013585Y007071D01*
X013548Y007094D01*
X013509Y007114D01*
X013469Y007131D01*
X013427Y007144D01*
X013385Y007153D01*
X013342Y007159D01*
X013298Y007161D01*
X002548Y007161D01*
X003230Y006865D02*
X003232Y006889D01*
X003238Y006912D01*
X003248Y006934D01*
X003262Y006954D01*
X003279Y006971D01*
X003299Y006985D01*
X003321Y006995D01*
X003344Y007001D01*
X003368Y007003D01*
X003392Y007001D01*
X003415Y006995D01*
X003437Y006985D01*
X003457Y006971D01*
X003474Y006954D01*
X003488Y006934D01*
X003498Y006912D01*
X003504Y006889D01*
X003506Y006865D01*
X003504Y006841D01*
X003498Y006818D01*
X003488Y006796D01*
X003474Y006776D01*
X003457Y006759D01*
X003437Y006745D01*
X003415Y006735D01*
X003392Y006729D01*
X003368Y006727D01*
X003344Y006729D01*
X003321Y006735D01*
X003299Y006745D01*
X003279Y006759D01*
X003262Y006776D01*
X003248Y006796D01*
X003238Y006818D01*
X003232Y006841D01*
X003230Y006865D01*
X002548Y007161D02*
X002504Y007159D01*
X002461Y007153D01*
X002419Y007144D01*
X002377Y007131D01*
X002337Y007114D01*
X002298Y007094D01*
X002261Y007071D01*
X002227Y007044D01*
X002194Y007015D01*
X002165Y006982D01*
X002138Y006948D01*
X002115Y006911D01*
X002095Y006872D01*
X002078Y006832D01*
X002065Y006790D01*
X002056Y006748D01*
X002050Y006705D01*
X002048Y006661D01*
X002048Y001661D01*
X002050Y001617D01*
X002056Y001574D01*
X002065Y001532D01*
X002078Y001490D01*
X002095Y001450D01*
X002115Y001411D01*
X002138Y001374D01*
X002165Y001340D01*
X002194Y001307D01*
X002227Y001278D01*
X002261Y001251D01*
X002298Y001228D01*
X002337Y001208D01*
X002377Y001191D01*
X002419Y001178D01*
X002461Y001169D01*
X002504Y001163D01*
X002548Y001161D01*
X003410Y001307D02*
X003412Y001331D01*
X003418Y001354D01*
X003428Y001376D01*
X003442Y001396D01*
X003459Y001413D01*
X003479Y001427D01*
X003501Y001437D01*
X003524Y001443D01*
X003548Y001445D01*
X003572Y001443D01*
X003595Y001437D01*
X003617Y001427D01*
X003637Y001413D01*
X003654Y001396D01*
X003668Y001376D01*
X003678Y001354D01*
X003684Y001331D01*
X003686Y001307D01*
X003684Y001283D01*
X003678Y001260D01*
X003668Y001238D01*
X003654Y001218D01*
X003637Y001201D01*
X003617Y001187D01*
X003595Y001177D01*
X003572Y001171D01*
X003548Y001169D01*
X003524Y001171D01*
X003501Y001177D01*
X003479Y001187D01*
X003459Y001201D01*
X003442Y001218D01*
X003428Y001238D01*
X003418Y001260D01*
X003412Y001283D01*
X003410Y001307D01*
X003410Y002015D02*
X003412Y002039D01*
X003418Y002062D01*
X003428Y002084D01*
X003442Y002104D01*
X003459Y002121D01*
X003479Y002135D01*
X003501Y002145D01*
X003524Y002151D01*
X003548Y002153D01*
X003572Y002151D01*
X003595Y002145D01*
X003617Y002135D01*
X003637Y002121D01*
X003654Y002104D01*
X003668Y002084D01*
X003678Y002062D01*
X003684Y002039D01*
X003686Y002015D01*
X003684Y001991D01*
X003678Y001968D01*
X003668Y001946D01*
X003654Y001926D01*
X003637Y001909D01*
X003617Y001895D01*
X003595Y001885D01*
X003572Y001879D01*
X003548Y001877D01*
X003524Y001879D01*
X003501Y001885D01*
X003479Y001895D01*
X003459Y001909D01*
X003442Y001926D01*
X003428Y001946D01*
X003418Y001968D01*
X003412Y001991D01*
X003410Y002015D01*
X003230Y006157D02*
X003232Y006181D01*
X003238Y006204D01*
X003248Y006226D01*
X003262Y006246D01*
X003279Y006263D01*
X003299Y006277D01*
X003321Y006287D01*
X003344Y006293D01*
X003368Y006295D01*
X003392Y006293D01*
X003415Y006287D01*
X003437Y006277D01*
X003457Y006263D01*
X003474Y006246D01*
X003488Y006226D01*
X003498Y006204D01*
X003504Y006181D01*
X003506Y006157D01*
X003504Y006133D01*
X003498Y006110D01*
X003488Y006088D01*
X003474Y006068D01*
X003457Y006051D01*
X003437Y006037D01*
X003415Y006027D01*
X003392Y006021D01*
X003368Y006019D01*
X003344Y006021D01*
X003321Y006027D01*
X003299Y006037D01*
X003279Y006051D01*
X003262Y006068D01*
X003248Y006088D01*
X003238Y006110D01*
X003232Y006133D01*
X003230Y006157D01*
X014423Y003401D02*
X014425Y003417D01*
X014431Y003432D01*
X014441Y003445D01*
X014453Y003456D01*
X014468Y003463D01*
X014484Y003466D01*
X014500Y003465D01*
X014516Y003460D01*
X014529Y003451D01*
X014541Y003439D01*
X014548Y003425D01*
X014552Y003409D01*
X014552Y003393D01*
X014548Y003377D01*
X014541Y003363D01*
X014529Y003351D01*
X014516Y003342D01*
X014500Y003337D01*
X014484Y003336D01*
X014468Y003339D01*
X014453Y003346D01*
X014441Y003357D01*
X014431Y003370D01*
X014425Y003385D01*
X014423Y003401D01*
X014423Y003041D02*
X014425Y003057D01*
X014431Y003072D01*
X014441Y003085D01*
X014453Y003096D01*
X014468Y003103D01*
X014484Y003106D01*
X014500Y003105D01*
X014516Y003100D01*
X014529Y003091D01*
X014541Y003079D01*
X014548Y003065D01*
X014552Y003049D01*
X014552Y003033D01*
X014548Y003017D01*
X014541Y003003D01*
X014529Y002991D01*
X014516Y002982D01*
X014500Y002977D01*
X014484Y002976D01*
X014468Y002979D01*
X014453Y002986D01*
X014441Y002997D01*
X014431Y003010D01*
X014425Y003025D01*
X014423Y003041D01*
X014423Y002681D02*
X014425Y002697D01*
X014431Y002712D01*
X014441Y002725D01*
X014453Y002736D01*
X014468Y002743D01*
X014484Y002746D01*
X014500Y002745D01*
X014516Y002740D01*
X014529Y002731D01*
X014541Y002719D01*
X014548Y002705D01*
X014552Y002689D01*
X014552Y002673D01*
X014548Y002657D01*
X014541Y002643D01*
X014529Y002631D01*
X014516Y002622D01*
X014500Y002617D01*
X014484Y002616D01*
X014468Y002619D01*
X014453Y002626D01*
X014441Y002637D01*
X014431Y002650D01*
X014425Y002665D01*
X014423Y002681D01*
X014423Y002321D02*
X014425Y002337D01*
X014431Y002352D01*
X014441Y002365D01*
X014453Y002376D01*
X014468Y002383D01*
X014484Y002386D01*
X014500Y002385D01*
X014516Y002380D01*
X014529Y002371D01*
X014541Y002359D01*
X014548Y002345D01*
X014552Y002329D01*
X014552Y002313D01*
X014548Y002297D01*
X014541Y002283D01*
X014529Y002271D01*
X014516Y002262D01*
X014500Y002257D01*
X014484Y002256D01*
X014468Y002259D01*
X014453Y002266D01*
X014441Y002277D01*
X014431Y002290D01*
X014425Y002305D01*
X014423Y002321D01*
D11*
X012248Y002301D02*
X012171Y002378D01*
X011941Y002378D01*
X011788Y002301D02*
X011788Y002148D01*
X011711Y002071D01*
X011481Y002071D01*
X011481Y001994D02*
X011481Y002378D01*
X011711Y002378D01*
X011788Y002301D01*
X011941Y002148D02*
X012018Y002224D01*
X012171Y002224D01*
X012248Y002301D01*
X012248Y002071D02*
X012018Y002071D01*
X011941Y002148D01*
X011557Y001918D02*
X011481Y001994D01*
X011557Y001918D02*
X011634Y001918D01*
X011327Y002071D02*
X011097Y002071D01*
X011020Y002148D01*
X011097Y002224D01*
X011250Y002224D01*
X011327Y002301D01*
X011250Y002378D01*
X011020Y002378D01*
X010867Y002378D02*
X010713Y002378D01*
X010790Y002455D02*
X010790Y002148D01*
X010713Y002071D01*
X010560Y002148D02*
X010483Y002224D01*
X010253Y002224D01*
X010253Y002301D02*
X010253Y002071D01*
X010483Y002071D01*
X010560Y002148D01*
X010483Y002378D02*
X010330Y002378D01*
X010253Y002301D01*
X010100Y002378D02*
X010023Y002378D01*
X010023Y002071D01*
X010100Y002071D02*
X009946Y002071D01*
X009793Y002071D02*
X009793Y002378D01*
X009793Y002224D02*
X009639Y002378D01*
X009563Y002378D01*
X009409Y002455D02*
X009332Y002531D01*
X009179Y002531D01*
X009102Y002455D01*
X009102Y002301D01*
X009179Y002224D01*
X009179Y002378D01*
X009332Y002378D01*
X009332Y002224D01*
X009179Y002224D01*
X009102Y002148D02*
X009179Y002071D01*
X009332Y002071D01*
X009409Y002148D01*
X009409Y002455D01*
X008872Y002378D02*
X008719Y002378D01*
X008642Y002301D01*
X008642Y002071D01*
X008872Y002071D01*
X008949Y002148D01*
X008872Y002224D01*
X008642Y002224D01*
X008488Y002224D02*
X008258Y002378D01*
X008105Y002531D02*
X008105Y002071D01*
X008258Y002071D02*
X008488Y002224D01*
X008488Y002071D02*
X008488Y002531D01*
X008105Y002224D02*
X007875Y002378D01*
X007721Y002378D02*
X007644Y002378D01*
X007644Y002071D01*
X007568Y002071D02*
X007721Y002071D01*
X007875Y002071D02*
X008105Y002224D01*
X007414Y002378D02*
X007261Y002378D01*
X007338Y002455D02*
X007338Y002148D01*
X007261Y002071D01*
X007107Y002071D02*
X007107Y002148D01*
X007031Y002148D01*
X007031Y002071D01*
X007107Y002071D01*
X006877Y002148D02*
X006800Y002071D01*
X006647Y002071D01*
X006570Y002148D01*
X006570Y002301D01*
X006647Y002378D01*
X006800Y002378D01*
X006877Y002301D01*
X006877Y002148D01*
X006417Y002224D02*
X006263Y002378D01*
X006187Y002378D01*
X006033Y002301D02*
X006033Y002148D01*
X005956Y002071D01*
X005726Y002071D01*
X005726Y001994D02*
X005726Y002378D01*
X005956Y002378D01*
X006033Y002301D01*
X006417Y002378D02*
X006417Y002071D01*
X005880Y001918D02*
X005803Y001918D01*
X005726Y001994D01*
X005726Y001811D02*
X005726Y001351D01*
X005573Y001351D02*
X005880Y001351D01*
X006187Y001351D02*
X006033Y001658D01*
X005880Y001658D02*
X005726Y001811D01*
X006340Y001658D02*
X006187Y001351D01*
X006494Y001504D02*
X006800Y001504D01*
X006800Y001428D02*
X006800Y001581D01*
X006724Y001658D01*
X006570Y001658D01*
X006494Y001581D01*
X006494Y001504D01*
X006570Y001351D02*
X006724Y001351D01*
X006800Y001428D01*
X007031Y001658D02*
X007184Y001504D01*
X007184Y001351D02*
X007184Y001658D01*
X007031Y001658D02*
X006954Y001658D01*
X007337Y001274D02*
X007644Y001274D01*
X008028Y001351D02*
X008028Y001658D01*
X007875Y001658D02*
X007798Y001658D01*
X007875Y001658D02*
X008028Y001504D01*
X008181Y001428D02*
X008181Y001581D01*
X008258Y001658D01*
X008412Y001658D01*
X008488Y001581D01*
X008488Y001428D01*
X008412Y001351D01*
X008258Y001351D01*
X008181Y001428D01*
X008642Y001351D02*
X008719Y001428D01*
X008719Y001735D01*
X008795Y001658D02*
X008642Y001658D01*
X009025Y001658D02*
X009025Y001351D01*
X008949Y001351D02*
X009102Y001351D01*
X009256Y001351D02*
X009256Y001581D01*
X009332Y001658D01*
X009562Y001658D01*
X009562Y001351D01*
X009716Y001428D02*
X009716Y001581D01*
X009793Y001658D01*
X009946Y001658D01*
X010023Y001581D01*
X010023Y001428D01*
X009946Y001351D01*
X009793Y001351D01*
X009716Y001428D01*
X010176Y001351D02*
X010176Y001581D01*
X010253Y001658D01*
X010330Y001581D01*
X010330Y001351D01*
X010483Y001351D02*
X010483Y001658D01*
X010406Y001658D01*
X010330Y001581D01*
X010637Y001274D02*
X010944Y001274D01*
X011250Y001351D02*
X011097Y001658D01*
X011404Y001658D02*
X011250Y001351D01*
X011634Y001658D02*
X011788Y001504D01*
X011941Y001581D02*
X011941Y001351D01*
X011788Y001351D02*
X011788Y001658D01*
X011634Y001658D02*
X011557Y001658D01*
X011941Y001581D02*
X012018Y001658D01*
X012171Y001658D01*
X012248Y001581D01*
X012248Y001811D02*
X012248Y001351D01*
X010023Y002531D02*
X010023Y002608D01*
X009025Y001888D02*
X009025Y001811D01*
X009025Y001658D02*
X009102Y001658D01*
X007644Y002531D02*
X007644Y002608D01*
X003403Y003392D02*
X003020Y003392D01*
X002943Y003468D01*
X002943Y003622D01*
X003020Y003699D01*
X003403Y003699D01*
X003327Y003852D02*
X003250Y003852D01*
X003173Y003929D01*
X003173Y004082D01*
X003096Y004159D01*
X003020Y004159D01*
X002943Y004082D01*
X002943Y003929D01*
X003020Y003852D01*
X003327Y003852D02*
X003403Y003929D01*
X003403Y004082D01*
X003327Y004159D01*
X003403Y004312D02*
X002943Y004312D01*
X002943Y004543D01*
X003020Y004619D01*
X003096Y004619D01*
X003173Y004543D01*
X003173Y004312D01*
X003403Y004312D02*
X003403Y004543D01*
X003327Y004619D01*
X003250Y004619D01*
X003173Y004543D01*
X003250Y004773D02*
X003403Y004926D01*
X002943Y004926D01*
X002943Y004773D02*
X002943Y005080D01*
D12*
X004011Y006403D02*
X003963Y006452D01*
X003963Y006548D01*
X004060Y006548D01*
X004156Y006452D02*
X004108Y006403D01*
X004011Y006403D01*
X004156Y006452D02*
X004156Y006645D01*
X004108Y006694D01*
X004011Y006694D01*
X003963Y006645D01*
X004258Y006645D02*
X004306Y006694D01*
X004403Y006694D01*
X004451Y006645D01*
X004451Y006452D01*
X004403Y006403D01*
X004306Y006403D01*
X004258Y006452D01*
X004258Y006645D01*
X004552Y006645D02*
X004552Y006548D01*
X004601Y006500D01*
X004746Y006500D01*
X004746Y006403D02*
X004746Y006694D01*
X004601Y006694D01*
X004552Y006645D01*
X004649Y006500D02*
X004552Y006403D01*
X004847Y006548D02*
X004895Y006500D01*
X005040Y006500D01*
X005040Y006403D02*
X005040Y006694D01*
X004895Y006694D01*
X004847Y006645D01*
X004847Y006548D01*
X009539Y006448D02*
X009539Y006201D01*
X009601Y006139D01*
X009786Y006139D01*
X009786Y006509D01*
X009601Y006509D01*
X009539Y006448D01*
X009907Y006509D02*
X009907Y006139D01*
X010154Y006509D01*
X010154Y006139D01*
X010275Y006201D02*
X010275Y006324D01*
X010399Y006324D01*
X010522Y006201D02*
X010461Y006139D01*
X010337Y006139D01*
X010275Y006201D01*
X010522Y006201D02*
X010522Y006448D01*
X010461Y006509D01*
X010337Y006509D01*
X010275Y006448D01*
X010334Y006679D02*
X010457Y006679D01*
X010396Y006679D02*
X010396Y007049D01*
X010457Y007049D02*
X010334Y007049D01*
X010579Y006988D02*
X010641Y007049D01*
X010764Y007049D01*
X010826Y006988D01*
X010826Y006926D01*
X010764Y006864D01*
X010641Y006864D01*
X010579Y006803D01*
X010579Y006741D01*
X010641Y006679D01*
X010764Y006679D01*
X010826Y006741D01*
X010947Y006741D02*
X010947Y006988D01*
X011009Y007049D01*
X011132Y007049D01*
X011194Y006988D01*
X011194Y006741D01*
X011132Y006679D01*
X011009Y006679D01*
X010947Y006741D01*
X011315Y006679D02*
X011315Y007049D01*
X011439Y006926D01*
X011562Y007049D01*
X011562Y006679D01*
X011541Y006549D02*
X011541Y006179D01*
X011664Y006179D02*
X011664Y006549D01*
X011847Y006488D02*
X011909Y006549D01*
X012032Y006549D01*
X012094Y006488D01*
X012094Y006426D01*
X012032Y006364D01*
X011909Y006364D01*
X011847Y006303D01*
X011847Y006241D01*
X011909Y006179D01*
X012032Y006179D01*
X012094Y006241D01*
X012215Y006241D02*
X012277Y006179D01*
X012401Y006179D01*
X012462Y006241D01*
X012462Y006488D01*
X012401Y006549D01*
X012277Y006549D01*
X012215Y006488D01*
X012529Y006639D02*
X012529Y006886D01*
X012652Y007009D01*
X012776Y006886D01*
X012776Y006639D01*
X012897Y006701D02*
X012897Y006948D01*
X012959Y007009D01*
X013144Y007009D01*
X013144Y006639D01*
X012959Y006639D01*
X012897Y006701D01*
X012776Y006824D02*
X012529Y006824D01*
X013265Y006763D02*
X013265Y006701D01*
X013327Y006639D01*
X013451Y006639D01*
X013512Y006701D01*
X013451Y006824D02*
X013327Y006824D01*
X013265Y006763D01*
X013451Y006824D02*
X013512Y006886D01*
X013512Y006948D01*
X013451Y007009D01*
X013327Y007009D01*
X013265Y006948D01*
X011726Y006426D02*
X011541Y006426D01*
X011479Y006426D01*
X011479Y006303D02*
X011726Y006303D01*
X009988Y004054D02*
X009927Y004054D01*
X009865Y003992D01*
X009803Y004054D01*
X009741Y004054D01*
X009680Y003992D01*
X009680Y003869D01*
X009741Y003807D01*
X009865Y003931D02*
X009865Y003992D01*
X009988Y004054D02*
X010050Y003992D01*
X010050Y003869D01*
X009988Y003807D01*
X010050Y003686D02*
X009803Y003686D01*
X009680Y003562D01*
X009803Y003439D01*
X010050Y003439D01*
X009988Y003317D02*
X009927Y003317D01*
X009865Y003256D01*
X009803Y003317D01*
X009741Y003317D01*
X009680Y003256D01*
X009680Y003132D01*
X009741Y003070D01*
X009865Y003194D02*
X009865Y003256D01*
X009988Y003317D02*
X010050Y003256D01*
X010050Y003132D01*
X009988Y003070D01*
X010860Y003103D02*
X010860Y003227D01*
X010860Y003165D02*
X011230Y003165D01*
X011230Y003103D02*
X011230Y003227D01*
X011168Y003349D02*
X011107Y003349D01*
X011045Y003410D01*
X011045Y003534D01*
X010983Y003596D01*
X010921Y003596D01*
X010860Y003534D01*
X010860Y003410D01*
X010921Y003349D01*
X011168Y003349D02*
X011230Y003410D01*
X011230Y003534D01*
X011168Y003596D01*
X011168Y003717D02*
X010921Y003717D01*
X010860Y003779D01*
X010860Y003902D01*
X010921Y003964D01*
X011168Y003964D01*
X011230Y003902D01*
X011230Y003779D01*
X011168Y003717D01*
X011860Y003717D02*
X012230Y003717D01*
X012045Y003779D02*
X011860Y003964D01*
X011983Y003717D02*
X012230Y003964D01*
X012860Y003964D02*
X012860Y003717D01*
X013230Y003717D01*
X013168Y003596D02*
X013230Y003534D01*
X013230Y003410D01*
X013168Y003349D01*
X012921Y003349D01*
X012860Y003410D01*
X012860Y003534D01*
X012921Y003596D01*
X012230Y003534D02*
X012230Y003410D01*
X012168Y003349D01*
X011921Y003349D01*
X011860Y003410D01*
X011860Y003534D01*
X011921Y003596D01*
X012168Y003596D02*
X012230Y003534D01*
X012168Y003227D02*
X012230Y003166D01*
X012230Y003042D01*
X012168Y002980D01*
X012107Y002980D01*
X012045Y003042D01*
X012045Y003166D01*
X011983Y003227D01*
X011921Y003227D01*
X011860Y003166D01*
X011860Y003042D01*
X011921Y002980D01*
X011230Y002982D02*
X011107Y002858D01*
X011230Y002735D01*
X010860Y002735D01*
X010860Y002982D02*
X011230Y002982D01*
X012860Y003042D02*
X012921Y002980D01*
X012860Y003042D02*
X012860Y003166D01*
X012921Y003227D01*
X012983Y003227D01*
X013045Y003166D01*
X013045Y003042D01*
X013107Y002980D01*
X013168Y002980D01*
X013230Y003042D01*
X013230Y003166D01*
X013168Y003227D01*
X004750Y001584D02*
X004750Y001293D01*
X004750Y001390D02*
X004605Y001390D01*
X004557Y001438D01*
X004557Y001535D01*
X004605Y001584D01*
X004750Y001584D01*
X004456Y001535D02*
X004456Y001487D01*
X004407Y001438D01*
X004311Y001438D01*
X004262Y001390D01*
X004262Y001342D01*
X004311Y001293D01*
X004407Y001293D01*
X004456Y001342D01*
X004557Y001293D02*
X004654Y001390D01*
X004456Y001535D02*
X004407Y001584D01*
X004311Y001584D01*
X004262Y001535D01*
X004161Y001584D02*
X003968Y001584D01*
X004064Y001584D02*
X004064Y001293D01*
M02*
