G75*
G70*
%OFA0B0*%
%FSLAX24Y24*%
%IPPOS*%
%LPD*%
%AMOC8*
5,1,8,0,0,1.08239X$1,22.5*
%
%ADD10C,0.0000*%
D10*
X002548Y001161D02*
X013298Y001161D01*
X013342Y001163D01*
X013385Y001169D01*
X013427Y001178D01*
X013469Y001191D01*
X013509Y001208D01*
X013548Y001228D01*
X013585Y001251D01*
X013619Y001278D01*
X013652Y001307D01*
X013681Y001340D01*
X013708Y001374D01*
X013731Y001411D01*
X013751Y001450D01*
X013768Y001490D01*
X013781Y001532D01*
X013790Y001574D01*
X013796Y001617D01*
X013798Y001661D01*
X013798Y002081D01*
X013800Y002110D01*
X013805Y002138D01*
X013814Y002166D01*
X013825Y002193D01*
X013840Y002217D01*
X013858Y002240D01*
X013879Y002261D01*
X013902Y002279D01*
X013926Y002294D01*
X013953Y002305D01*
X013981Y002314D01*
X014009Y002319D01*
X014038Y002321D01*
X014968Y002321D01*
X014997Y002319D01*
X015025Y002314D01*
X015053Y002305D01*
X015080Y002294D01*
X015104Y002279D01*
X015127Y002261D01*
X015148Y002240D01*
X015166Y002217D01*
X015181Y002193D01*
X015192Y002166D01*
X015201Y002138D01*
X015206Y002110D01*
X015208Y002081D01*
X015208Y001721D01*
X015210Y001692D01*
X015215Y001664D01*
X015224Y001636D01*
X015235Y001609D01*
X015250Y001585D01*
X015268Y001562D01*
X015289Y001541D01*
X015312Y001523D01*
X015336Y001508D01*
X015363Y001497D01*
X015391Y001488D01*
X015419Y001483D01*
X015448Y001481D01*
X016888Y001481D01*
X016888Y001721D01*
X017728Y001721D01*
X017728Y001481D01*
X018266Y001481D01*
X018295Y001483D01*
X018324Y001488D01*
X018352Y001497D01*
X018378Y001509D01*
X018403Y001524D01*
X018426Y001542D01*
X018447Y001563D01*
X018465Y001586D01*
X018480Y001611D01*
X018492Y001637D01*
X018501Y001665D01*
X018506Y001694D01*
X018508Y001723D01*
X018508Y004361D01*
X018506Y004390D01*
X018501Y004418D01*
X018492Y004446D01*
X018481Y004473D01*
X018466Y004497D01*
X018448Y004520D01*
X018427Y004541D01*
X018404Y004559D01*
X018380Y004574D01*
X018353Y004585D01*
X018325Y004594D01*
X018297Y004599D01*
X018268Y004601D01*
X017728Y004601D01*
X017728Y004361D01*
X016888Y004361D01*
X016888Y004601D01*
X015448Y004601D01*
X015419Y004599D01*
X015391Y004594D01*
X015363Y004585D01*
X015336Y004574D01*
X015312Y004559D01*
X015289Y004541D01*
X015268Y004520D01*
X015250Y004497D01*
X015235Y004473D01*
X015224Y004446D01*
X015215Y004418D01*
X015210Y004390D01*
X015208Y004361D01*
X015208Y004001D01*
X015206Y003972D01*
X015201Y003944D01*
X015192Y003916D01*
X015181Y003889D01*
X015166Y003865D01*
X015148Y003842D01*
X015127Y003821D01*
X015104Y003803D01*
X015080Y003788D01*
X015053Y003777D01*
X015025Y003768D01*
X014997Y003763D01*
X014968Y003761D01*
X014068Y003761D01*
X014423Y003761D02*
X014425Y003777D01*
X014431Y003792D01*
X014441Y003805D01*
X014453Y003816D01*
X014468Y003823D01*
X014484Y003826D01*
X014500Y003825D01*
X014516Y003820D01*
X014529Y003811D01*
X014541Y003799D01*
X014548Y003785D01*
X014552Y003769D01*
X014552Y003753D01*
X014548Y003737D01*
X014541Y003723D01*
X014529Y003711D01*
X014516Y003702D01*
X014500Y003697D01*
X014484Y003696D01*
X014468Y003699D01*
X014453Y003706D01*
X014441Y003717D01*
X014431Y003730D01*
X014425Y003745D01*
X014423Y003761D01*
X014068Y003761D02*
X014035Y003763D01*
X014003Y003769D01*
X013972Y003779D01*
X013943Y003792D01*
X013915Y003809D01*
X013889Y003829D01*
X013866Y003852D01*
X013846Y003878D01*
X013829Y003906D01*
X013816Y003935D01*
X013806Y003966D01*
X013800Y003998D01*
X013798Y004031D01*
X013798Y006661D01*
X013796Y006705D01*
X013790Y006748D01*
X013781Y006790D01*
X013768Y006832D01*
X013751Y006872D01*
X013731Y006911D01*
X013708Y006948D01*
X013681Y006982D01*
X013652Y007015D01*
X013619Y007044D01*
X013585Y007071D01*
X013548Y007094D01*
X013509Y007114D01*
X013469Y007131D01*
X013427Y007144D01*
X013385Y007153D01*
X013342Y007159D01*
X013298Y007161D01*
X002548Y007161D01*
X003230Y006865D02*
X003232Y006889D01*
X003238Y006912D01*
X003248Y006934D01*
X003262Y006954D01*
X003279Y006971D01*
X003299Y006985D01*
X003321Y006995D01*
X003344Y007001D01*
X003368Y007003D01*
X003392Y007001D01*
X003415Y006995D01*
X003437Y006985D01*
X003457Y006971D01*
X003474Y006954D01*
X003488Y006934D01*
X003498Y006912D01*
X003504Y006889D01*
X003506Y006865D01*
X003504Y006841D01*
X003498Y006818D01*
X003488Y006796D01*
X003474Y006776D01*
X003457Y006759D01*
X003437Y006745D01*
X003415Y006735D01*
X003392Y006729D01*
X003368Y006727D01*
X003344Y006729D01*
X003321Y006735D01*
X003299Y006745D01*
X003279Y006759D01*
X003262Y006776D01*
X003248Y006796D01*
X003238Y006818D01*
X003232Y006841D01*
X003230Y006865D01*
X002548Y007161D02*
X002504Y007159D01*
X002461Y007153D01*
X002419Y007144D01*
X002377Y007131D01*
X002337Y007114D01*
X002298Y007094D01*
X002261Y007071D01*
X002227Y007044D01*
X002194Y007015D01*
X002165Y006982D01*
X002138Y006948D01*
X002115Y006911D01*
X002095Y006872D01*
X002078Y006832D01*
X002065Y006790D01*
X002056Y006748D01*
X002050Y006705D01*
X002048Y006661D01*
X002048Y001661D01*
X002050Y001617D01*
X002056Y001574D01*
X002065Y001532D01*
X002078Y001490D01*
X002095Y001450D01*
X002115Y001411D01*
X002138Y001374D01*
X002165Y001340D01*
X002194Y001307D01*
X002227Y001278D01*
X002261Y001251D01*
X002298Y001228D01*
X002337Y001208D01*
X002377Y001191D01*
X002419Y001178D01*
X002461Y001169D01*
X002504Y001163D01*
X002548Y001161D01*
X003410Y001307D02*
X003412Y001331D01*
X003418Y001354D01*
X003428Y001376D01*
X003442Y001396D01*
X003459Y001413D01*
X003479Y001427D01*
X003501Y001437D01*
X003524Y001443D01*
X003548Y001445D01*
X003572Y001443D01*
X003595Y001437D01*
X003617Y001427D01*
X003637Y001413D01*
X003654Y001396D01*
X003668Y001376D01*
X003678Y001354D01*
X003684Y001331D01*
X003686Y001307D01*
X003684Y001283D01*
X003678Y001260D01*
X003668Y001238D01*
X003654Y001218D01*
X003637Y001201D01*
X003617Y001187D01*
X003595Y001177D01*
X003572Y001171D01*
X003548Y001169D01*
X003524Y001171D01*
X003501Y001177D01*
X003479Y001187D01*
X003459Y001201D01*
X003442Y001218D01*
X003428Y001238D01*
X003418Y001260D01*
X003412Y001283D01*
X003410Y001307D01*
X003410Y002015D02*
X003412Y002039D01*
X003418Y002062D01*
X003428Y002084D01*
X003442Y002104D01*
X003459Y002121D01*
X003479Y002135D01*
X003501Y002145D01*
X003524Y002151D01*
X003548Y002153D01*
X003572Y002151D01*
X003595Y002145D01*
X003617Y002135D01*
X003637Y002121D01*
X003654Y002104D01*
X003668Y002084D01*
X003678Y002062D01*
X003684Y002039D01*
X003686Y002015D01*
X003684Y001991D01*
X003678Y001968D01*
X003668Y001946D01*
X003654Y001926D01*
X003637Y001909D01*
X003617Y001895D01*
X003595Y001885D01*
X003572Y001879D01*
X003548Y001877D01*
X003524Y001879D01*
X003501Y001885D01*
X003479Y001895D01*
X003459Y001909D01*
X003442Y001926D01*
X003428Y001946D01*
X003418Y001968D01*
X003412Y001991D01*
X003410Y002015D01*
X003230Y006157D02*
X003232Y006181D01*
X003238Y006204D01*
X003248Y006226D01*
X003262Y006246D01*
X003279Y006263D01*
X003299Y006277D01*
X003321Y006287D01*
X003344Y006293D01*
X003368Y006295D01*
X003392Y006293D01*
X003415Y006287D01*
X003437Y006277D01*
X003457Y006263D01*
X003474Y006246D01*
X003488Y006226D01*
X003498Y006204D01*
X003504Y006181D01*
X003506Y006157D01*
X003504Y006133D01*
X003498Y006110D01*
X003488Y006088D01*
X003474Y006068D01*
X003457Y006051D01*
X003437Y006037D01*
X003415Y006027D01*
X003392Y006021D01*
X003368Y006019D01*
X003344Y006021D01*
X003321Y006027D01*
X003299Y006037D01*
X003279Y006051D01*
X003262Y006068D01*
X003248Y006088D01*
X003238Y006110D01*
X003232Y006133D01*
X003230Y006157D01*
X014423Y003401D02*
X014425Y003417D01*
X014431Y003432D01*
X014441Y003445D01*
X014453Y003456D01*
X014468Y003463D01*
X014484Y003466D01*
X014500Y003465D01*
X014516Y003460D01*
X014529Y003451D01*
X014541Y003439D01*
X014548Y003425D01*
X014552Y003409D01*
X014552Y003393D01*
X014548Y003377D01*
X014541Y003363D01*
X014529Y003351D01*
X014516Y003342D01*
X014500Y003337D01*
X014484Y003336D01*
X014468Y003339D01*
X014453Y003346D01*
X014441Y003357D01*
X014431Y003370D01*
X014425Y003385D01*
X014423Y003401D01*
X014423Y003041D02*
X014425Y003057D01*
X014431Y003072D01*
X014441Y003085D01*
X014453Y003096D01*
X014468Y003103D01*
X014484Y003106D01*
X014500Y003105D01*
X014516Y003100D01*
X014529Y003091D01*
X014541Y003079D01*
X014548Y003065D01*
X014552Y003049D01*
X014552Y003033D01*
X014548Y003017D01*
X014541Y003003D01*
X014529Y002991D01*
X014516Y002982D01*
X014500Y002977D01*
X014484Y002976D01*
X014468Y002979D01*
X014453Y002986D01*
X014441Y002997D01*
X014431Y003010D01*
X014425Y003025D01*
X014423Y003041D01*
X014423Y002681D02*
X014425Y002697D01*
X014431Y002712D01*
X014441Y002725D01*
X014453Y002736D01*
X014468Y002743D01*
X014484Y002746D01*
X014500Y002745D01*
X014516Y002740D01*
X014529Y002731D01*
X014541Y002719D01*
X014548Y002705D01*
X014552Y002689D01*
X014552Y002673D01*
X014548Y002657D01*
X014541Y002643D01*
X014529Y002631D01*
X014516Y002622D01*
X014500Y002617D01*
X014484Y002616D01*
X014468Y002619D01*
X014453Y002626D01*
X014441Y002637D01*
X014431Y002650D01*
X014425Y002665D01*
X014423Y002681D01*
X014423Y002321D02*
X014425Y002337D01*
X014431Y002352D01*
X014441Y002365D01*
X014453Y002376D01*
X014468Y002383D01*
X014484Y002386D01*
X014500Y002385D01*
X014516Y002380D01*
X014529Y002371D01*
X014541Y002359D01*
X014548Y002345D01*
X014552Y002329D01*
X014552Y002313D01*
X014548Y002297D01*
X014541Y002283D01*
X014529Y002271D01*
X014516Y002262D01*
X014500Y002257D01*
X014484Y002256D01*
X014468Y002259D01*
X014453Y002266D01*
X014441Y002277D01*
X014431Y002290D01*
X014425Y002305D01*
X014423Y002321D01*
M02*
