G75*
G70*
%OFA0B0*%
%FSLAX24Y24*%
%IPPOS*%
%LPD*%
%AMOC8*
5,1,8,0,0,1.08239X$1,22.5*
%
%ADD10O,0.0831X0.0416*%
%ADD11R,0.0650X0.0650*%
%ADD12OC8,0.0709*%
%ADD13C,0.0270*%
%ADD14C,0.0060*%
%ADD15C,0.0160*%
%ADD16C,0.0120*%
%ADD17C,0.0080*%
D10*
X003729Y003216D03*
X003729Y005106D03*
D11*
X002548Y005165D03*
X002548Y003157D03*
D12*
X010048Y004661D03*
X011048Y004661D03*
X012048Y004661D03*
X013048Y004661D03*
X013048Y005661D03*
X012048Y005661D03*
X011048Y005661D03*
X010048Y005661D03*
D13*
X009268Y004901D03*
X008308Y005651D03*
X006658Y005501D03*
X005848Y005081D03*
X006208Y004961D03*
X005908Y006191D03*
X006538Y006461D03*
X005608Y006551D03*
X004648Y006371D03*
X004588Y006821D03*
X009808Y006641D03*
X010168Y006641D03*
X010528Y006641D03*
X011548Y004241D03*
X012568Y004241D03*
X013198Y003941D03*
X013528Y004241D03*
X011578Y003581D03*
X010138Y003761D03*
X008298Y003661D03*
X007798Y003661D03*
X007298Y003661D03*
X007298Y003161D03*
X007798Y003161D03*
X008298Y003161D03*
X006508Y002351D03*
X006268Y002081D03*
X007348Y001661D03*
X005728Y002561D03*
X004978Y002531D03*
X010588Y001991D03*
X010888Y001991D03*
X013408Y001961D03*
X015988Y001991D03*
X018148Y003041D03*
X016378Y003191D03*
X016528Y004031D03*
X016168Y004121D03*
D14*
X002397Y001379D02*
X002345Y001414D01*
X002300Y001458D01*
X002266Y001510D01*
X002242Y001568D01*
X002229Y001630D01*
X002228Y001661D01*
X002228Y001735D01*
X002228Y002702D01*
X002518Y002702D01*
X002518Y003127D01*
X002578Y003127D01*
X002578Y003187D01*
X003003Y003187D01*
X003003Y003536D01*
X002926Y003612D01*
X002578Y003612D01*
X002578Y003187D01*
X002518Y003187D01*
X002518Y003612D01*
X002228Y003612D01*
X002228Y004710D01*
X002518Y004710D01*
X002518Y005135D01*
X002578Y005135D01*
X002578Y005195D01*
X002518Y005195D01*
X002518Y005620D01*
X002228Y005620D01*
X002228Y006661D01*
X002229Y006692D01*
X002242Y006754D01*
X002266Y006812D01*
X002300Y006864D01*
X002345Y006908D01*
X002397Y006943D01*
X002455Y006967D01*
X002516Y006979D01*
X002548Y006981D01*
X002622Y006981D01*
X003072Y006981D01*
X003050Y006928D01*
X003050Y006802D01*
X003098Y006685D01*
X003188Y006596D01*
X003305Y006547D01*
X003431Y006547D01*
X003548Y006596D01*
X003637Y006685D01*
X003686Y006802D01*
X003686Y006928D01*
X003664Y006981D01*
X004430Y006981D01*
X004397Y006948D01*
X004363Y006866D01*
X004363Y006776D01*
X004397Y006693D01*
X004460Y006630D01*
X004543Y006596D01*
X004633Y006596D01*
X004715Y006630D01*
X004779Y006693D01*
X004782Y006701D01*
X005440Y006701D01*
X005417Y006678D01*
X005383Y006596D01*
X005383Y006506D01*
X005386Y006499D01*
X004858Y005971D01*
X004858Y005871D01*
X004858Y002725D01*
X004850Y002722D01*
X004787Y002658D01*
X004753Y002576D01*
X004753Y002486D01*
X004787Y002403D01*
X004850Y002340D01*
X004933Y002306D01*
X005023Y002306D01*
X005105Y002340D01*
X005169Y002403D01*
X005203Y002486D01*
X005203Y002576D01*
X005169Y002658D01*
X005105Y002722D01*
X005098Y002725D01*
X005098Y005871D01*
X005556Y006329D01*
X005563Y006326D01*
X005653Y006326D01*
X005735Y006360D01*
X005799Y006423D01*
X005833Y006506D01*
X005833Y006596D01*
X005825Y006614D01*
X006148Y006291D01*
X006148Y005491D01*
X006148Y005391D01*
X006388Y005151D01*
X006458Y005081D01*
X007808Y005081D01*
X007908Y005081D01*
X008256Y005429D01*
X008263Y005426D01*
X008353Y005426D01*
X008435Y005460D01*
X008499Y005523D01*
X008533Y005606D01*
X008533Y005696D01*
X008499Y005778D01*
X008435Y005842D01*
X008353Y005876D01*
X008263Y005876D01*
X008180Y005842D01*
X008117Y005778D01*
X008083Y005696D01*
X008083Y005606D01*
X008086Y005599D01*
X007808Y005321D01*
X006796Y005321D01*
X006849Y005373D01*
X006883Y005456D01*
X006883Y005546D01*
X006880Y005553D01*
X007488Y006161D01*
X011378Y006161D01*
X011649Y005890D01*
X011604Y005845D01*
X011604Y005477D01*
X011820Y005261D01*
X011276Y005261D01*
X011492Y005477D01*
X011492Y005845D01*
X011232Y006105D01*
X010864Y006105D01*
X010604Y005845D01*
X010604Y005477D01*
X010820Y005261D01*
X010333Y005261D01*
X010532Y005460D01*
X010532Y005631D01*
X010078Y005631D01*
X010078Y005691D01*
X010532Y005691D01*
X010532Y005862D01*
X010248Y006145D01*
X010078Y006145D01*
X010078Y005691D01*
X010018Y005691D01*
X010018Y006145D01*
X009847Y006145D01*
X009564Y005862D01*
X009564Y005691D01*
X010018Y005691D01*
X010018Y005631D01*
X009564Y005631D01*
X009564Y005460D01*
X009763Y005261D01*
X008948Y005261D01*
X008878Y005191D01*
X008768Y005081D01*
X006402Y005081D01*
X006399Y005088D01*
X006335Y005152D01*
X006253Y005186D01*
X006163Y005186D01*
X006080Y005152D01*
X006067Y005139D01*
X006039Y005208D01*
X005975Y005272D01*
X005893Y005306D01*
X005803Y005306D01*
X005720Y005272D01*
X005657Y005208D01*
X005623Y005126D01*
X005623Y005036D01*
X005657Y004953D01*
X005720Y004890D01*
X005728Y004887D01*
X005728Y004791D01*
X005908Y004611D01*
X005978Y004541D01*
X006278Y004541D01*
X006378Y004541D01*
X006558Y004721D01*
X009130Y004721D01*
X009140Y004710D01*
X009223Y004676D01*
X009313Y004676D01*
X009395Y004710D01*
X009459Y004773D01*
X009493Y004856D01*
X009493Y004946D01*
X009462Y005021D01*
X009780Y005021D01*
X009604Y004845D01*
X009604Y004477D01*
X009643Y004438D01*
X009566Y004361D01*
X005910Y004361D01*
X005578Y004693D01*
X005578Y005199D01*
X006058Y005679D01*
X006058Y005803D01*
X006058Y006023D01*
X006099Y006063D01*
X006133Y006146D01*
X006133Y006236D01*
X006099Y006318D01*
X006035Y006382D01*
X005953Y006416D01*
X005863Y006416D01*
X005780Y006382D01*
X005717Y006318D01*
X005683Y006236D01*
X005683Y006146D01*
X005717Y006063D01*
X005758Y006023D01*
X005758Y005803D01*
X005366Y005411D01*
X005278Y005323D01*
X005278Y004693D01*
X005278Y004569D01*
X005672Y004175D01*
X005608Y004111D01*
X005608Y004011D01*
X005608Y002755D01*
X005600Y002752D01*
X005537Y002688D01*
X005503Y002606D01*
X005503Y002516D01*
X005537Y002433D01*
X005600Y002370D01*
X005683Y002336D01*
X005773Y002336D01*
X005855Y002370D01*
X005919Y002433D01*
X005953Y002516D01*
X005953Y002606D01*
X005919Y002688D01*
X005855Y002752D01*
X005848Y002755D01*
X005848Y004011D01*
X005898Y004061D01*
X009566Y004061D01*
X009690Y004061D01*
X009855Y004226D01*
X009864Y004217D01*
X010232Y004217D01*
X010492Y004477D01*
X010492Y004845D01*
X010316Y005021D01*
X010780Y005021D01*
X010604Y004845D01*
X010604Y004477D01*
X010864Y004217D01*
X010918Y004217D01*
X010918Y004141D01*
X009248Y002471D01*
X006702Y002471D01*
X006699Y002478D01*
X006635Y002542D01*
X006553Y002576D01*
X006463Y002576D01*
X006380Y002542D01*
X006317Y002478D01*
X006283Y002396D01*
X006283Y002306D01*
X006223Y002306D01*
X006140Y002272D01*
X006077Y002208D01*
X006043Y002126D01*
X006043Y002036D01*
X006077Y001953D01*
X006140Y001890D01*
X006223Y001856D01*
X006313Y001856D01*
X006395Y001890D01*
X006459Y001953D01*
X006462Y001961D01*
X007478Y001961D01*
X007400Y001883D01*
X007393Y001886D01*
X007303Y001886D01*
X007220Y001852D01*
X007157Y001788D01*
X007123Y001706D01*
X007123Y001616D01*
X007157Y001533D01*
X007220Y001470D01*
X007303Y001436D01*
X007393Y001436D01*
X007475Y001470D01*
X007539Y001533D01*
X007573Y001616D01*
X007573Y001706D01*
X007570Y001713D01*
X007698Y001841D01*
X009218Y001841D01*
X009318Y001841D01*
X011358Y003881D01*
X011738Y003881D01*
X011838Y003881D01*
X012048Y004091D01*
X012118Y004161D01*
X012118Y004217D01*
X012232Y004217D01*
X012492Y004477D01*
X012492Y004845D01*
X012316Y005021D01*
X012548Y005021D01*
X012664Y004905D01*
X012604Y004845D01*
X012604Y004477D01*
X012864Y004217D01*
X013232Y004217D01*
X013492Y004477D01*
X013492Y004845D01*
X013232Y005105D01*
X012864Y005105D01*
X012834Y005075D01*
X012648Y005261D01*
X012548Y005261D01*
X012276Y005261D01*
X012492Y005477D01*
X012492Y005845D01*
X012232Y006105D01*
X011864Y006105D01*
X011819Y006060D01*
X011478Y006401D01*
X011378Y006401D01*
X007388Y006401D01*
X007318Y006331D01*
X006710Y005723D01*
X006703Y005726D01*
X006613Y005726D01*
X006530Y005692D01*
X006467Y005628D01*
X006433Y005546D01*
X006433Y005456D01*
X006440Y005438D01*
X006388Y005491D01*
X006388Y006391D01*
X006318Y006461D01*
X005838Y006941D01*
X005738Y006941D01*
X004782Y006941D01*
X004779Y006948D01*
X004746Y006981D01*
X013298Y006981D01*
X013329Y006979D01*
X013391Y006967D01*
X013449Y006943D01*
X013501Y006908D01*
X013545Y006864D01*
X013580Y006812D01*
X013604Y006754D01*
X013616Y006692D01*
X013618Y006661D01*
X013618Y006586D01*
X013618Y003956D01*
X013624Y003951D01*
X013644Y003874D01*
X013458Y004061D01*
X013392Y004061D01*
X013389Y004068D01*
X013325Y004132D01*
X013243Y004166D01*
X013153Y004166D01*
X013070Y004132D01*
X013007Y004068D01*
X012973Y003986D01*
X012973Y003896D01*
X013007Y003813D01*
X013070Y003750D01*
X013153Y003716D01*
X013243Y003716D01*
X013325Y003750D01*
X013377Y003802D01*
X013598Y003581D01*
X013598Y003511D01*
X013697Y003411D01*
X014243Y003411D01*
X014243Y003352D01*
X014280Y003262D01*
X014321Y003221D01*
X010697Y003221D01*
X010639Y003162D02*
X014273Y003162D01*
X014280Y003180D02*
X014243Y003090D01*
X014243Y002992D01*
X014280Y002902D01*
X014321Y002861D01*
X014280Y002820D01*
X014243Y002730D01*
X014243Y002671D01*
X013457Y002671D01*
X013358Y002571D01*
X013358Y002501D01*
X013288Y002431D01*
X013288Y002331D01*
X013288Y002155D01*
X013280Y002152D01*
X013217Y002088D01*
X013183Y002006D01*
X013183Y001916D01*
X013217Y001833D01*
X013280Y001770D01*
X013363Y001736D01*
X013453Y001736D01*
X013535Y001770D01*
X013599Y001833D01*
X013618Y001880D01*
X013618Y001735D01*
X013618Y001661D01*
X013618Y001661D01*
X013616Y001630D01*
X013604Y001568D01*
X013580Y001510D01*
X013545Y001458D01*
X013501Y001414D01*
X013449Y001379D01*
X013391Y001355D01*
X013329Y001342D01*
X013298Y001341D01*
X003866Y001341D01*
X003866Y001370D01*
X003817Y001487D01*
X003728Y001576D01*
X003611Y001624D01*
X003485Y001624D01*
X003368Y001576D01*
X003278Y001487D01*
X003230Y001370D01*
X003230Y001341D01*
X002548Y001341D01*
X002516Y001342D01*
X002455Y001355D01*
X002397Y001379D01*
X002356Y001406D02*
X003245Y001406D01*
X003230Y001347D02*
X002491Y001347D01*
X002296Y001465D02*
X003269Y001465D01*
X003315Y001523D02*
X002260Y001523D01*
X002239Y001582D02*
X003382Y001582D01*
X003482Y001699D02*
X002228Y001699D01*
X002228Y001757D02*
X003356Y001757D01*
X003368Y001746D02*
X003485Y001697D01*
X003611Y001697D01*
X003728Y001746D01*
X003817Y001835D01*
X003866Y001952D01*
X003866Y002078D01*
X003817Y002195D01*
X003728Y002285D01*
X003611Y002333D01*
X003485Y002333D01*
X003368Y002285D01*
X003278Y002195D01*
X003230Y002078D01*
X003230Y001952D01*
X003278Y001835D01*
X003368Y001746D01*
X003298Y001816D02*
X002228Y001816D01*
X002228Y001874D02*
X003262Y001874D01*
X003238Y001933D02*
X002228Y001933D01*
X002228Y001991D02*
X003230Y001991D01*
X003230Y002050D02*
X002228Y002050D01*
X002228Y002109D02*
X003243Y002109D01*
X003267Y002167D02*
X002228Y002167D01*
X002228Y002226D02*
X003309Y002226D01*
X003367Y002284D02*
X002228Y002284D01*
X002228Y002343D02*
X004848Y002343D01*
X004789Y002401D02*
X002228Y002401D01*
X002228Y002460D02*
X004764Y002460D01*
X004753Y002518D02*
X002228Y002518D01*
X002228Y002577D02*
X004753Y002577D01*
X004778Y002635D02*
X002228Y002635D01*
X002228Y002694D02*
X004823Y002694D01*
X004858Y002753D02*
X002977Y002753D01*
X003003Y002778D02*
X003003Y003127D01*
X002578Y003127D01*
X002578Y002702D01*
X002926Y002702D01*
X003003Y002778D01*
X003003Y002811D02*
X004858Y002811D01*
X004858Y002870D02*
X003003Y002870D01*
X003003Y002928D02*
X003331Y002928D01*
X003381Y002878D02*
X003699Y002878D01*
X003699Y003186D01*
X003759Y003186D01*
X003759Y003246D01*
X004275Y003246D01*
X004275Y003356D01*
X004077Y003554D01*
X003759Y003554D01*
X003759Y003246D01*
X003699Y003246D01*
X003699Y003186D01*
X003183Y003186D01*
X003183Y003076D01*
X003381Y002878D01*
X003273Y002987D02*
X003003Y002987D01*
X003003Y003045D02*
X003214Y003045D01*
X003183Y003104D02*
X003003Y003104D01*
X003183Y003162D02*
X002578Y003162D01*
X002578Y003104D02*
X002518Y003104D01*
X002518Y003045D02*
X002578Y003045D01*
X002578Y002987D02*
X002518Y002987D01*
X002518Y002928D02*
X002578Y002928D01*
X002578Y002870D02*
X002518Y002870D01*
X002518Y002811D02*
X002578Y002811D01*
X002578Y002753D02*
X002518Y002753D01*
X002518Y003221D02*
X002578Y003221D01*
X002578Y003279D02*
X002518Y003279D01*
X002518Y003338D02*
X002578Y003338D01*
X002578Y003396D02*
X002518Y003396D01*
X002518Y003455D02*
X002578Y003455D01*
X002578Y003514D02*
X002518Y003514D01*
X002518Y003572D02*
X002578Y003572D01*
X002228Y003631D02*
X004858Y003631D01*
X004858Y003689D02*
X002228Y003689D01*
X002228Y003748D02*
X004858Y003748D01*
X004858Y003806D02*
X002228Y003806D01*
X002228Y003865D02*
X004858Y003865D01*
X004858Y003923D02*
X002228Y003923D01*
X002228Y003982D02*
X004858Y003982D01*
X004858Y004040D02*
X002228Y004040D01*
X002228Y004099D02*
X004858Y004099D01*
X004858Y004158D02*
X002228Y004158D01*
X002228Y004216D02*
X004858Y004216D01*
X004858Y004275D02*
X002228Y004275D01*
X002228Y004333D02*
X004858Y004333D01*
X004858Y004392D02*
X002228Y004392D01*
X002228Y004450D02*
X004858Y004450D01*
X004858Y004509D02*
X002228Y004509D01*
X002228Y004567D02*
X004858Y004567D01*
X004858Y004626D02*
X002228Y004626D01*
X002228Y004684D02*
X004858Y004684D01*
X004858Y004743D02*
X002959Y004743D01*
X002926Y004710D02*
X003003Y004786D01*
X003003Y005135D01*
X002578Y005135D01*
X002578Y004710D01*
X002926Y004710D01*
X003003Y004802D02*
X003348Y004802D01*
X003381Y004768D02*
X003699Y004768D01*
X003699Y005076D01*
X003183Y005076D01*
X003183Y004966D01*
X003381Y004768D01*
X003289Y004860D02*
X003003Y004860D01*
X003003Y004919D02*
X003231Y004919D01*
X003183Y004977D02*
X003003Y004977D01*
X003003Y005036D02*
X003183Y005036D01*
X003183Y005136D02*
X003699Y005136D01*
X003699Y005444D01*
X003381Y005444D01*
X003183Y005246D01*
X003183Y005136D01*
X003183Y005153D02*
X002578Y005153D01*
X002578Y005195D02*
X003003Y005195D01*
X003003Y005544D01*
X002926Y005620D01*
X002578Y005620D01*
X002578Y005195D01*
X002578Y005211D02*
X002518Y005211D01*
X002518Y005270D02*
X002578Y005270D01*
X002578Y005328D02*
X002518Y005328D01*
X002518Y005387D02*
X002578Y005387D01*
X002578Y005446D02*
X002518Y005446D01*
X002518Y005504D02*
X002578Y005504D01*
X002578Y005563D02*
X002518Y005563D01*
X002228Y005621D02*
X004858Y005621D01*
X004858Y005563D02*
X002984Y005563D01*
X003003Y005504D02*
X004858Y005504D01*
X004858Y005446D02*
X003003Y005446D01*
X003003Y005387D02*
X003325Y005387D01*
X003266Y005328D02*
X003003Y005328D01*
X003003Y005270D02*
X003208Y005270D01*
X003183Y005211D02*
X003003Y005211D01*
X003003Y005094D02*
X003699Y005094D01*
X003699Y005076D02*
X003699Y005136D01*
X003759Y005136D01*
X003759Y005444D01*
X004077Y005444D01*
X004275Y005246D01*
X004275Y005136D01*
X003759Y005136D01*
X003759Y005076D01*
X004275Y005076D01*
X004275Y004966D01*
X004077Y004768D01*
X003759Y004768D01*
X003759Y005076D01*
X003699Y005076D01*
X003699Y005036D02*
X003759Y005036D01*
X003759Y005094D02*
X004858Y005094D01*
X004858Y005036D02*
X004275Y005036D01*
X004275Y004977D02*
X004858Y004977D01*
X004858Y004919D02*
X004227Y004919D01*
X004169Y004860D02*
X004858Y004860D01*
X004858Y004802D02*
X004110Y004802D01*
X003759Y004802D02*
X003699Y004802D01*
X003699Y004860D02*
X003759Y004860D01*
X003759Y004919D02*
X003699Y004919D01*
X003699Y004977D02*
X003759Y004977D01*
X003759Y005153D02*
X003699Y005153D01*
X003699Y005211D02*
X003759Y005211D01*
X003759Y005270D02*
X003699Y005270D01*
X003699Y005328D02*
X003759Y005328D01*
X003759Y005387D02*
X003699Y005387D01*
X004133Y005387D02*
X004858Y005387D01*
X004858Y005328D02*
X004192Y005328D01*
X004250Y005270D02*
X004858Y005270D01*
X004858Y005211D02*
X004275Y005211D01*
X004275Y005153D02*
X004858Y005153D01*
X005098Y005153D02*
X005278Y005153D01*
X005278Y005211D02*
X005098Y005211D01*
X005098Y005270D02*
X005278Y005270D01*
X005283Y005328D02*
X005098Y005328D01*
X005098Y005387D02*
X005342Y005387D01*
X005400Y005446D02*
X005098Y005446D01*
X005098Y005504D02*
X005459Y005504D01*
X005517Y005563D02*
X005098Y005563D01*
X005098Y005621D02*
X005576Y005621D01*
X005635Y005680D02*
X005098Y005680D01*
X005098Y005738D02*
X005693Y005738D01*
X005752Y005797D02*
X005098Y005797D01*
X005098Y005855D02*
X005758Y005855D01*
X005758Y005914D02*
X005140Y005914D01*
X005199Y005972D02*
X005758Y005972D01*
X005750Y006031D02*
X005258Y006031D01*
X005316Y006089D02*
X005706Y006089D01*
X005683Y006148D02*
X005375Y006148D01*
X005433Y006207D02*
X005683Y006207D01*
X005695Y006265D02*
X005492Y006265D01*
X005550Y006324D02*
X005722Y006324D01*
X005757Y006382D02*
X005782Y006382D01*
X005806Y006441D02*
X005998Y006441D01*
X006034Y006382D02*
X006057Y006382D01*
X006093Y006324D02*
X006115Y006324D01*
X006121Y006265D02*
X006148Y006265D01*
X006148Y006207D02*
X006133Y006207D01*
X006133Y006148D02*
X006148Y006148D01*
X006148Y006089D02*
X006109Y006089D01*
X006148Y006031D02*
X006066Y006031D01*
X006058Y005972D02*
X006148Y005972D01*
X006148Y005914D02*
X006058Y005914D01*
X006058Y005855D02*
X006148Y005855D01*
X006148Y005797D02*
X006058Y005797D01*
X006058Y005738D02*
X006148Y005738D01*
X006148Y005680D02*
X006058Y005680D01*
X006000Y005621D02*
X006148Y005621D01*
X006148Y005563D02*
X005942Y005563D01*
X005883Y005504D02*
X006148Y005504D01*
X006148Y005446D02*
X005825Y005446D01*
X005766Y005387D02*
X006152Y005387D01*
X006211Y005328D02*
X005707Y005328D01*
X005719Y005270D02*
X005649Y005270D01*
X005660Y005211D02*
X005590Y005211D01*
X005578Y005153D02*
X005634Y005153D01*
X005623Y005094D02*
X005578Y005094D01*
X005578Y005036D02*
X005623Y005036D01*
X005647Y004977D02*
X005578Y004977D01*
X005578Y004919D02*
X005692Y004919D01*
X005728Y004860D02*
X005578Y004860D01*
X005578Y004802D02*
X005728Y004802D01*
X005776Y004743D02*
X005578Y004743D01*
X005586Y004684D02*
X005835Y004684D01*
X005893Y004626D02*
X005645Y004626D01*
X005704Y004567D02*
X005952Y004567D01*
X006028Y004661D02*
X006328Y004661D01*
X006508Y004841D01*
X009208Y004841D01*
X009268Y004901D01*
X009480Y004977D02*
X009736Y004977D01*
X009677Y004919D02*
X009493Y004919D01*
X009493Y004860D02*
X009619Y004860D01*
X009604Y004802D02*
X009470Y004802D01*
X009428Y004743D02*
X009604Y004743D01*
X009604Y004684D02*
X009333Y004684D01*
X009203Y004684D02*
X006521Y004684D01*
X006463Y004626D02*
X009604Y004626D01*
X009604Y004567D02*
X006404Y004567D01*
X006028Y004661D02*
X005848Y004841D01*
X005848Y005081D01*
X006062Y005153D02*
X006083Y005153D01*
X006036Y005211D02*
X006328Y005211D01*
X006333Y005153D02*
X006386Y005153D01*
X006393Y005094D02*
X006445Y005094D01*
X006208Y004961D02*
X008818Y004961D01*
X008998Y005141D01*
X012598Y005141D01*
X013078Y004661D01*
X013048Y004661D01*
X013492Y004684D02*
X013618Y004684D01*
X013618Y004626D02*
X013492Y004626D01*
X013492Y004567D02*
X013618Y004567D01*
X013618Y004509D02*
X013492Y004509D01*
X013466Y004450D02*
X013618Y004450D01*
X013618Y004392D02*
X013407Y004392D01*
X013348Y004333D02*
X013618Y004333D01*
X013618Y004275D02*
X013290Y004275D01*
X013263Y004158D02*
X013618Y004158D01*
X013618Y004216D02*
X012118Y004216D01*
X012114Y004158D02*
X013133Y004158D01*
X013038Y004099D02*
X012056Y004099D01*
X012048Y004091D02*
X012048Y004091D01*
X011997Y004040D02*
X012996Y004040D01*
X012973Y003982D02*
X011939Y003982D01*
X011880Y003923D02*
X012973Y003923D01*
X012986Y003865D02*
X011341Y003865D01*
X011283Y003806D02*
X013014Y003806D01*
X013076Y003748D02*
X011224Y003748D01*
X011166Y003689D02*
X013490Y003689D01*
X013548Y003631D02*
X011107Y003631D01*
X011049Y003572D02*
X013598Y003572D01*
X013598Y003514D02*
X010990Y003514D01*
X010932Y003455D02*
X013653Y003455D01*
X013768Y003581D02*
X013408Y003941D01*
X013198Y003941D01*
X013537Y003982D02*
X013618Y003982D01*
X013618Y004040D02*
X013478Y004040D01*
X013358Y004099D02*
X013618Y004099D01*
X013528Y004241D02*
X013438Y004241D01*
X012806Y004275D02*
X012290Y004275D01*
X012348Y004333D02*
X012747Y004333D01*
X012689Y004392D02*
X012407Y004392D01*
X012466Y004450D02*
X012630Y004450D01*
X012604Y004509D02*
X012492Y004509D01*
X012492Y004567D02*
X012604Y004567D01*
X012604Y004626D02*
X012492Y004626D01*
X012492Y004684D02*
X012604Y004684D01*
X012604Y004743D02*
X012492Y004743D01*
X012492Y004802D02*
X012604Y004802D01*
X012619Y004860D02*
X012477Y004860D01*
X012419Y004919D02*
X012650Y004919D01*
X012592Y004977D02*
X012360Y004977D01*
X012756Y005153D02*
X013618Y005153D01*
X013618Y005211D02*
X012697Y005211D01*
X012811Y005270D02*
X012285Y005270D01*
X012344Y005328D02*
X012752Y005328D01*
X012693Y005387D02*
X012402Y005387D01*
X012461Y005446D02*
X012635Y005446D01*
X012604Y005477D02*
X012864Y005217D01*
X013232Y005217D01*
X013492Y005477D01*
X013492Y005845D01*
X013232Y006105D01*
X012864Y006105D01*
X012604Y005845D01*
X012604Y005477D01*
X012604Y005504D02*
X012492Y005504D01*
X012492Y005563D02*
X012604Y005563D01*
X012604Y005621D02*
X012492Y005621D01*
X012492Y005680D02*
X012604Y005680D01*
X012604Y005738D02*
X012492Y005738D01*
X012492Y005797D02*
X012604Y005797D01*
X012614Y005855D02*
X012482Y005855D01*
X012423Y005914D02*
X012672Y005914D01*
X012731Y005972D02*
X012365Y005972D01*
X012306Y006031D02*
X012790Y006031D01*
X012848Y006089D02*
X012248Y006089D01*
X011848Y006089D02*
X011789Y006089D01*
X011730Y006148D02*
X013618Y006148D01*
X013618Y006089D02*
X013248Y006089D01*
X013306Y006031D02*
X013618Y006031D01*
X013618Y005972D02*
X013365Y005972D01*
X013423Y005914D02*
X013618Y005914D01*
X013618Y005855D02*
X013482Y005855D01*
X013492Y005797D02*
X013618Y005797D01*
X013618Y005738D02*
X013492Y005738D01*
X013492Y005680D02*
X013618Y005680D01*
X013618Y005621D02*
X013492Y005621D01*
X013492Y005563D02*
X013618Y005563D01*
X013618Y005504D02*
X013492Y005504D01*
X013461Y005446D02*
X013618Y005446D01*
X013618Y005387D02*
X013402Y005387D01*
X013344Y005328D02*
X013618Y005328D01*
X013618Y005270D02*
X013285Y005270D01*
X013243Y005094D02*
X013618Y005094D01*
X013618Y005036D02*
X013301Y005036D01*
X013360Y004977D02*
X013618Y004977D01*
X013618Y004919D02*
X013419Y004919D01*
X013477Y004860D02*
X013618Y004860D01*
X013618Y004802D02*
X013492Y004802D01*
X013492Y004743D02*
X013618Y004743D01*
X012853Y005094D02*
X012814Y005094D01*
X012048Y004671D02*
X012048Y004661D01*
X012048Y004671D02*
X012028Y004691D01*
X011998Y004661D01*
X011998Y004211D01*
X011788Y004001D01*
X011308Y004001D01*
X009268Y001961D01*
X007648Y001961D01*
X007348Y001661D01*
X007137Y001582D02*
X003714Y001582D01*
X003781Y001523D02*
X007167Y001523D01*
X007234Y001465D02*
X003826Y001465D01*
X003851Y001406D02*
X013490Y001406D01*
X013550Y001465D02*
X007462Y001465D01*
X007528Y001523D02*
X013586Y001523D01*
X013607Y001582D02*
X007559Y001582D01*
X007573Y001640D02*
X013617Y001640D01*
X013618Y001699D02*
X007573Y001699D01*
X007614Y001757D02*
X013312Y001757D01*
X013235Y001816D02*
X007672Y001816D01*
X007450Y001933D02*
X006438Y001933D01*
X006357Y001874D02*
X007275Y001874D01*
X007185Y001816D02*
X003798Y001816D01*
X003833Y001874D02*
X006179Y001874D01*
X006098Y001933D02*
X003858Y001933D01*
X003866Y001991D02*
X006061Y001991D01*
X006043Y002050D02*
X003866Y002050D01*
X003853Y002109D02*
X006043Y002109D01*
X006060Y002167D02*
X003829Y002167D01*
X003787Y002226D02*
X006094Y002226D01*
X006171Y002284D02*
X003728Y002284D01*
X003739Y001757D02*
X007144Y001757D01*
X007123Y001699D02*
X003614Y001699D01*
X003866Y001347D02*
X013355Y001347D01*
X013504Y001757D02*
X013618Y001757D01*
X013618Y001816D02*
X013581Y001816D01*
X013615Y001874D02*
X013618Y001874D01*
X013408Y001961D02*
X013408Y002381D01*
X013528Y002501D01*
X013358Y002518D02*
X009995Y002518D01*
X009936Y002460D02*
X013317Y002460D01*
X013288Y002401D02*
X009878Y002401D01*
X009819Y002343D02*
X013288Y002343D01*
X013288Y002284D02*
X009761Y002284D01*
X009702Y002226D02*
X013288Y002226D01*
X013288Y002167D02*
X009644Y002167D01*
X009585Y002109D02*
X013237Y002109D01*
X013201Y002050D02*
X009527Y002050D01*
X009468Y001991D02*
X013183Y001991D01*
X013183Y001933D02*
X009410Y001933D01*
X009351Y001874D02*
X013200Y001874D01*
X013363Y002577D02*
X010054Y002577D01*
X010112Y002635D02*
X013422Y002635D01*
X014243Y002694D02*
X010171Y002694D01*
X010229Y002753D02*
X014252Y002753D01*
X014277Y002811D02*
X010288Y002811D01*
X010346Y002870D02*
X014313Y002870D01*
X014269Y002928D02*
X010405Y002928D01*
X010463Y002987D02*
X014245Y002987D01*
X014243Y003045D02*
X010522Y003045D01*
X010580Y003104D02*
X014249Y003104D01*
X014280Y003180D02*
X014321Y003221D01*
X014273Y003279D02*
X010756Y003279D01*
X010815Y003338D02*
X014249Y003338D01*
X014243Y003396D02*
X010873Y003396D01*
X010466Y003689D02*
X005848Y003689D01*
X005848Y003631D02*
X010408Y003631D01*
X010349Y003572D02*
X005848Y003572D01*
X005848Y003514D02*
X010291Y003514D01*
X010232Y003455D02*
X005848Y003455D01*
X005848Y003396D02*
X010174Y003396D01*
X010115Y003338D02*
X005848Y003338D01*
X005848Y003279D02*
X010057Y003279D01*
X009998Y003221D02*
X005848Y003221D01*
X005848Y003162D02*
X009940Y003162D01*
X009881Y003104D02*
X005848Y003104D01*
X005848Y003045D02*
X009822Y003045D01*
X009764Y002987D02*
X005848Y002987D01*
X005848Y002928D02*
X009705Y002928D01*
X009647Y002870D02*
X005848Y002870D01*
X005848Y002811D02*
X009588Y002811D01*
X009530Y002753D02*
X005853Y002753D01*
X005913Y002694D02*
X009471Y002694D01*
X009413Y002635D02*
X005941Y002635D01*
X005953Y002577D02*
X009354Y002577D01*
X009296Y002518D02*
X006659Y002518D01*
X006508Y002351D02*
X009298Y002351D01*
X011038Y004091D01*
X011038Y004661D01*
X011048Y004671D01*
X011058Y004671D01*
X011068Y004661D01*
X011048Y004661D01*
X011048Y004671D02*
X011068Y004691D01*
X010677Y004919D02*
X010419Y004919D01*
X010477Y004860D02*
X010619Y004860D01*
X010604Y004802D02*
X010492Y004802D01*
X010492Y004743D02*
X010604Y004743D01*
X010604Y004684D02*
X010492Y004684D01*
X010492Y004626D02*
X010604Y004626D01*
X010604Y004567D02*
X010492Y004567D01*
X010492Y004509D02*
X010604Y004509D01*
X010630Y004450D02*
X010466Y004450D01*
X010407Y004392D02*
X010689Y004392D01*
X010747Y004333D02*
X010348Y004333D01*
X010290Y004275D02*
X010806Y004275D01*
X010918Y004216D02*
X009845Y004216D01*
X009787Y004158D02*
X010918Y004158D01*
X010876Y004099D02*
X009728Y004099D01*
X009597Y004392D02*
X005879Y004392D01*
X005821Y004450D02*
X009630Y004450D01*
X009604Y004509D02*
X005762Y004509D01*
X005455Y004392D02*
X005098Y004392D01*
X005098Y004450D02*
X005396Y004450D01*
X005338Y004509D02*
X005098Y004509D01*
X005098Y004567D02*
X005279Y004567D01*
X005278Y004626D02*
X005098Y004626D01*
X005098Y004684D02*
X005278Y004684D01*
X005278Y004743D02*
X005098Y004743D01*
X005098Y004802D02*
X005278Y004802D01*
X005278Y004860D02*
X005098Y004860D01*
X005098Y004919D02*
X005278Y004919D01*
X005278Y004977D02*
X005098Y004977D01*
X005098Y005036D02*
X005278Y005036D01*
X005278Y005094D02*
X005098Y005094D01*
X005977Y005270D02*
X006269Y005270D01*
X006268Y005441D02*
X006508Y005201D01*
X007858Y005201D01*
X008308Y005651D01*
X008515Y005563D02*
X009564Y005563D01*
X009564Y005621D02*
X008533Y005621D01*
X008533Y005680D02*
X010018Y005680D01*
X010018Y005738D02*
X010078Y005738D01*
X010078Y005680D02*
X010604Y005680D01*
X010604Y005738D02*
X010532Y005738D01*
X010532Y005797D02*
X010604Y005797D01*
X010614Y005855D02*
X010532Y005855D01*
X010480Y005914D02*
X010672Y005914D01*
X010731Y005972D02*
X010421Y005972D01*
X010363Y006031D02*
X010790Y006031D01*
X010848Y006089D02*
X010304Y006089D01*
X010078Y006089D02*
X010018Y006089D01*
X010018Y006031D02*
X010078Y006031D01*
X010078Y005972D02*
X010018Y005972D01*
X010018Y005914D02*
X010078Y005914D01*
X010078Y005855D02*
X010018Y005855D01*
X010018Y005797D02*
X010078Y005797D01*
X010532Y005621D02*
X010604Y005621D01*
X010604Y005563D02*
X010532Y005563D01*
X010532Y005504D02*
X010604Y005504D01*
X010635Y005446D02*
X010517Y005446D01*
X010459Y005387D02*
X010693Y005387D01*
X010752Y005328D02*
X010400Y005328D01*
X010342Y005270D02*
X010811Y005270D01*
X010736Y004977D02*
X010360Y004977D01*
X009754Y005270D02*
X008096Y005270D01*
X008038Y005211D02*
X008899Y005211D01*
X008840Y005153D02*
X007979Y005153D01*
X007921Y005094D02*
X008781Y005094D01*
X008155Y005328D02*
X009695Y005328D01*
X009637Y005387D02*
X008214Y005387D01*
X008400Y005446D02*
X009578Y005446D01*
X009564Y005504D02*
X008479Y005504D01*
X008083Y005621D02*
X006948Y005621D01*
X007006Y005680D02*
X008083Y005680D01*
X008101Y005738D02*
X007065Y005738D01*
X007123Y005797D02*
X008136Y005797D01*
X008213Y005855D02*
X007182Y005855D01*
X007240Y005914D02*
X009616Y005914D01*
X009564Y005855D02*
X008402Y005855D01*
X008480Y005797D02*
X009564Y005797D01*
X009564Y005738D02*
X008515Y005738D01*
X008050Y005563D02*
X006889Y005563D01*
X006883Y005504D02*
X007991Y005504D01*
X007933Y005446D02*
X006878Y005446D01*
X006854Y005387D02*
X007874Y005387D01*
X007816Y005328D02*
X006804Y005328D01*
X006658Y005501D02*
X007438Y006281D01*
X011428Y006281D01*
X012048Y005661D01*
X012058Y005651D01*
X011635Y005446D02*
X011461Y005446D01*
X011492Y005504D02*
X011604Y005504D01*
X011604Y005563D02*
X011492Y005563D01*
X011492Y005621D02*
X011604Y005621D01*
X011604Y005680D02*
X011492Y005680D01*
X011492Y005738D02*
X011604Y005738D01*
X011604Y005797D02*
X011492Y005797D01*
X011482Y005855D02*
X011614Y005855D01*
X011625Y005914D02*
X011423Y005914D01*
X011365Y005972D02*
X011567Y005972D01*
X011508Y006031D02*
X011306Y006031D01*
X011248Y006089D02*
X011450Y006089D01*
X011391Y006148D02*
X007475Y006148D01*
X007416Y006089D02*
X009791Y006089D01*
X009733Y006031D02*
X007358Y006031D01*
X007299Y005972D02*
X009674Y005972D01*
X011285Y005270D02*
X011811Y005270D01*
X011752Y005328D02*
X011344Y005328D01*
X011402Y005387D02*
X011693Y005387D01*
X011672Y006207D02*
X013618Y006207D01*
X013618Y006265D02*
X011613Y006265D01*
X011555Y006324D02*
X013618Y006324D01*
X013618Y006382D02*
X011496Y006382D01*
X013388Y006968D02*
X004759Y006968D01*
X004588Y006821D02*
X005788Y006821D01*
X006268Y006341D01*
X006268Y005441D01*
X006388Y005504D02*
X006433Y005504D01*
X006433Y005446D02*
X006437Y005446D01*
X006440Y005563D02*
X006388Y005563D01*
X006388Y005621D02*
X006464Y005621D01*
X006518Y005680D02*
X006388Y005680D01*
X006388Y005738D02*
X006726Y005738D01*
X006784Y005797D02*
X006388Y005797D01*
X006388Y005855D02*
X006843Y005855D01*
X006901Y005914D02*
X006388Y005914D01*
X006388Y005972D02*
X006960Y005972D01*
X007018Y006031D02*
X006388Y006031D01*
X006388Y006089D02*
X007077Y006089D01*
X007135Y006148D02*
X006388Y006148D01*
X006388Y006207D02*
X007194Y006207D01*
X007252Y006265D02*
X006388Y006265D01*
X006388Y006324D02*
X007311Y006324D01*
X007369Y006382D02*
X006388Y006382D01*
X006338Y006441D02*
X013618Y006441D01*
X013618Y006499D02*
X006279Y006499D01*
X006221Y006558D02*
X013618Y006558D01*
X013618Y006616D02*
X006162Y006616D01*
X006104Y006675D02*
X013617Y006675D01*
X013608Y006733D02*
X006045Y006733D01*
X005986Y006792D02*
X013588Y006792D01*
X013554Y006851D02*
X005928Y006851D01*
X005869Y006909D02*
X013500Y006909D01*
X015411Y004409D02*
X015425Y004416D01*
X015440Y004420D01*
X015448Y004421D01*
X015522Y004421D01*
X016708Y004421D01*
X016708Y004286D01*
X016813Y004181D01*
X017653Y004181D01*
X017802Y004181D01*
X017908Y004286D01*
X017908Y004421D01*
X018193Y004421D01*
X018225Y004421D01*
X018268Y004421D01*
X018276Y004420D01*
X018291Y004416D01*
X018304Y004409D01*
X018315Y004397D01*
X018323Y004384D01*
X018327Y004369D01*
X018328Y004361D01*
X018328Y001797D01*
X018328Y001781D01*
X018328Y001723D01*
X018327Y001715D01*
X018323Y001699D01*
X018315Y001685D01*
X018304Y001674D01*
X018290Y001666D01*
X018274Y001661D01*
X018266Y001661D01*
X017908Y001661D01*
X017908Y001795D01*
X017802Y001901D01*
X016962Y001901D01*
X016813Y001901D01*
X016708Y001795D01*
X016708Y001661D01*
X015448Y001661D01*
X015440Y001661D01*
X015425Y001665D01*
X015411Y001673D01*
X015400Y001684D01*
X015392Y001698D01*
X015388Y001713D01*
X015388Y001721D01*
X015388Y002155D01*
X015381Y002163D01*
X015359Y002243D01*
X015308Y002331D01*
X015398Y002331D01*
X015438Y002371D01*
X015766Y002043D01*
X015763Y002036D01*
X015763Y001946D01*
X015797Y001863D01*
X015860Y001800D01*
X015943Y001766D01*
X016033Y001766D01*
X016115Y001800D01*
X016179Y001863D01*
X016213Y001946D01*
X016213Y002036D01*
X016179Y002118D01*
X016115Y002182D01*
X016033Y002216D01*
X015943Y002216D01*
X015936Y002213D01*
X015528Y002621D01*
X015448Y002621D01*
X015398Y002671D01*
X014733Y002671D01*
X014733Y002730D01*
X014696Y002820D01*
X014654Y002861D01*
X014696Y002902D01*
X014733Y002992D01*
X014733Y003090D01*
X014696Y003180D01*
X014654Y003221D01*
X014696Y003262D01*
X014733Y003352D01*
X014733Y003411D01*
X015398Y003411D01*
X015438Y003451D01*
X015574Y003451D01*
X015682Y003451D01*
X016127Y003896D01*
X016213Y003896D01*
X016295Y003930D01*
X016359Y003993D01*
X016393Y004076D01*
X016393Y004166D01*
X016359Y004248D01*
X016295Y004312D01*
X016213Y004346D01*
X016123Y004346D01*
X016040Y004312D01*
X015977Y004248D01*
X015943Y004166D01*
X015943Y004080D01*
X015574Y003711D01*
X015438Y003711D01*
X015398Y003751D01*
X015308Y003751D01*
X015359Y003839D01*
X015381Y003919D01*
X015388Y003926D01*
X015388Y003946D01*
X015388Y004061D01*
X015388Y004075D01*
X015388Y004361D01*
X015388Y004369D01*
X015392Y004384D01*
X015400Y004397D01*
X015411Y004409D01*
X015397Y004392D02*
X016708Y004392D01*
X016708Y004333D02*
X016243Y004333D01*
X016332Y004275D02*
X016720Y004275D01*
X016778Y004216D02*
X016372Y004216D01*
X016393Y004158D02*
X018328Y004158D01*
X018328Y004216D02*
X017838Y004216D01*
X017896Y004275D02*
X018328Y004275D01*
X018328Y004333D02*
X017908Y004333D01*
X017908Y004392D02*
X018319Y004392D01*
X018328Y004099D02*
X016393Y004099D01*
X016378Y004040D02*
X018328Y004040D01*
X018328Y003982D02*
X016347Y003982D01*
X016279Y003923D02*
X018328Y003923D01*
X018328Y003865D02*
X016096Y003865D01*
X016037Y003806D02*
X018328Y003806D01*
X018328Y003748D02*
X015979Y003748D01*
X015920Y003689D02*
X018328Y003689D01*
X018328Y003631D02*
X015861Y003631D01*
X015803Y003572D02*
X018328Y003572D01*
X018328Y003514D02*
X015744Y003514D01*
X015686Y003455D02*
X018328Y003455D01*
X018328Y003396D02*
X014733Y003396D01*
X014727Y003338D02*
X018328Y003338D01*
X018328Y003279D02*
X014703Y003279D01*
X014654Y003221D02*
X018328Y003221D01*
X018328Y003162D02*
X014703Y003162D01*
X014727Y003104D02*
X018328Y003104D01*
X018328Y003045D02*
X014733Y003045D01*
X014731Y002987D02*
X018328Y002987D01*
X018328Y002928D02*
X014706Y002928D01*
X014663Y002870D02*
X018328Y002870D01*
X018328Y002811D02*
X014699Y002811D01*
X014723Y002753D02*
X018328Y002753D01*
X018328Y002694D02*
X014733Y002694D01*
X015328Y002861D02*
X015328Y003221D01*
X015401Y003748D02*
X015611Y003748D01*
X015669Y003806D02*
X015340Y003806D01*
X015359Y003839D02*
X015359Y003839D01*
X015366Y003865D02*
X015728Y003865D01*
X015786Y003923D02*
X015385Y003923D01*
X015388Y003982D02*
X015845Y003982D01*
X015904Y004040D02*
X015388Y004040D01*
X015388Y004099D02*
X015943Y004099D01*
X015943Y004158D02*
X015388Y004158D01*
X015388Y004216D02*
X015964Y004216D01*
X016003Y004275D02*
X015388Y004275D01*
X015388Y004333D02*
X016092Y004333D01*
X013631Y003923D02*
X013595Y003923D01*
X013431Y003748D02*
X013319Y003748D01*
X011548Y004241D02*
X011428Y004121D01*
X011248Y004121D01*
X009208Y002081D01*
X006268Y002081D01*
X006283Y002306D02*
X006283Y002306D01*
X006283Y002343D02*
X005789Y002343D01*
X005886Y002401D02*
X006285Y002401D01*
X006309Y002460D02*
X005929Y002460D01*
X005953Y002518D02*
X006357Y002518D01*
X005728Y002561D02*
X005728Y004061D01*
X005848Y004181D01*
X005848Y004211D01*
X005655Y004158D02*
X005098Y004158D01*
X005098Y004216D02*
X005631Y004216D01*
X005572Y004275D02*
X005098Y004275D01*
X005098Y004333D02*
X005514Y004333D01*
X005608Y004099D02*
X005098Y004099D01*
X005098Y004040D02*
X005608Y004040D01*
X005608Y003982D02*
X005098Y003982D01*
X005098Y003923D02*
X005608Y003923D01*
X005608Y003865D02*
X005098Y003865D01*
X005098Y003806D02*
X005608Y003806D01*
X005608Y003748D02*
X005098Y003748D01*
X005098Y003689D02*
X005608Y003689D01*
X005608Y003631D02*
X005098Y003631D01*
X005098Y003572D02*
X005608Y003572D01*
X005608Y003514D02*
X005098Y003514D01*
X005098Y003455D02*
X005608Y003455D01*
X005608Y003396D02*
X005098Y003396D01*
X005098Y003338D02*
X005608Y003338D01*
X005608Y003279D02*
X005098Y003279D01*
X005098Y003221D02*
X005608Y003221D01*
X005608Y003162D02*
X005098Y003162D01*
X005098Y003104D02*
X005608Y003104D01*
X005608Y003045D02*
X005098Y003045D01*
X005098Y002987D02*
X005608Y002987D01*
X005608Y002928D02*
X005098Y002928D01*
X005098Y002870D02*
X005608Y002870D01*
X005608Y002811D02*
X005098Y002811D01*
X005098Y002753D02*
X005603Y002753D01*
X005543Y002694D02*
X005133Y002694D01*
X005178Y002635D02*
X005515Y002635D01*
X005503Y002577D02*
X005202Y002577D01*
X005203Y002518D02*
X005503Y002518D01*
X005526Y002460D02*
X005192Y002460D01*
X005166Y002401D02*
X005569Y002401D01*
X005667Y002343D02*
X005108Y002343D01*
X004978Y002531D02*
X004978Y005921D01*
X005608Y006551D01*
X005383Y006558D02*
X003456Y006558D01*
X003431Y006474D02*
X003305Y006474D01*
X003188Y006426D01*
X003098Y006337D01*
X003050Y006220D01*
X003050Y006093D01*
X003098Y005977D01*
X003188Y005887D01*
X003305Y005839D01*
X003431Y005839D01*
X003548Y005887D01*
X003637Y005977D01*
X003686Y006093D01*
X003686Y006220D01*
X003637Y006337D01*
X003548Y006426D01*
X003431Y006474D01*
X003512Y006441D02*
X005328Y006441D01*
X005386Y006499D02*
X002228Y006499D01*
X002228Y006441D02*
X003224Y006441D01*
X003144Y006382D02*
X002228Y006382D01*
X002228Y006324D02*
X003093Y006324D01*
X003069Y006265D02*
X002228Y006265D01*
X002228Y006207D02*
X003050Y006207D01*
X003050Y006148D02*
X002228Y006148D01*
X002228Y006089D02*
X003052Y006089D01*
X003076Y006031D02*
X002228Y006031D01*
X002228Y005972D02*
X003103Y005972D01*
X003161Y005914D02*
X002228Y005914D01*
X002228Y005855D02*
X003265Y005855D01*
X003471Y005855D02*
X004858Y005855D01*
X004858Y005797D02*
X002228Y005797D01*
X002228Y005738D02*
X004858Y005738D01*
X004858Y005680D02*
X002228Y005680D01*
X002518Y005094D02*
X002578Y005094D01*
X002578Y005036D02*
X002518Y005036D01*
X002518Y004977D02*
X002578Y004977D01*
X002578Y004919D02*
X002518Y004919D01*
X002518Y004860D02*
X002578Y004860D01*
X002578Y004802D02*
X002518Y004802D01*
X002518Y004743D02*
X002578Y004743D01*
X002966Y003572D02*
X004858Y003572D01*
X004858Y003514D02*
X004117Y003514D01*
X004175Y003455D02*
X004858Y003455D01*
X004858Y003396D02*
X004234Y003396D01*
X004275Y003338D02*
X004858Y003338D01*
X004858Y003279D02*
X004275Y003279D01*
X004275Y003186D02*
X003759Y003186D01*
X003759Y002878D01*
X004077Y002878D01*
X004275Y003076D01*
X004275Y003186D01*
X004275Y003162D02*
X004858Y003162D01*
X004858Y003104D02*
X004275Y003104D01*
X004244Y003045D02*
X004858Y003045D01*
X004858Y002987D02*
X004185Y002987D01*
X004127Y002928D02*
X004858Y002928D01*
X004858Y003221D02*
X003759Y003221D01*
X003759Y003279D02*
X003699Y003279D01*
X003699Y003246D02*
X003699Y003554D01*
X003381Y003554D01*
X003183Y003356D01*
X003183Y003246D01*
X003699Y003246D01*
X003699Y003221D02*
X003003Y003221D01*
X003003Y003279D02*
X003183Y003279D01*
X003183Y003338D02*
X003003Y003338D01*
X003003Y003396D02*
X003224Y003396D01*
X003282Y003455D02*
X003003Y003455D01*
X003003Y003514D02*
X003341Y003514D01*
X003699Y003514D02*
X003759Y003514D01*
X003759Y003455D02*
X003699Y003455D01*
X003699Y003396D02*
X003759Y003396D01*
X003759Y003338D02*
X003699Y003338D01*
X003699Y003162D02*
X003759Y003162D01*
X003759Y003104D02*
X003699Y003104D01*
X003699Y003045D02*
X003759Y003045D01*
X003759Y002987D02*
X003699Y002987D01*
X003699Y002928D02*
X003759Y002928D01*
X005848Y003748D02*
X010525Y003748D01*
X010584Y003806D02*
X005848Y003806D01*
X005848Y003865D02*
X010642Y003865D01*
X010701Y003923D02*
X005848Y003923D01*
X005848Y003982D02*
X010759Y003982D01*
X010818Y004040D02*
X005877Y004040D01*
X004858Y005914D02*
X003575Y005914D01*
X003633Y005972D02*
X004860Y005972D01*
X004918Y006031D02*
X003660Y006031D01*
X003684Y006089D02*
X004977Y006089D01*
X005035Y006148D02*
X003686Y006148D01*
X003686Y006207D02*
X005094Y006207D01*
X005152Y006265D02*
X003667Y006265D01*
X003643Y006324D02*
X005211Y006324D01*
X005269Y006382D02*
X003592Y006382D01*
X003280Y006558D02*
X002228Y006558D01*
X002228Y006616D02*
X003167Y006616D01*
X003109Y006675D02*
X002229Y006675D01*
X002238Y006733D02*
X003078Y006733D01*
X003054Y006792D02*
X002257Y006792D01*
X002291Y006851D02*
X003050Y006851D01*
X003050Y006909D02*
X002346Y006909D01*
X002457Y006968D02*
X003066Y006968D01*
X003669Y006968D02*
X004416Y006968D01*
X004381Y006909D02*
X003686Y006909D01*
X003686Y006851D02*
X004363Y006851D01*
X004363Y006792D02*
X003681Y006792D01*
X003657Y006733D02*
X004381Y006733D01*
X004416Y006675D02*
X003627Y006675D01*
X003568Y006616D02*
X004494Y006616D01*
X004682Y006616D02*
X005391Y006616D01*
X005416Y006675D02*
X004760Y006675D01*
X005833Y006558D02*
X005881Y006558D01*
X005830Y006499D02*
X005940Y006499D01*
X015328Y002501D02*
X015478Y002501D01*
X015988Y001991D01*
X016213Y001991D02*
X018328Y001991D01*
X018328Y001933D02*
X016207Y001933D01*
X016183Y001874D02*
X016787Y001874D01*
X016728Y001816D02*
X016131Y001816D01*
X016207Y002050D02*
X018328Y002050D01*
X018328Y002109D02*
X016183Y002109D01*
X016130Y002167D02*
X018328Y002167D01*
X018328Y002226D02*
X015923Y002226D01*
X015864Y002284D02*
X018328Y002284D01*
X018328Y002343D02*
X015806Y002343D01*
X015747Y002401D02*
X018328Y002401D01*
X018328Y002460D02*
X015689Y002460D01*
X015630Y002518D02*
X018328Y002518D01*
X018328Y002577D02*
X015572Y002577D01*
X015434Y002635D02*
X018328Y002635D01*
X018328Y001874D02*
X017829Y001874D01*
X017887Y001816D02*
X018328Y001816D01*
X018328Y001757D02*
X017908Y001757D01*
X017908Y001699D02*
X018323Y001699D01*
X016708Y001699D02*
X015392Y001699D01*
X015388Y001757D02*
X016708Y001757D01*
X015845Y001816D02*
X015388Y001816D01*
X015388Y001874D02*
X015793Y001874D01*
X015768Y001933D02*
X015388Y001933D01*
X015388Y001991D02*
X015763Y001991D01*
X015759Y002050D02*
X015388Y002050D01*
X015388Y002109D02*
X015701Y002109D01*
X015642Y002167D02*
X015380Y002167D01*
X015364Y002226D02*
X015583Y002226D01*
X015525Y002284D02*
X015335Y002284D01*
X015359Y002243D02*
X015359Y002243D01*
X015410Y002343D02*
X015466Y002343D01*
X007123Y001640D02*
X002229Y001640D01*
D15*
X013288Y002861D02*
X015328Y002861D01*
X015328Y002501D02*
X013528Y002501D01*
X013438Y003221D02*
X015328Y003221D01*
X015328Y003581D02*
X013768Y003581D01*
D16*
X010078Y004661D02*
X009628Y004211D01*
X005848Y004211D01*
X005428Y004631D01*
X005428Y005261D01*
X005908Y005741D01*
X005908Y006191D01*
X010048Y004661D02*
X010078Y004661D01*
D17*
X015328Y003581D02*
X015628Y003581D01*
X016168Y004121D01*
M02*
