G75*
G70*
%OFA0B0*%
%FSLAX24Y24*%
%IPPOS*%
%LPD*%
%AMOC8*
5,1,8,0,0,1.08239X$1,22.5*
%
%ADD10R,0.0118X0.0512*%
%ADD11R,0.0512X0.0118*%
%ADD12R,0.0492X0.0492*%
%ADD13R,0.0709X0.0157*%
%ADD14R,0.0787X0.0394*%
%ADD15R,0.0197X0.0394*%
%ADD16R,0.0138X0.0591*%
%ADD17R,0.0315X0.0157*%
%ADD18R,0.0315X0.0236*%
%ADD19R,0.0236X0.0315*%
%ADD20R,0.0551X0.0394*%
%ADD21R,0.0157X0.0315*%
%ADD22R,0.0787X0.0945*%
D10*
X006902Y002253D03*
X007158Y002253D03*
X007414Y002253D03*
X007670Y002253D03*
X007926Y002253D03*
X008182Y002253D03*
X008438Y002253D03*
X008694Y002253D03*
X008694Y005068D03*
X008438Y005068D03*
X008182Y005068D03*
X007926Y005068D03*
X007670Y005068D03*
X007414Y005068D03*
X007158Y005068D03*
X006902Y005068D03*
D11*
X006390Y004557D03*
X006390Y004301D03*
X006390Y004045D03*
X006390Y003789D03*
X006390Y003533D03*
X006390Y003277D03*
X006390Y003021D03*
X006390Y002765D03*
X009205Y002765D03*
X009205Y003021D03*
X009205Y003277D03*
X009205Y003533D03*
X009205Y003789D03*
X009205Y004045D03*
X009205Y004301D03*
X009205Y004557D03*
D12*
X008241Y004104D03*
X007355Y004104D03*
X007355Y003218D03*
X008241Y003218D03*
D13*
X003650Y003649D03*
X003650Y003905D03*
X003650Y004161D03*
X003650Y004417D03*
X003650Y004673D03*
D14*
X002548Y004417D03*
X002548Y003905D03*
D15*
X003493Y003216D03*
X003493Y005106D03*
D16*
X002814Y005165D03*
X002282Y005165D03*
X002282Y003157D03*
X002814Y003157D03*
D17*
X005036Y005787D03*
X005036Y006161D03*
X005036Y006535D03*
X006060Y006535D03*
X006060Y005787D03*
D18*
X006548Y006096D03*
X006548Y006726D03*
X004538Y005826D03*
X004538Y005196D03*
X004548Y004226D03*
X005378Y004206D03*
X005378Y003576D03*
X004548Y003596D03*
X010958Y003856D03*
X010958Y003226D03*
X015988Y003206D03*
X015988Y002876D03*
X016438Y002876D03*
X016888Y002876D03*
X017308Y002726D03*
X017758Y002876D03*
X017758Y003206D03*
X017308Y003356D03*
X016888Y003206D03*
X016888Y003836D03*
X017758Y003836D03*
X015988Y003836D03*
X015988Y002246D03*
X016438Y002246D03*
X016888Y002246D03*
X017758Y002246D03*
D19*
X012863Y002161D03*
X012233Y002161D03*
X012233Y002661D03*
X012863Y002661D03*
X012863Y003161D03*
X012233Y003161D03*
X012233Y003661D03*
X012863Y003661D03*
X010453Y003791D03*
X009823Y003791D03*
X009823Y003341D03*
X010453Y003341D03*
X010623Y001601D03*
X010953Y001601D03*
X011583Y001601D03*
X009993Y001601D03*
X005573Y004631D03*
X004943Y004631D03*
D20*
X002839Y001385D03*
X002839Y001937D03*
X004257Y001937D03*
X004257Y001385D03*
X004077Y006235D03*
X004077Y006787D03*
X002659Y006787D03*
X002659Y006235D03*
D21*
X004958Y003483D03*
X005332Y002459D03*
X004584Y002459D03*
D22*
X007260Y006411D03*
X008835Y006411D03*
M02*
