%
M48
M72
T01C0.0130
T02C0.0276
T03C0.0433
T04C0.0472
%
T01
X4978Y2531
X5728Y2561
X6508Y2351
X6268Y2081
X7348Y1661
X10588Y1991
X10888Y1991
X13408Y1961
X14488Y2321
X14488Y2681
X14488Y3041
X14488Y3401
X14488Y3761
X13528Y4241
X13198Y3941
X12568Y4241
X11548Y4241
X10138Y3761
X11578Y3581
X9268Y4901
X8308Y5651
X6658Y5501
X5848Y5081
X6208Y4961
X5908Y6191
X6538Y6461
X5608Y6551
X4648Y6371
X4588Y6821
X9808Y6641
X10168Y6641
X10528Y6641
X16168Y4121
X16528Y4031
X16378Y3191
X18148Y3041
X15988Y1991
X8298Y3161
X7798Y3161
X7298Y3161
X7298Y3661
X7798Y3661
X8298Y3661
T02
X3548Y1307
X3548Y2015
X3729Y3216
X3729Y5106
X3368Y6157
X3368Y6865
T03
X2548Y5165
X2548Y3157
T04
X10048Y4661
X11048Y4661
X12048Y4661
X13048Y4661
X13048Y5661
X12048Y5661
X11048Y5661
X10048Y5661
M30
