solid OpenSCAD_Model
  facet normal 0 0 -1
    outer loop
      vertex -12 0 0
      vertex -11.7378 2.49494 0
      vertex -11.7378 -2.49494 0
    endloop
  endfacet
  facet normal 0 0 -1
    outer loop
      vertex -11.7378 -2.49494 0
      vertex -11.7378 2.49494 0
      vertex -10.9625 4.88084 0
    endloop
  endfacet
  facet normal 0 0 -1
    outer loop
      vertex -11.7378 -2.49494 0
      vertex -10.9625 4.88084 0
      vertex -9.7082 7.05342 0
    endloop
  endfacet
  facet normal 0 0 -1
    outer loop
      vertex -11.7378 -2.49494 0
      vertex -9.7082 7.05342 0
      vertex -8.02957 8.91774 0
    endloop
  endfacet
  facet normal 0 0 -1
    outer loop
      vertex -11.7378 -2.49494 0
      vertex -8.02957 8.91774 0
      vertex -6 10.3923 0
    endloop
  endfacet
  facet normal 0 0 -1
    outer loop
      vertex -11.7378 -2.49494 0
      vertex -6 10.3923 0
      vertex -3.7082 11.4127 0
    endloop
  endfacet
  facet normal 0 0 -1
    outer loop
      vertex -11.7378 -2.49494 0
      vertex -3.7082 11.4127 0
      vertex -1.25434 11.9343 0
    endloop
  endfacet
  facet normal 0 0 -1
    outer loop
      vertex -11.7378 -2.49494 0
      vertex -1.25434 11.9343 0
      vertex 1.25434 11.9343 0
    endloop
  endfacet
  facet normal 0 0 -1
    outer loop
      vertex -11.7378 -2.49494 0
      vertex 1.25434 11.9343 0
      vertex 3.7082 11.4127 0
    endloop
  endfacet
  facet normal 0 0 -1
    outer loop
      vertex -11.7378 -2.49494 0
      vertex 3.7082 11.4127 0
      vertex 6 10.3923 0
    endloop
  endfacet
  facet normal 0 0 -1
    outer loop
      vertex -11.7378 -2.49494 0
      vertex 6 10.3923 0
      vertex 8.02957 8.91774 0
    endloop
  endfacet
  facet normal 0 0 -1
    outer loop
      vertex -11.7378 -2.49494 0
      vertex 8.02957 8.91774 0
      vertex 9.7082 7.05342 0
    endloop
  endfacet
  facet normal 0 0 -1
    outer loop
      vertex -11.7378 -2.49494 0
      vertex 9.7082 7.05342 0
      vertex 10.9625 4.88084 0
    endloop
  endfacet
  facet normal 0 0 -1
    outer loop
      vertex -11.7378 -2.49494 0
      vertex 10.9625 4.88084 0
      vertex 11.7378 2.49494 0
    endloop
  endfacet
  facet normal 0 0 -1
    outer loop
      vertex -11.7378 -2.49494 0
      vertex 11.7378 2.49494 0
      vertex 12 0 0
    endloop
  endfacet
  facet normal 0 0 -1
    outer loop
      vertex -11.7378 -2.49494 0
      vertex 12 0 0
      vertex 11.7378 -2.49494 0
    endloop
  endfacet
  facet normal 0 0 -1
    outer loop
      vertex -11.7378 -2.49494 0
      vertex 11.7378 -2.49494 0
      vertex 10.9625 -4.88084 0
    endloop
  endfacet
  facet normal 0 0 -1
    outer loop
      vertex -11.7378 -2.49494 0
      vertex 10.9625 -4.88084 0
      vertex 9.7082 -7.05342 0
    endloop
  endfacet
  facet normal 0 0 -1
    outer loop
      vertex -11.7378 -2.49494 0
      vertex 9.7082 -7.05342 0
      vertex 8.02957 -8.91774 0
    endloop
  endfacet
  facet normal 0 0 -1
    outer loop
      vertex -11.7378 -2.49494 0
      vertex 8.02957 -8.91774 0
      vertex 6 -10.3923 0
    endloop
  endfacet
  facet normal 0 0 -1
    outer loop
      vertex -11.7378 -2.49494 0
      vertex 6 -10.3923 0
      vertex 3.7082 -11.4127 0
    endloop
  endfacet
  facet normal 0 0 -1
    outer loop
      vertex -11.7378 -2.49494 0
      vertex 3.7082 -11.4127 0
      vertex 1.25434 -11.9343 0
    endloop
  endfacet
  facet normal 0 0 -1
    outer loop
      vertex -11.7378 -2.49494 0
      vertex 1.25434 -11.9343 0
      vertex -1.25434 -11.9343 0
    endloop
  endfacet
  facet normal 0 0 -1
    outer loop
      vertex -11.7378 -2.49494 0
      vertex -1.25434 -11.9343 0
      vertex -3.7082 -11.4127 0
    endloop
  endfacet
  facet normal 0 0 -1
    outer loop
      vertex -11.7378 -2.49494 0
      vertex -3.7082 -11.4127 0
      vertex -6 -10.3923 0
    endloop
  endfacet
  facet normal 0 0 -1
    outer loop
      vertex -11.7378 -2.49494 0
      vertex -6 -10.3923 0
      vertex -8.02957 -8.91774 0
    endloop
  endfacet
  facet normal 0 0 -1
    outer loop
      vertex -11.7378 -2.49494 0
      vertex -8.02957 -8.91774 0
      vertex -9.7082 -7.05342 0
    endloop
  endfacet
  facet normal 0 0 -1
    outer loop
      vertex -11.7378 -2.49494 0
      vertex -9.7082 -7.05342 0
      vertex -10.9625 -4.88084 0
    endloop
  endfacet
  facet normal -0.994522 0.104529 0
    outer loop
      vertex -12 0 0
      vertex -12 0 0.5
      vertex -11.7378 2.49494 0
    endloop
  endfacet
  facet normal -0.994522 0.104529 0
    outer loop
      vertex -11.7378 2.49494 0
      vertex -12 0 0.5
      vertex -11.7378 2.49494 0.5
    endloop
  endfacet
  facet normal -0.994522 -0.104529 0
    outer loop
      vertex -12 0 0
      vertex -11.7378 -2.49494 0
      vertex -12 0 0.5
    endloop
  endfacet
  facet normal -0.994522 -0.104529 0
    outer loop
      vertex -12 0 0.5
      vertex -11.7378 -2.49494 0
      vertex -11.7378 -2.49494 0.5
    endloop
  endfacet
  facet normal -0.951057 -0.309017 0
    outer loop
      vertex -11.7378 -2.49494 0
      vertex -10.9625 -4.88084 0
      vertex -11.7378 -2.49494 0.5
    endloop
  endfacet
  facet normal -0.951057 -0.309017 0
    outer loop
      vertex -11.7378 -2.49494 0.5
      vertex -10.9625 -4.88084 0
      vertex -10.9625 -4.88084 0.5
    endloop
  endfacet
  facet normal -0.866025 -0.5 0
    outer loop
      vertex -10.9625 -4.88084 0
      vertex -9.7082 -7.05342 0
      vertex -10.9625 -4.88084 0.5
    endloop
  endfacet
  facet normal -0.866025 -0.5 0
    outer loop
      vertex -10.9625 -4.88084 0.5
      vertex -9.7082 -7.05342 0
      vertex -9.7082 -7.05342 0.5
    endloop
  endfacet
  facet normal -0.743145 -0.669131 0
    outer loop
      vertex -9.7082 -7.05342 0
      vertex -8.02957 -8.91774 0
      vertex -9.7082 -7.05342 0.5
    endloop
  endfacet
  facet normal -0.743145 -0.669131 0
    outer loop
      vertex -9.7082 -7.05342 0.5
      vertex -8.02957 -8.91774 0
      vertex -8.02957 -8.91774 0.5
    endloop
  endfacet
  facet normal -0.587785 -0.809017 0
    outer loop
      vertex -8.02957 -8.91774 0.5
      vertex -8.02957 -8.91774 0
      vertex -6 -10.3923 0
    endloop
  endfacet
  facet normal -0.587785 -0.809017 0
    outer loop
      vertex -6 -10.3923 0.5
      vertex -8.02957 -8.91774 0.5
      vertex -6 -10.3923 0
    endloop
  endfacet
  facet normal -0.406737 -0.913546 0
    outer loop
      vertex -6 -10.3923 0.5
      vertex -6 -10.3923 0
      vertex -3.7082 -11.4127 0
    endloop
  endfacet
  facet normal -0.406737 -0.913546 0
    outer loop
      vertex -3.7082 -11.4127 0.5
      vertex -6 -10.3923 0.5
      vertex -3.7082 -11.4127 0
    endloop
  endfacet
  facet normal -0.207912 -0.978148 0
    outer loop
      vertex -3.7082 -11.4127 0.5
      vertex -3.7082 -11.4127 0
      vertex -1.25434 -11.9343 0
    endloop
  endfacet
  facet normal -0.207912 -0.978148 0
    outer loop
      vertex -1.25434 -11.9343 0.5
      vertex -3.7082 -11.4127 0.5
      vertex -1.25434 -11.9343 0
    endloop
  endfacet
  facet normal 0 -1 0
    outer loop
      vertex -1.25434 -11.9343 0.5
      vertex -1.25434 -11.9343 0
      vertex 1.25434 -11.9343 0
    endloop
  endfacet
  facet normal 0 -1 0
    outer loop
      vertex 1.25434 -11.9343 0.5
      vertex -1.25434 -11.9343 0.5
      vertex 1.25434 -11.9343 0
    endloop
  endfacet
  facet normal 0.207912 -0.978148 0
    outer loop
      vertex 1.25434 -11.9343 0.5
      vertex 1.25434 -11.9343 0
      vertex 3.7082 -11.4127 0
    endloop
  endfacet
  facet normal 0.207912 -0.978148 0
    outer loop
      vertex 3.7082 -11.4127 0.5
      vertex 1.25434 -11.9343 0.5
      vertex 3.7082 -11.4127 0
    endloop
  endfacet
  facet normal 0.406737 -0.913546 0
    outer loop
      vertex 3.7082 -11.4127 0.5
      vertex 3.7082 -11.4127 0
      vertex 6 -10.3923 0
    endloop
  endfacet
  facet normal 0.406737 -0.913546 0
    outer loop
      vertex 6 -10.3923 0.5
      vertex 3.7082 -11.4127 0.5
      vertex 6 -10.3923 0
    endloop
  endfacet
  facet normal 0.587785 -0.809017 0
    outer loop
      vertex 6 -10.3923 0.5
      vertex 6 -10.3923 0
      vertex 8.02957 -8.91774 0
    endloop
  endfacet
  facet normal 0.587785 -0.809017 0
    outer loop
      vertex 8.02957 -8.91774 0.5
      vertex 6 -10.3923 0.5
      vertex 8.02957 -8.91774 0
    endloop
  endfacet
  facet normal 0.743145 -0.669131 0
    outer loop
      vertex 8.02957 -8.91774 0.5
      vertex 8.02957 -8.91774 0
      vertex 9.7082 -7.05342 0
    endloop
  endfacet
  facet normal 0.743145 -0.669131 0
    outer loop
      vertex 9.7082 -7.05342 0.5
      vertex 8.02957 -8.91774 0.5
      vertex 9.7082 -7.05342 0
    endloop
  endfacet
  facet normal 0.866025 -0.5 0
    outer loop
      vertex 9.7082 -7.05342 0.5
      vertex 9.7082 -7.05342 0
      vertex 10.9625 -4.88084 0
    endloop
  endfacet
  facet normal 0.866025 -0.5 0
    outer loop
      vertex 10.9625 -4.88084 0.5
      vertex 9.7082 -7.05342 0.5
      vertex 10.9625 -4.88084 0
    endloop
  endfacet
  facet normal 0.951057 -0.309017 0
    outer loop
      vertex 10.9625 -4.88084 0.5
      vertex 10.9625 -4.88084 0
      vertex 11.7378 -2.49494 0
    endloop
  endfacet
  facet normal 0.951057 -0.309017 0
    outer loop
      vertex 11.7378 -2.49494 0.5
      vertex 10.9625 -4.88084 0.5
      vertex 11.7378 -2.49494 0
    endloop
  endfacet
  facet normal 0.994522 -0.104529 0
    outer loop
      vertex 11.7378 -2.49494 0.5
      vertex 11.7378 -2.49494 0
      vertex 12 0 0
    endloop
  endfacet
  facet normal 0.994522 -0.104529 0
    outer loop
      vertex 12 0 0.5
      vertex 11.7378 -2.49494 0.5
      vertex 12 0 0
    endloop
  endfacet
  facet normal 0.994522 0.104529 0
    outer loop
      vertex 12 0 0
      vertex 11.7378 2.49494 0
      vertex 11.7378 2.49494 0.5
    endloop
  endfacet
  facet normal 0.994522 0.104529 0
    outer loop
      vertex 12 0 0.5
      vertex 12 0 0
      vertex 11.7378 2.49494 0.5
    endloop
  endfacet
  facet normal 0.951057 0.309017 0
    outer loop
      vertex 11.7378 2.49494 0
      vertex 10.9625 4.88084 0
      vertex 10.9625 4.88084 0.5
    endloop
  endfacet
  facet normal 0.951057 0.309017 0
    outer loop
      vertex 11.7378 2.49494 0.5
      vertex 11.7378 2.49494 0
      vertex 10.9625 4.88084 0.5
    endloop
  endfacet
  facet normal 0.866025 0.5 0
    outer loop
      vertex 10.9625 4.88084 0
      vertex 9.7082 7.05342 0
      vertex 9.7082 7.05342 0.5
    endloop
  endfacet
  facet normal 0.866025 0.5 0
    outer loop
      vertex 10.9625 4.88084 0.5
      vertex 10.9625 4.88084 0
      vertex 9.7082 7.05342 0.5
    endloop
  endfacet
  facet normal 0.743145 0.669131 0
    outer loop
      vertex 9.7082 7.05342 0
      vertex 8.02957 8.91774 0
      vertex 8.02957 8.91774 0.5
    endloop
  endfacet
  facet normal 0.743145 0.669131 0
    outer loop
      vertex 9.7082 7.05342 0.5
      vertex 9.7082 7.05342 0
      vertex 8.02957 8.91774 0.5
    endloop
  endfacet
  facet normal 0.587785 0.809017 0
    outer loop
      vertex 6 10.3923 0
      vertex 6 10.3923 0.5
      vertex 8.02957 8.91774 0
    endloop
  endfacet
  facet normal 0.587785 0.809017 0
    outer loop
      vertex 8.02957 8.91774 0
      vertex 6 10.3923 0.5
      vertex 8.02957 8.91774 0.5
    endloop
  endfacet
  facet normal 0.406737 0.913546 0
    outer loop
      vertex 3.7082 11.4127 0
      vertex 3.7082 11.4127 0.5
      vertex 6 10.3923 0
    endloop
  endfacet
  facet normal 0.406737 0.913546 0
    outer loop
      vertex 6 10.3923 0
      vertex 3.7082 11.4127 0.5
      vertex 6 10.3923 0.5
    endloop
  endfacet
  facet normal 0.207912 0.978148 0
    outer loop
      vertex 1.25434 11.9343 0
      vertex 1.25434 11.9343 0.5
      vertex 3.7082 11.4127 0
    endloop
  endfacet
  facet normal 0.207912 0.978148 0
    outer loop
      vertex 3.7082 11.4127 0
      vertex 1.25434 11.9343 0.5
      vertex 3.7082 11.4127 0.5
    endloop
  endfacet
  facet normal 0 1 0
    outer loop
      vertex -1.25434 11.9343 0
      vertex -1.25434 11.9343 0.5
      vertex 1.25434 11.9343 0
    endloop
  endfacet
  facet normal 0 1 0
    outer loop
      vertex 1.25434 11.9343 0
      vertex -1.25434 11.9343 0.5
      vertex 1.25434 11.9343 0.5
    endloop
  endfacet
  facet normal -0.207912 0.978148 0
    outer loop
      vertex -3.7082 11.4127 0
      vertex -3.7082 11.4127 0.5
      vertex -1.25434 11.9343 0
    endloop
  endfacet
  facet normal -0.207912 0.978148 0
    outer loop
      vertex -1.25434 11.9343 0
      vertex -3.7082 11.4127 0.5
      vertex -1.25434 11.9343 0.5
    endloop
  endfacet
  facet normal -0.406737 0.913546 0
    outer loop
      vertex -6 10.3923 0
      vertex -6 10.3923 0.5
      vertex -3.7082 11.4127 0
    endloop
  endfacet
  facet normal -0.406737 0.913546 0
    outer loop
      vertex -3.7082 11.4127 0
      vertex -6 10.3923 0.5
      vertex -3.7082 11.4127 0.5
    endloop
  endfacet
  facet normal -0.587785 0.809017 0
    outer loop
      vertex -8.02957 8.91774 0
      vertex -8.02957 8.91774 0.5
      vertex -6 10.3923 0
    endloop
  endfacet
  facet normal -0.587785 0.809017 0
    outer loop
      vertex -6 10.3923 0
      vertex -8.02957 8.91774 0.5
      vertex -6 10.3923 0.5
    endloop
  endfacet
  facet normal -0.743145 0.669131 0
    outer loop
      vertex -9.7082 7.05342 0
      vertex -9.7082 7.05342 0.5
      vertex -8.02957 8.91774 0
    endloop
  endfacet
  facet normal -0.743145 0.669131 0
    outer loop
      vertex -8.02957 8.91774 0
      vertex -9.7082 7.05342 0.5
      vertex -8.02957 8.91774 0.5
    endloop
  endfacet
  facet normal -0.866025 0.5 0
    outer loop
      vertex -10.9625 4.88084 0
      vertex -10.9625 4.88084 0.5
      vertex -9.7082 7.05342 0
    endloop
  endfacet
  facet normal -0.866025 0.5 0
    outer loop
      vertex -9.7082 7.05342 0
      vertex -10.9625 4.88084 0.5
      vertex -9.7082 7.05342 0.5
    endloop
  endfacet
  facet normal -0.951057 0.309017 0
    outer loop
      vertex -11.7378 2.49494 0
      vertex -11.7378 2.49494 0.5
      vertex -10.9625 4.88084 0
    endloop
  endfacet
  facet normal -0.951057 0.309017 0
    outer loop
      vertex -10.9625 4.88084 0
      vertex -11.7378 2.49494 0.5
      vertex -10.9625 4.88084 0.5
    endloop
  endfacet
  facet normal 0 0 1
    outer loop
      vertex -11.7378 2.49494 0.5
      vertex -12 0 0.5
      vertex -11.7378 -2.49494 0.5
    endloop
  endfacet
  facet normal 0 0 1
    outer loop
      vertex -9.7082 -7.05342 0.5
      vertex -11.7378 2.49494 0.5
      vertex -10.9625 -4.88084 0.5
    endloop
  endfacet
  facet normal 0 0 1
    outer loop
      vertex -10.9625 -4.88084 0.5
      vertex -11.7378 2.49494 0.5
      vertex -11.7378 -2.49494 0.5
    endloop
  endfacet
  facet normal 0 0 1
    outer loop
      vertex -8.02957 -8.91774 0.5
      vertex -11.7378 2.49494 0.5
      vertex -9.7082 -7.05342 0.5
    endloop
  endfacet
  facet normal 0 0 1
    outer loop
      vertex -6 -10.3923 0.5
      vertex -11.7378 2.49494 0.5
      vertex -8.02957 -8.91774 0.5
    endloop
  endfacet
  facet normal 0 0 1
    outer loop
      vertex -3.7082 -11.4127 0.5
      vertex -11.7378 2.49494 0.5
      vertex -6 -10.3923 0.5
    endloop
  endfacet
  facet normal 0 0 1
    outer loop
      vertex -1.25434 -11.9343 0.5
      vertex -11.7378 2.49494 0.5
      vertex -3.7082 -11.4127 0.5
    endloop
  endfacet
  facet normal 0 0 1
    outer loop
      vertex -5 -5.25 0.5
      vertex -11.7378 2.49494 0.5
      vertex -1.25434 -11.9343 0.5
    endloop
  endfacet
  facet normal 0 0 1
    outer loop
      vertex 11.7378 -2.49494 0.5
      vertex -11.7378 2.49494 0.5
      vertex 10.9625 -4.88084 0.5
    endloop
  endfacet
  facet normal 0 0 1
    outer loop
      vertex 12 0 0.5
      vertex -11.7378 2.49494 0.5
      vertex 11.7378 -2.49494 0.5
    endloop
  endfacet
  facet normal 0 0 1
    outer loop
      vertex 11.7378 2.49494 0.5
      vertex -11.7378 2.49494 0.5
      vertex 12 0 0.5
    endloop
  endfacet
  facet normal 0 0 1
    outer loop
      vertex 0.75 3.5 0.5
      vertex -11.7378 2.49494 0.5
      vertex 11.7378 2.49494 0.5
    endloop
  endfacet
  facet normal 0 0 1
    outer loop
      vertex 5 5.25 0.5
      vertex 5 4.25 0.5
      vertex 10.9625 4.88084 0.5
    endloop
  endfacet
  facet normal 0 0 1
    outer loop
      vertex 3.7082 11.4127 0.5
      vertex -11.7378 2.49494 0.5
      vertex 6 10.3923 0.5
    endloop
  endfacet
  facet normal 0 0 1
    outer loop
      vertex 1.25434 11.9343 0.5
      vertex -11.7378 2.49494 0.5
      vertex 3.7082 11.4127 0.5
    endloop
  endfacet
  facet normal 0 0 1
    outer loop
      vertex -1.25434 11.9343 0.5
      vertex -11.7378 2.49494 0.5
      vertex 1.25434 11.9343 0.5
    endloop
  endfacet
  facet normal 0 0 1
    outer loop
      vertex -3.7082 11.4127 0.5
      vertex -11.7378 2.49494 0.5
      vertex -1.25434 11.9343 0.5
    endloop
  endfacet
  facet normal 0 0 1
    outer loop
      vertex -6 10.3923 0.5
      vertex -11.7378 2.49494 0.5
      vertex -3.7082 11.4127 0.5
    endloop
  endfacet
  facet normal 0 0 1
    outer loop
      vertex -8.02957 8.91774 0.5
      vertex -11.7378 2.49494 0.5
      vertex -6 10.3923 0.5
    endloop
  endfacet
  facet normal 0 0 1
    outer loop
      vertex -9.7082 7.05342 0.5
      vertex -11.7378 2.49494 0.5
      vertex -8.02957 8.91774 0.5
    endloop
  endfacet
  facet normal 0 0 1
    outer loop
      vertex -10.9625 4.88084 0.5
      vertex -11.7378 2.49494 0.5
      vertex -9.7082 7.05342 0.5
    endloop
  endfacet
  facet normal 0 0 1
    outer loop
      vertex 1.25434 -11.9343 0.5
      vertex -5 -5.25 0.5
      vertex -1.25434 -11.9343 0.5
    endloop
  endfacet
  facet normal 0 0 1
    outer loop
      vertex 0.75 -3.5 0.5
      vertex 5 -4.25 0.5
      vertex -11.7378 2.49494 0.5
    endloop
  endfacet
  facet normal 0 0 1
    outer loop
      vertex 0.75 -4.25 0.5
      vertex 5 -4.25 0.5
      vertex 0.75 -3.5 0.5
    endloop
  endfacet
  facet normal 0 0 1
    outer loop
      vertex 0.75 -3.5 0.5
      vertex -11.7378 2.49494 0.5
      vertex -0.75 -3.5 0.5
    endloop
  endfacet
  facet normal 0 0 1
    outer loop
      vertex 10.9625 -4.88084 0.5
      vertex 5 -4.25 0.5
      vertex 9.7082 -7.05342 0.5
    endloop
  endfacet
  facet normal 0 0 1
    outer loop
      vertex 10.9625 -4.88084 0.5
      vertex -11.7378 2.49494 0.5
      vertex 5 -4.25 0.5
    endloop
  endfacet
  facet normal 0 0 1
    outer loop
      vertex -0.75 4.25 0.5
      vertex -5 4.25 0.5
      vertex -11.7378 2.49494 0.5
    endloop
  endfacet
  facet normal 0 0 1
    outer loop
      vertex -5 5.25 0.5
      vertex 9.7082 7.05342 0.5
      vertex 8.02957 8.91774 0.5
    endloop
  endfacet
  facet normal 0 0 1
    outer loop
      vertex 6 10.3923 0.5
      vertex -5 5.25 0.5
      vertex 8.02957 8.91774 0.5
    endloop
  endfacet
  facet normal 0 0 1
    outer loop
      vertex 6 10.3923 0.5
      vertex -11.7378 2.49494 0.5
      vertex -5 5.25 0.5
    endloop
  endfacet
  facet normal 0 0 1
    outer loop
      vertex 9.7082 7.05342 0.5
      vertex 5 5.25 0.5
      vertex 10.9625 4.88084 0.5
    endloop
  endfacet
  facet normal 0 0 1
    outer loop
      vertex -5 4.25 0.5
      vertex -5 5.25 0.5
      vertex -11.7378 2.49494 0.5
    endloop
  endfacet
  facet normal 0 0 1
    outer loop
      vertex 10.9625 4.88084 0.5
      vertex 5 4.25 0.5
      vertex 11.7378 2.49494 0.5
    endloop
  endfacet
  facet normal 0 0 1
    outer loop
      vertex 0.75 4.25 0.5
      vertex 0.75 3.5 0.5
      vertex 5 4.25 0.5
    endloop
  endfacet
  facet normal 0 0 1
    outer loop
      vertex 5 4.25 0.5
      vertex 0.75 3.5 0.5
      vertex 11.7378 2.49494 0.5
    endloop
  endfacet
  facet normal 0 0 1
    outer loop
      vertex -0.75 3.5 0.5
      vertex -11.7378 2.49494 0.5
      vertex 0.75 3.5 0.5
    endloop
  endfacet
  facet normal 0 0 1
    outer loop
      vertex -0.75 3.5 0.5
      vertex -0.75 4.25 0.5
      vertex -11.7378 2.49494 0.5
    endloop
  endfacet
  facet normal 0 0 1
    outer loop
      vertex -5 5.25 0.5
      vertex 5 5.25 0.5
      vertex 9.7082 7.05342 0.5
    endloop
  endfacet
  facet normal 0 0 1
    outer loop
      vertex -5 -5.25 0.5
      vertex -5 -4.25 0.5
      vertex -11.7378 2.49494 0.5
    endloop
  endfacet
  facet normal 0 0 1
    outer loop
      vertex -5 -4.25 0.5
      vertex -0.75 -4.25 0.5
      vertex -11.7378 2.49494 0.5
    endloop
  endfacet
  facet normal 0 0 1
    outer loop
      vertex -0.75 -4.25 0.5
      vertex -0.75 -3.5 0.5
      vertex -11.7378 2.49494 0.5
    endloop
  endfacet
  facet normal 0 0 1
    outer loop
      vertex 5 -4.25 0.5
      vertex 5 -5.25 0.5
      vertex 9.7082 -7.05342 0.5
    endloop
  endfacet
  facet normal 0 0 1
    outer loop
      vertex 5 -5.25 0.5
      vertex 8.02957 -8.91774 0.5
      vertex 9.7082 -7.05342 0.5
    endloop
  endfacet
  facet normal 0 0 1
    outer loop
      vertex 5 -5.25 0.5
      vertex 6 -10.3923 0.5
      vertex 8.02957 -8.91774 0.5
    endloop
  endfacet
  facet normal 0 0 1
    outer loop
      vertex 5 -5.25 0.5
      vertex 3.7082 -11.4127 0.5
      vertex 6 -10.3923 0.5
    endloop
  endfacet
  facet normal 0 0 1
    outer loop
      vertex 5 -5.25 0.5
      vertex 1.25434 -11.9343 0.5
      vertex 3.7082 -11.4127 0.5
    endloop
  endfacet
  facet normal 0 0 1
    outer loop
      vertex 5 -5.25 0.5
      vertex -5 -5.25 0.5
      vertex 1.25434 -11.9343 0.5
    endloop
  endfacet
  facet normal -1.22461e-016 -1 0
    outer loop
      vertex -5 -5.25 4.5
      vertex -5 -5.25 0.5
      vertex 5 -5.25 0.5
    endloop
  endfacet
  facet normal -1.22461e-016 -1 0
    outer loop
      vertex 5 -5.25 4.5
      vertex -5 -5.25 4.5
      vertex 5 -5.25 0.5
    endloop
  endfacet
  facet normal -1 1.22461e-016 0
    outer loop
      vertex -5 -5.25 0.5
      vertex -5 -5.25 4.5
      vertex -5 -4.25 0.5
    endloop
  endfacet
  facet normal -1 1.22461e-016 0
    outer loop
      vertex -5 -4.25 0.5
      vertex -5 -5.25 4.5
      vertex -5 -4.25 4.5
    endloop
  endfacet
  facet normal 1 -1.22461e-016 0
    outer loop
      vertex 5 -5.25 4.5
      vertex 5 -5.25 0.5
      vertex 5 -4.25 0.5
    endloop
  endfacet
  facet normal 1 -1.22461e-016 0
    outer loop
      vertex 5 -4.25 4.5
      vertex 5 -5.25 4.5
      vertex 5 -4.25 0.5
    endloop
  endfacet
  facet normal 1.22461e-016 1 0
    outer loop
      vertex 0.75 -4.25 0.5
      vertex 0.75 -4.25 4.5
      vertex 5 -4.25 0.5
    endloop
  endfacet
  facet normal 1.22461e-016 1 0
    outer loop
      vertex 5 -4.25 0.5
      vertex 0.75 -4.25 4.5
      vertex 5 -4.25 4.5
    endloop
  endfacet
  facet normal 1 -1.22461e-016 0
    outer loop
      vertex 0.75 -4.25 4.5
      vertex 0.75 -4.25 0.5
      vertex 0.75 -3.5 0.5
    endloop
  endfacet
  facet normal 1 -1.22461e-016 0
    outer loop
      vertex 0.75 -3.5 4.5
      vertex 0.75 -4.25 4.5
      vertex 0.75 -3.5 0.5
    endloop
  endfacet
  facet normal 1.22461e-016 1 0
    outer loop
      vertex -0.75 -3.5 0.5
      vertex -0.75 -3.5 4.5
      vertex 0.75 -3.5 0.5
    endloop
  endfacet
  facet normal 1.22461e-016 1 0
    outer loop
      vertex 0.75 -3.5 0.5
      vertex -0.75 -3.5 4.5
      vertex 0.75 -3.5 4.5
    endloop
  endfacet
  facet normal -1 1.22461e-016 0
    outer loop
      vertex -0.75 -4.25 0.5
      vertex -0.75 -4.25 4.5
      vertex -0.75 -3.5 0.5
    endloop
  endfacet
  facet normal -1 1.22461e-016 0
    outer loop
      vertex -0.75 -3.5 0.5
      vertex -0.75 -4.25 4.5
      vertex -0.75 -3.5 4.5
    endloop
  endfacet
  facet normal 1.22461e-016 1 0
    outer loop
      vertex -5 -4.25 0.5
      vertex -5 -4.25 4.5
      vertex -0.75 -4.25 0.5
    endloop
  endfacet
  facet normal 1.22461e-016 1 0
    outer loop
      vertex -0.75 -4.25 0.5
      vertex -5 -4.25 4.5
      vertex -0.75 -4.25 4.5
    endloop
  endfacet
  facet normal -1 0 0
    outer loop
      vertex -5 4.25 0.5
      vertex -5 4.25 4.5
      vertex -5 5.25 0.5
    endloop
  endfacet
  facet normal -1 0 0
    outer loop
      vertex -5 5.25 0.5
      vertex -5 4.25 4.5
      vertex -5 5.25 4.5
    endloop
  endfacet
  facet normal 0 -1 0
    outer loop
      vertex -5 4.25 4.5
      vertex -5 4.25 0.5
      vertex -0.75 4.25 0.5
    endloop
  endfacet
  facet normal 0 -1 0
    outer loop
      vertex -0.75 4.25 4.5
      vertex -5 4.25 4.5
      vertex -0.75 4.25 0.5
    endloop
  endfacet
  facet normal -1 0 0
    outer loop
      vertex -0.75 3.5 0.5
      vertex -0.75 3.5 4.5
      vertex -0.75 4.25 0.5
    endloop
  endfacet
  facet normal -1 0 0
    outer loop
      vertex -0.75 4.25 0.5
      vertex -0.75 3.5 4.5
      vertex -0.75 4.25 4.5
    endloop
  endfacet
  facet normal 0 -1 0
    outer loop
      vertex -0.75 3.5 4.5
      vertex -0.75 3.5 0.5
      vertex 0.75 3.5 0.5
    endloop
  endfacet
  facet normal 0 -1 0
    outer loop
      vertex 0.75 3.5 4.5
      vertex -0.75 3.5 4.5
      vertex 0.75 3.5 0.5
    endloop
  endfacet
  facet normal 1 0 0
    outer loop
      vertex 0.75 3.5 4.5
      vertex 0.75 3.5 0.5
      vertex 0.75 4.25 0.5
    endloop
  endfacet
  facet normal 1 0 0
    outer loop
      vertex 0.75 4.25 4.5
      vertex 0.75 3.5 4.5
      vertex 0.75 4.25 0.5
    endloop
  endfacet
  facet normal 0 -1 0
    outer loop
      vertex 0.75 4.25 4.5
      vertex 0.75 4.25 0.5
      vertex 5 4.25 0.5
    endloop
  endfacet
  facet normal 0 -1 0
    outer loop
      vertex 5 4.25 4.5
      vertex 0.75 4.25 4.5
      vertex 5 4.25 0.5
    endloop
  endfacet
  facet normal 1 0 0
    outer loop
      vertex 5 4.25 4.5
      vertex 5 4.25 0.5
      vertex 5 5.25 0.5
    endloop
  endfacet
  facet normal 1 0 0
    outer loop
      vertex 5 5.25 4.5
      vertex 5 4.25 4.5
      vertex 5 5.25 0.5
    endloop
  endfacet
  facet normal 0 1 0
    outer loop
      vertex -5 5.25 0.5
      vertex -5 5.25 4.5
      vertex 5 5.25 0.5
    endloop
  endfacet
  facet normal 0 1 0
    outer loop
      vertex 5 5.25 0.5
      vertex -5 5.25 4.5
      vertex 5 5.25 4.5
    endloop
  endfacet
  facet normal 0 0 1
    outer loop
      vertex -5 -4.25 4.5
      vertex -5 -5.25 4.5
      vertex 5 -5.25 4.5
    endloop
  endfacet
  facet normal 0 0 1
    outer loop
      vertex -0.75 -4.25 4.5
      vertex -5 -4.25 4.5
      vertex 5 -5.25 4.5
    endloop
  endfacet
  facet normal 0 0 1
    outer loop
      vertex 0.75 -4.25 4.5
      vertex -0.75 -4.25 4.5
      vertex 5 -5.25 4.5
    endloop
  endfacet
  facet normal 0 0 1
    outer loop
      vertex 5 -4.25 4.5
      vertex 0.75 -4.25 4.5
      vertex 5 -5.25 4.5
    endloop
  endfacet
  facet normal 0 0 1
    outer loop
      vertex 0.75 -3.5 4.5
      vertex -0.75 -4.25 4.5
      vertex 0.75 -4.25 4.5
    endloop
  endfacet
  facet normal 0 0 1
    outer loop
      vertex -0.75 -3.5 4.5
      vertex -0.75 -4.25 4.5
      vertex 0.75 -3.5 4.5
    endloop
  endfacet
  facet normal 0 0 1
    outer loop
      vertex -5 5.25 4.5
      vertex -5 4.25 4.5
      vertex -0.75 4.25 4.5
    endloop
  endfacet
  facet normal 0 0 1
    outer loop
      vertex 0.75 4.25 4.5
      vertex -5 5.25 4.5
      vertex -0.75 4.25 4.5
    endloop
  endfacet
  facet normal 0 0 1
    outer loop
      vertex -0.75 3.5 4.5
      vertex 0.75 3.5 4.5
      vertex -0.75 4.25 4.5
    endloop
  endfacet
  facet normal 0 0 1
    outer loop
      vertex 0.75 3.5 4.5
      vertex 0.75 4.25 4.5
      vertex -0.75 4.25 4.5
    endloop
  endfacet
  facet normal 0 0 1
    outer loop
      vertex 0.75 4.25 4.5
      vertex 5 4.25 4.5
      vertex -5 5.25 4.5
    endloop
  endfacet
  facet normal 0 0 1
    outer loop
      vertex 5 4.25 4.5
      vertex 5 5.25 4.5
      vertex -5 5.25 4.5
    endloop
  endfacet
endsolid OpenSCAD_Model
